<svg version="1.1" id="Layer_1" xmlns="http://www.w3.org/2000/svg" xmlns:xlink="http://www.w3.org/1999/xlink" x="0px" y="0px"
	 width="100%" viewBox="0 0 794 55" enable-background="new 0 0 794 55" xml:space="preserve">
<path fill="#FFFFFF" opacity="1.000000" stroke="none" 
	d="
M781.000000,1.000000 
	C785.664368,1.000000 790.328674,1.000000 794.994751,1.000000 
	C794.996521,19.321934 794.996521,37.643871 794.998291,55.964882 
	C530.333313,55.963955 265.666656,55.963955 1.000000,55.963955 
	C1.000000,49.264549 1.000000,42.601185 1.248799,35.469368 
	C1.497597,35.000908 1.995195,35.000000 2.281306,35.307083 
	C3.880194,35.744553 5.192968,35.989101 6.505750,35.989147 
	C159.331116,35.994308 312.156464,35.981323 465.452332,35.984406 
	C489.614166,35.998306 513.305481,35.997116 537.465576,35.999836 
	C545.959900,35.998428 553.985413,35.993111 562.472839,35.991398 
	C566.952820,35.992706 570.970825,35.990402 575.457764,35.993538 
	C581.955322,35.995087 587.983948,35.991199 594.438965,35.990990 
	C596.572571,35.992077 598.279724,35.989487 600.456299,35.992455 
	C626.616394,35.995167 652.306946,35.992332 678.466492,35.994064 
	C712.661499,35.979717 746.387573,35.960800 780.421875,35.663750 
	C780.820007,23.923744 780.910034,12.461872 781.000000,1.000000 
z"/>
<path fill="#ECECED" opacity="1.000000" stroke="none" 
	d="
M1.000000,7.000000 
	C1.000000,5.002230 1.000000,3.004460 1.000000,1.003345 
	C128.022644,1.000000 255.045288,1.000000 382.533020,1.375014 
	C382.330170,3.494427 381.662262,5.238827 380.526306,6.987991 
	C351.012360,7.207842 321.966705,7.517061 292.920471,7.595786 
	C279.658173,7.631732 266.395020,7.174343 253.131226,7.048098 
	C251.407730,7.031693 249.678116,7.659593 247.717957,7.986163 
	C247.484604,7.983275 247.017838,7.984980 246.597839,7.983718 
	C243.452133,7.655591 240.726410,7.328726 237.667145,7.000232 
	C236.888809,6.999693 236.444061,7.000783 235.530685,7.001274 
	C218.401154,6.999659 201.740097,6.966588 185.079559,7.045995 
	C183.367264,7.054156 181.658142,7.734473 179.488708,8.066160 
	C174.479324,8.059500 169.928787,8.089575 165.005890,8.071895 
	C164.386154,8.048459 164.138779,8.072780 163.512711,8.096238 
	C161.775803,8.446334 160.417572,8.797290 158.802582,9.107145 
	C158.375076,9.095850 158.204300,9.125653 157.808014,9.087688 
	C157.582474,9.019921 157.115479,8.958814 157.073425,8.755054 
	C157.031357,8.551296 156.966888,8.140190 156.708893,7.805326 
	C148.313232,7.577225 140.175568,7.683989 131.720642,7.862456 
	C130.883636,8.270864 130.363861,8.607569 129.453156,8.905005 
	C126.675041,8.619692 124.287880,8.373645 121.501518,8.096710 
	C119.054344,8.429570 117.006363,8.793318 114.605011,8.942730 
	C110.512100,8.849042 106.772575,8.969690 102.778702,9.039663 
	C102.353081,8.965347 102.181816,8.941707 101.906876,8.530922 
	C100.295364,7.758747 98.788048,7.040239 97.279594,7.037811 
	C65.562241,6.986760 33.844757,7.016554 1.846546,6.983310 
	C1.377194,6.957420 1.188597,6.978710 1.000000,7.000000 
z"/>
<path fill="#FDFEFE" opacity="1.000000" stroke="none" 
	d="
M714.000000,0.999996 
	C735.687561,1.000000 757.375122,1.000000 779.533142,1.468655 
	C779.960571,11.950801 779.917480,21.964293 779.441895,31.986580 
	C776.673706,31.995655 774.337952,31.995935 771.959839,31.636799 
	C767.346497,28.674774 762.775452,26.072165 756.872681,22.711256 
	C762.101685,19.676632 766.475952,17.138050 772.099304,13.874564 
	C769.586792,12.604199 768.077759,11.349133 766.417480,11.099235 
	C762.356445,10.488003 758.225830,10.084066 754.122742,10.080498 
	C750.082092,10.076982 746.040955,10.668732 741.596252,10.998713 
	C735.128357,10.998549 729.064148,10.998969 722.532043,10.999142 
	C716.376038,10.999090 710.688049,10.999286 704.535339,10.998531 
	C699.714600,10.991121 695.358521,10.984660 691.004639,10.556816 
	C690.732117,7.257385 692.491699,6.947974 694.767334,6.976711 
	C700.580505,7.050121 706.397217,7.084775 712.207886,6.943378 
	C713.774170,6.905262 715.323853,6.182852 717.165283,5.700060 
	C715.770142,3.628414 714.885071,2.314203 714.000000,0.999996 
z"/>
<path fill="#FBFCFB" opacity="1.000000" stroke="none" 
	d="
M713.531372,0.999996 
	C714.885071,2.314203 715.770142,3.628414 717.165283,5.700060 
	C715.323853,6.182852 713.774170,6.905262 712.207886,6.943378 
	C706.397217,7.084775 700.580505,7.050121 694.767334,6.976711 
	C692.491699,6.947974 690.732117,7.257385 690.536072,10.563528 
	C684.043579,10.993984 678.021790,10.996345 671.531372,10.997326 
	C661.713501,10.989315 652.364258,10.982684 642.959534,10.645287 
	C641.932251,10.535802 640.960571,10.757084 639.535889,10.981641 
	C636.060425,10.978990 633.038025,10.973064 629.948364,10.624881 
	C628.204712,8.348937 626.849304,8.254433 625.555908,10.968550 
	C623.419983,10.981578 621.711243,10.988927 619.541870,10.992990 
	C615.392700,10.976880 611.704102,10.964054 607.917236,10.562140 
	C602.857544,10.134630 597.896240,10.096208 592.511230,10.057500 
	C584.388550,10.049218 576.689453,10.041221 569.008850,9.615467 
	C570.402893,8.465159 571.757019,7.151429 573.157593,7.100012 
	C579.430359,6.869738 585.716370,6.998964 592.466492,6.999014 
	C606.686462,6.999691 620.437561,7.012294 634.188538,6.981655 
	C635.659241,6.978378 637.640930,7.287103 638.516785,6.492921 
	C644.259216,1.286423 650.732422,2.930987 657.304749,3.723856 
	C658.739380,3.896929 660.428223,1.963364 662.000000,1.000005 
	C679.020874,1.000000 696.041809,1.000000 713.531372,0.999996 
z"/>
<path fill="#80D3F6" opacity="1.000000" stroke="none" 
	d="
M1.000000,15.000000 
	C1.000000,13.611003 1.000000,12.222005 1.423496,10.415798 
	C4.794411,9.666041 7.741090,9.052444 10.689364,9.044688 
	C38.303181,8.972038 65.917267,9.003150 93.531281,9.004234 
	C95.477463,9.004311 97.423653,9.004244 99.994629,9.004244 
	C99.994629,11.722239 99.994629,13.836617 99.526657,15.964802 
	C66.745468,15.964845 34.432243,15.951079 1.993489,15.715553 
	C1.578636,15.329195 1.289318,15.164598 1.000000,15.000000 
z"/>
<path fill="#F4F3F4" opacity="1.000000" stroke="none" 
	d="
M483.000000,1.000000 
	C505.687561,1.000000 528.375122,1.000000 551.482056,1.334281 
	C551.599304,3.774989 551.297180,5.881416 550.555786,7.990792 
	C546.409302,8.329268 542.702209,8.664794 538.912231,8.609205 
	C535.551208,7.811488 532.273193,7.404886 528.616882,7.040888 
	C526.496521,7.387735 524.754333,7.691978 522.633423,7.996356 
	C520.501160,8.668885 518.747681,9.341280 516.613464,10.030037 
	C515.474365,10.119401 514.715942,10.192402 513.530884,10.210995 
	C511.095612,10.114351 509.086945,10.072119 506.729919,10.018694 
	C505.585449,9.668469 504.789307,9.329436 503.911560,8.604750 
	C500.742340,6.761982 497.662537,5.393447 494.762268,8.995407 
	C494.334717,9.000176 494.163696,9.002137 493.755371,8.699343 
	C491.468170,7.929796 489.425751,7.106696 487.367126,7.063920 
	C479.579681,6.902107 471.787048,6.993442 464.047760,6.609606 
	C465.547546,5.482904 466.959015,4.650699 468.452576,4.009751 
	C470.940704,2.942000 473.481415,1.996798 476.000000,0.999999 
	C476.750000,1.000000 477.500000,1.000000 478.685547,1.346869 
	C480.809814,3.675426 482.161438,3.771970 483.000000,1.000000 
z"/>
<path fill="#F0F0F1" opacity="1.000000" stroke="none" 
	d="
M475.531342,0.999999 
	C473.481415,1.996798 470.940704,2.942000 468.452576,4.009751 
	C466.959015,4.650699 465.547546,5.482904 463.579529,6.612395 
	C435.704712,6.991498 408.349548,6.987364 380.994385,6.983228 
	C381.662262,5.238827 382.330170,3.494427 382.999023,1.375014 
	C413.687561,1.000000 444.375122,1.000000 475.531342,0.999999 
z"/>
<path fill="#F4F6F8" opacity="1.000000" stroke="none" 
	d="
M550.995117,7.987843 
	C551.297180,5.881416 551.599304,3.774989 551.950684,1.334281 
	C570.020874,1.000000 588.041809,1.000000 606.441772,1.394452 
	C603.745850,2.192762 600.679810,2.805324 597.593018,2.940055 
	C594.677429,3.067309 592.476746,3.723836 591.997559,6.998427 
	C585.716370,6.998964 579.430359,6.869738 573.157593,7.100012 
	C571.757019,7.151429 570.402893,8.465159 568.604553,9.620110 
	C567.105652,10.098704 566.029602,10.154902 564.609253,10.008641 
	C561.899475,9.564872 559.534058,9.323562 556.773010,9.054193 
	C554.583313,8.680037 552.789246,8.333941 550.995117,7.987843 
z"/>
<path fill="#F9F9F9" opacity="1.000000" stroke="none" 
	d="
M592.466492,6.999014 
	C592.476746,3.723836 594.677429,3.067309 597.593018,2.940055 
	C600.679810,2.805324 603.745850,2.192762 606.910461,1.394452 
	C625.020874,1.000000 643.041809,1.000000 661.531372,1.000005 
	C660.428223,1.963364 658.739380,3.896929 657.304749,3.723856 
	C650.732422,2.930987 644.259216,1.286423 638.516785,6.492921 
	C637.640930,7.287103 635.659241,6.978378 634.188538,6.981655 
	C620.437561,7.012294 606.686462,6.999691 592.466492,6.999014 
z"/>
<path fill="#98BED0" opacity="1.000000" stroke="none" 
	d="
M1.000000,15.467606 
	C1.289318,15.164598 1.578636,15.329195 1.951033,16.187473 
	C2.025351,19.208292 2.298539,21.578516 1.950834,23.853861 
	C1.156067,29.054728 3.321254,30.169279 8.276532,30.127590 
	C36.699966,29.888462 65.126457,30.013361 93.551910,30.011957 
	C96.347580,30.011820 99.143250,29.992777 102.174744,30.091431 
	C102.609619,30.476547 102.808662,30.752741 102.996216,31.258884 
	C102.984711,31.488836 102.966705,31.949432 102.636047,31.970339 
	C101.865334,32.028828 101.425293,32.066410 100.522186,32.066917 
	C95.381927,32.062134 90.704720,32.094421 85.686188,32.104073 
	C84.889313,32.097282 84.433762,32.113132 83.544983,32.083549 
	C81.075874,32.077049 79.039993,32.115978 76.626251,32.124226 
	C74.756943,32.345032 73.265511,32.596523 71.370491,32.824585 
	C69.084122,32.815639 67.201332,32.830128 65.041428,32.622414 
	C63.488060,32.501507 62.211823,32.602802 60.516006,32.716724 
	C58.140141,32.757214 56.183853,32.785076 53.920994,32.577377 
	C52.073807,32.273655 50.533199,32.205490 48.525620,32.104553 
	C40.700287,32.090000 33.341930,32.108215 25.520584,32.081039 
	C20.045141,32.066792 15.032685,32.097935 9.641363,32.102493 
	C8.503816,32.096043 7.745135,32.116173 6.593137,32.088531 
	C5.146718,32.072464 4.093616,32.104164 2.701079,32.104431 
	C1.907763,32.048668 1.453882,32.024334 1.000000,32.000000 
	C1.000000,26.645071 1.000000,21.290142 1.000000,15.467606 
z"/>
<path fill="#EAEEF0" opacity="1.000000" stroke="none" 
	d="
M6.986454,32.136303 
	C7.745135,32.116173 8.503816,32.096043 9.950161,32.369019 
	C15.753075,32.483562 20.868322,32.304996 25.983572,32.126431 
	C33.341930,32.108215 40.700287,32.090000 48.646240,32.297886 
	C49.440926,32.761341 49.695480,32.924850 49.998184,33.340508 
	C49.998623,34.100910 49.998371,34.535316 49.529659,34.978569 
	C33.372532,34.991615 17.683863,34.995808 1.995195,35.000000 
	C1.995195,35.000000 1.497597,35.000908 1.248799,35.000454 
	C1.000000,34.250000 1.000000,33.500000 1.000000,32.375000 
	C1.453882,32.024334 1.907763,32.048668 2.917831,32.337524 
	C4.644830,32.446796 5.815642,32.291550 6.986454,32.136303 
z"/>
<path fill="#90CEE5" opacity="1.000000" stroke="none" 
	d="
M99.994629,15.950994 
	C99.994629,13.836617 99.994629,11.722239 99.994629,9.004244 
	C97.423653,9.004244 95.477463,9.004311 93.531281,9.004234 
	C65.917267,9.003150 38.303181,8.972038 10.689364,9.044688 
	C7.741090,9.052444 4.794411,9.666041 1.423496,9.999294 
	C1.000000,9.250000 1.000000,8.500000 1.000000,7.375000 
	C1.188597,6.978710 1.377194,6.957420 2.098475,7.304213 
	C4.441166,7.780700 6.251106,7.982309 8.061188,7.983591 
	C37.274822,8.004284 66.488510,7.980639 95.702034,8.040014 
	C97.805458,8.044290 99.907738,8.612213 102.010544,8.918066 
	C102.181816,8.941707 102.353081,8.965347 102.734131,9.422794 
	C102.610497,11.906064 102.277084,13.955526 101.619057,16.001383 
	C100.861168,15.982182 100.427902,15.966588 99.994629,15.950994 
z"/>
<path fill="#B3B3B4" opacity="1.000000" stroke="none" 
	d="
M779.874390,31.977783 
	C779.917480,21.964293 779.960571,11.950801 780.001831,1.468655 
	C780.000000,1.000000 780.500000,1.000000 780.750000,1.000000 
	C780.910034,12.461872 780.820007,23.923744 780.385986,35.268852 
	C779.986023,34.093987 779.930176,33.035885 779.874390,31.977783 
z"/>
<path fill="#F0F0F1" opacity="1.000000" stroke="none" 
	d="
M482.600006,1.000000 
	C482.161438,3.771970 480.809814,3.675426 479.060547,1.346869 
	C480.066681,1.000000 481.133331,1.000000 482.600006,1.000000 
z"/>
<path fill="#DDDDDF" opacity="1.000000" stroke="none" 
	d="
M2.281306,35.307083 
	C17.683863,34.995808 33.372532,34.991615 49.946815,34.986847 
	C52.222748,34.980442 53.613068,34.974602 55.419167,34.974174 
	C57.220917,34.975056 58.606888,34.970524 60.330219,34.975750 
	C61.446754,34.666611 62.225937,34.347717 63.304306,34.003895 
	C64.074104,33.658356 64.544708,33.337746 65.086990,32.966743 
	C65.158669,32.916348 65.318550,32.844612 65.318550,32.844612 
	C67.201332,32.830128 69.084122,32.815639 71.497726,33.203102 
	C73.684547,34.059368 75.340546,34.513680 77.465317,34.977249 
	C89.298431,34.980705 100.662758,34.974899 112.420853,34.974396 
	C113.866341,34.974262 114.918068,34.968830 116.438835,34.975395 
	C120.339455,34.990292 123.784714,35.170345 127.195671,34.906628 
	C128.511795,34.804874 129.750015,33.695419 131.489624,33.037331 
	C142.635544,33.031433 153.315552,33.033279 164.168701,33.270279 
	C164.976135,33.265633 165.610428,33.025829 166.638702,32.784172 
	C168.608292,32.777473 170.183945,32.772625 171.981339,33.056419 
	C173.212967,33.150513 174.222855,32.955967 175.567566,32.763725 
	C176.794724,32.800213 177.687073,32.834396 178.926666,32.914074 
	C179.504303,32.978817 179.734711,32.998062 180.200287,33.310013 
	C183.408279,35.014839 186.399399,36.708744 189.508148,33.038437 
	C210.334641,33.683010 230.691788,34.563923 251.057434,34.859631 
	C258.439575,34.966820 265.848755,33.076801 273.233673,33.159679 
	C284.627716,33.287548 296.005341,34.565521 307.402771,34.863338 
	C311.785736,34.977867 316.218170,33.135628 320.603455,33.238102 
	C333.161224,33.531540 345.704193,34.420918 358.259247,34.917519 
	C359.934082,34.983765 361.645172,34.134399 363.757446,33.723476 
	C366.961273,33.775703 369.747131,33.813503 372.894104,33.897911 
	C373.494965,33.964176 373.734680,33.983829 374.315979,34.007805 
	C375.113068,34.006935 375.568542,34.001743 376.257812,33.874321 
	C376.698273,33.468575 376.904968,33.185055 377.560730,32.884712 
	C381.582336,32.879444 385.154877,32.891003 389.034058,32.941879 
	C389.546234,32.996925 389.751740,33.012657 390.057861,33.423363 
	C391.667267,34.212074 393.175201,34.944992 394.684998,34.948730 
	C417.841614,35.006115 440.998474,34.968464 464.351685,34.948860 
	C464.548126,34.944798 464.941040,34.940441 464.955963,35.197472 
	C464.974518,35.626110 464.978180,35.797710 464.981842,35.969315 
	C312.156464,35.981323 159.331116,35.994308 6.505750,35.989147 
	C5.192968,35.989101 3.880194,35.744553 2.281306,35.307083 
z"/>
<path fill="#E9F0F8" opacity="1.000000" stroke="none" 
	d="
M562.010864,35.987789 
	C553.985413,35.993111 545.959900,35.998428 537.172363,35.702713 
	C522.452637,35.266762 508.494293,35.172478 494.537994,34.948677 
	C492.662994,34.918610 490.798431,34.235340 489.186462,33.594170 
	C491.956451,32.878525 494.469025,32.423260 497.451965,31.984190 
	C510.611633,31.995020 523.300964,31.989649 536.459961,31.994339 
	C547.618103,31.999681 558.306641,31.994965 569.464050,31.995310 
	C580.953064,31.997686 591.973145,31.994995 603.462280,31.995337 
	C615.508423,31.997643 627.086365,32.066750 638.661194,31.908148 
	C640.114258,31.888239 641.550903,30.667717 643.463623,30.002331 
	C654.954712,31.000740 665.977356,32.000294 677.124878,33.293999 
	C677.499084,34.388596 677.748352,35.189037 677.997559,35.989487 
	C652.306946,35.992332 626.616394,35.995167 600.212524,35.719307 
	C597.670349,35.622845 595.841431,35.805080 594.012512,35.987312 
	C587.983948,35.991199 581.955322,35.995087 575.169312,35.700996 
	C570.278137,35.597942 566.144531,35.792866 562.010864,35.987789 
z"/>
<path fill="#ECF2FB" opacity="1.000000" stroke="none" 
	d="
M678.466553,35.994057 
	C677.748352,35.189037 677.499084,34.388596 677.250305,32.999123 
	C677.500549,31.606703 677.750244,30.803312 678.457581,29.999895 
	C690.944275,30.665934 702.973328,31.331999 715.470825,31.998383 
	C723.959717,31.998243 731.980286,31.997784 740.469360,31.997917 
	C751.292725,31.997746 761.647461,31.996981 772.002197,31.996216 
	C774.337952,31.995935 776.673706,31.995655 779.441895,31.986580 
	C779.930176,33.035885 779.986023,34.093987 780.077759,35.546989 
	C746.387573,35.960800 712.661499,35.979717 678.466553,35.994057 
z"/>
<path fill="#E7E8ED" opacity="1.000000" stroke="none" 
	d="
M488.929047,33.854546 
	C490.798431,34.235340 492.662994,34.918610 494.537994,34.948677 
	C508.494293,35.172478 522.452637,35.266762 536.703552,35.698799 
	C513.305481,35.997116 489.614166,35.998306 465.452332,35.984406 
	C464.978180,35.797710 464.974518,35.626110 465.343079,35.150642 
	C469.449402,34.195168 473.183533,33.543556 477.159393,33.187519 
	C478.656189,33.628414 479.911285,33.773731 481.597900,33.915474 
	C484.329315,33.892776 486.629181,33.873661 488.929047,33.854546 
z"/>
<path fill="#E7E8ED" opacity="1.000000" stroke="none" 
	d="
M562.472839,35.991398 
	C566.144531,35.792866 570.278137,35.597942 574.700317,35.695560 
	C570.970825,35.990402 566.952820,35.992706 562.472839,35.991398 
z"/>
<path fill="#E7E8ED" opacity="1.000000" stroke="none" 
	d="
M594.438965,35.990990 
	C595.841431,35.805080 597.670349,35.622845 599.743042,35.713753 
	C598.279724,35.989487 596.572571,35.992077 594.438965,35.990990 
z"/>
<path fill="#FDFEFE" opacity="1.000000" stroke="none" 
	d="
M380.526306,6.987992 
	C408.349548,6.987364 435.704712,6.991498 463.528107,6.992844 
	C471.787048,6.993442 479.579681,6.902107 487.367126,7.063920 
	C489.425751,7.106696 491.468170,7.929796 493.751740,8.991769 
	C493.975098,9.975982 493.964783,10.363014 493.523438,10.802734 
	C491.062500,10.897315 489.032593,10.939207 486.534058,10.961323 
	C478.045074,10.951588 470.024719,10.961628 461.535645,10.950122 
	C453.711914,10.942502 446.356842,10.956430 438.533569,10.943776 
	C430.053528,10.930161 422.041718,10.943130 413.647583,10.928585 
	C412.499329,10.918229 411.733368,10.935384 410.533325,10.922598 
	C408.069122,10.918511 406.039001,10.944365 403.636078,10.940111 
	C402.516113,10.926269 401.768982,10.942533 400.582275,10.922588 
	C398.086884,10.907434 396.031067,10.928493 393.547119,10.919976 
	C391.416565,10.782227 389.714142,10.674051 387.878479,10.224924 
	C384.193207,10.094609 380.641205,10.305248 376.692352,10.618005 
	C375.203827,10.791669 374.112152,10.863217 372.769958,10.913626 
	C372.352844,10.910297 372.186188,10.928108 372.048553,10.868687 
	C372.077606,10.791454 372.047089,10.629270 371.983582,10.373720 
	C371.275665,10.085178 370.631287,10.052187 369.551117,10.032631 
	C367.080963,10.037287 365.046600,10.028507 362.757843,9.733070 
	C360.331604,9.637827 358.159729,9.829242 355.534332,10.032986 
	C346.443024,9.728166 337.805267,9.411016 328.735291,9.058548 
	C325.893738,9.334003 323.484406,9.644777 320.773926,9.672632 
	C316.917542,9.567113 312.990021,7.058011 309.471680,10.873916 
	C300.683411,10.857334 292.358917,10.816497 284.007202,10.372753 
	C282.540833,9.312692 281.110321,8.108558 279.661255,8.085854 
	C269.093384,7.920274 258.521759,7.992164 247.951324,7.989051 
	C249.678116,7.659593 251.407730,7.031693 253.131226,7.048098 
	C266.395020,7.174343 279.658173,7.631732 292.920471,7.595786 
	C321.966705,7.517061 351.012360,7.207842 380.526306,6.987992 
z"/>
<path fill="#6089C5" opacity="1.000000" stroke="none" 
	d="
M157.115479,8.958814 
	C157.115479,8.958814 157.582474,9.019921 157.908508,9.271484 
	C158.414337,9.752301 158.645752,9.901545 158.996262,9.948369 
	C159.063736,9.925961 159.205475,9.937013 159.129532,10.361017 
	C158.979263,12.492887 158.904953,14.200752 158.373047,15.926938 
	C149.277985,15.925367 140.640518,15.905478 132.002991,15.446739 
	C132.111771,13.116570 132.220627,11.225249 132.351089,8.958814 
	C140.993469,8.958814 149.054474,8.958814 157.115479,8.958814 
z"/>
<path fill="#FBFCFB" opacity="1.000000" stroke="none" 
	d="
M179.947556,8.102896 
	C181.658142,7.734473 183.367264,7.054156 185.079559,7.045995 
	C201.740097,6.966588 218.401154,6.999659 235.531387,7.383796 
	C235.992355,8.785826 235.983994,9.804733 235.563232,10.869026 
	C233.093994,10.625133 231.037155,10.335856 228.924896,9.681607 
	C226.982346,7.518822 225.253891,6.926345 223.565262,9.969627 
	C221.088104,9.979096 219.048111,9.976292 216.966858,9.678271 
	C216.280258,9.576941 215.634933,9.770824 214.773956,10.069167 
	C214.283356,10.359738 214.094788,10.610736 213.528473,10.926897 
	C208.714645,10.939679 204.364944,10.952182 199.661713,10.822106 
	C197.541077,10.456231 195.773956,10.232935 193.744659,9.721613 
	C189.984772,9.272467 186.487076,9.111347 182.643219,8.964697 
	C181.835358,9.000164 181.373657,9.021160 180.689667,8.958550 
	C180.189438,8.688075 180.016159,8.430726 179.947556,8.102896 
z"/>
<path fill="#51BDEA" opacity="1.000000" stroke="none" 
	d="
M179.488708,8.066160 
	C180.016159,8.430726 180.189438,8.688075 180.740387,9.255260 
	C181.312378,10.119856 181.611374,10.604136 181.935394,11.450549 
	C181.649231,12.899200 181.338043,13.985721 180.607300,15.093287 
	C175.023804,15.331833 169.859879,15.549335 164.716095,15.487568 
	C164.764664,14.836041 164.793076,14.463783 164.948608,13.678247 
	C165.176575,11.549863 165.277420,9.834757 165.378250,8.119650 
	C169.928787,8.089575 174.479324,8.059500 179.488708,8.066160 
z"/>
<path fill="#F4F6F8" opacity="1.000000" stroke="none" 
	d="
M247.717957,7.986163 
	C258.521759,7.992164 269.093384,7.920274 279.661255,8.085854 
	C281.110321,8.108558 282.540833,9.312692 283.758484,10.437052 
	C283.367340,10.923368 283.197693,10.942477 282.766174,10.943785 
	C282.329712,10.935123 282.155151,10.944262 281.515991,10.933418 
	C276.370453,10.935422 271.689514,10.957409 266.540863,10.955043 
	C260.707489,10.942494 255.341782,10.954300 249.600342,10.958474 
	C248.474869,10.904867 247.725113,10.858891 246.980408,10.459602 
	C246.996231,9.399188 247.007034,8.692084 247.017838,7.984980 
	C247.017838,7.984980 247.484604,7.983275 247.717957,7.986163 
z"/>
<path fill="#89C673" opacity="1.000000" stroke="none" 
	d="
M101.943672,16.004990 
	C102.277084,13.955526 102.610497,11.906064 102.988480,9.473470 
	C106.772575,8.969690 110.512100,8.849042 114.775009,9.269508 
	C115.453629,11.777131 115.608871,13.743637 115.330421,15.803553 
	C110.634178,15.916140 106.371620,15.935318 102.066071,15.961727 
	C102.023071,15.968958 101.943672,16.004990 101.943672,16.004990 
z"/>
<path fill="#D3F9FF" opacity="1.000000" stroke="none" 
	d="
M101.906876,8.530922 
	C99.907738,8.612213 97.805458,8.044290 95.702034,8.040014 
	C66.488510,7.980639 37.274822,8.004284 8.061188,7.983591 
	C6.251106,7.982309 4.441166,7.780700 2.379231,7.351392 
	C33.844757,7.016554 65.562241,6.986760 97.279594,7.037811 
	C98.788048,7.040239 100.295364,7.758747 101.906876,8.530922 
z"/>
<path fill="#FDF79C" opacity="1.000000" stroke="none" 
	d="
M121.900711,8.127599 
	C124.287880,8.373645 126.675041,8.619692 129.513519,9.344805 
	C129.932083,11.876575 129.899307,13.929280 129.429993,15.986809 
	C126.629585,15.972816 124.265709,15.954002 121.762680,15.589041 
	C121.715912,12.871128 121.808311,10.499363 121.900711,8.127599 
z"/>
<path fill="#B0D89F" opacity="1.000000" stroke="none" 
	d="
M121.501518,8.096710 
	C121.808311,10.499363 121.715912,12.871128 121.535217,15.606419 
	C121.446915,15.969945 120.990860,16.008722 120.574554,15.996966 
	C118.768112,15.986142 117.377975,15.987074 115.929794,15.920247 
	C115.871735,15.852489 115.764114,15.710144 115.764114,15.710144 
	C115.608871,13.743637 115.453629,11.777131 115.128387,9.483845 
	C117.006363,8.793318 119.054344,8.429570 121.501518,8.096710 
z"/>
<path fill="#6B89B2" opacity="1.000000" stroke="none" 
	d="
M129.866547,15.981986 
	C129.899307,13.929280 129.932083,11.876575 129.904480,9.384071 
	C130.363861,8.607569 130.883636,8.270864 132.180435,7.938973 
	C140.960617,8.009254 148.963745,8.074722 156.966888,8.140190 
	C156.966888,8.140190 157.031357,8.551296 157.073425,8.755054 
	C149.054474,8.958814 140.993469,8.958814 132.351089,8.958814 
	C132.220627,11.225249 132.111771,13.116570 131.766449,15.564863 
	C131.081741,16.394308 130.633469,16.666782 130.109955,16.698471 
	C129.978653,16.299122 129.922592,16.140554 129.866547,15.981986 
z"/>
<path fill="#F0952B" opacity="1.000000" stroke="none" 
	d="
M164.821472,14.091524 
	C164.793076,14.463783 164.764664,14.836041 164.485077,15.496836 
	C164.233887,15.785374 163.801727,15.945563 163.413513,15.937389 
	C157.978104,16.337542 161.204590,11.471709 159.205475,9.937013 
	C159.205475,9.937013 159.063736,9.925961 159.067810,9.749178 
	C159.071884,9.572394 159.059341,9.148247 159.059341,9.148247 
	C160.417572,8.797290 161.775803,8.446334 163.545242,8.489166 
	C164.244797,10.619144 164.533142,12.355334 164.821472,14.091524 
z"/>
<path fill="#FBFCFB" opacity="1.000000" stroke="none" 
	d="
M246.597839,7.983718 
	C247.007034,8.692084 246.996231,9.399188 246.535126,10.508254 
	C243.397995,10.880603 240.711197,10.850989 238.016296,10.439516 
	C238.005707,9.039057 238.003204,8.020458 238.000702,7.001860 
	C240.726410,7.328726 243.452133,7.655591 246.597839,7.983718 
z"/>
<path fill="#CFE8F5" opacity="1.000000" stroke="none" 
	d="
M156.708893,7.805326 
	C148.963745,8.074722 140.960617,8.009254 132.497681,7.867270 
	C140.175568,7.683989 148.313232,7.577225 156.708893,7.805326 
z"/>
<path fill="#F4F6F8" opacity="1.000000" stroke="none" 
	d="
M237.667145,7.000231 
	C238.003204,8.020458 238.005707,9.039057 237.675812,10.488912 
	C236.887482,10.887992 236.431564,10.855817 235.975632,10.823642 
	C235.983994,9.804733 235.992355,8.785826 236.000000,7.384395 
	C236.444061,7.000783 236.888809,6.999693 237.667145,7.000231 
z"/>
<path fill="#B3B3B4" opacity="1.000000" stroke="none" 
	d="
M164.948608,13.678246 
	C164.533142,12.355334 164.244797,10.619144 163.923920,8.490027 
	C164.138779,8.072780 164.386154,8.048459 165.005890,8.071895 
	C165.277420,9.834757 165.176575,11.549863 164.948608,13.678246 
z"/>
<path fill="#6B89B2" opacity="1.000000" stroke="none" 
	d="
M158.802582,9.107146 
	C159.059341,9.148247 159.071884,9.572394 159.000336,9.771585 
	C158.645752,9.901545 158.414337,9.752301 158.134033,9.339252 
	C158.204300,9.125653 158.375076,9.095850 158.802582,9.107146 
z"/>
<path fill="#F8FCFE" opacity="1.000000" stroke="none" 
	d="
M771.959839,31.636801 
	C761.647461,31.996981 751.292725,31.997746 740.402588,31.632113 
	C737.458313,30.492140 735.088928,29.546404 732.631836,28.982697 
	C728.223328,27.971266 726.816650,25.073004 726.998962,20.918324 
	C727.186462,16.646891 730.383606,17.333330 733.127136,16.960094 
	C737.061096,16.424891 740.957581,15.613863 745.953979,14.728536 
	C743.870422,12.763433 742.935242,11.881367 742.000000,10.999299 
	C746.040955,10.668732 750.082092,10.076982 754.122742,10.080498 
	C758.225830,10.084066 762.356445,10.488003 766.417480,11.099235 
	C768.077759,11.349133 769.586792,12.604199 772.099304,13.874564 
	C766.475952,17.138050 762.101685,19.676632 756.872681,22.711256 
	C762.775452,26.072165 767.346497,28.674774 771.959839,31.636801 
z"/>
<path fill="#EEF7FC" opacity="1.000000" stroke="none" 
	d="
M715.002441,31.998072 
	C702.973328,31.331999 690.944275,30.665934 678.039673,29.999741 
	C667.170654,29.436127 665.588257,27.384594 667.834167,17.952000 
	C667.983643,17.324141 667.949036,16.652454 668.399963,16.000957 
	C669.866638,16.000414 670.933289,16.000055 672.468628,16.000158 
	C682.370117,15.665195 691.801636,15.279012 701.236694,15.025546 
	C704.034241,14.950394 705.154053,13.658491 705.000000,10.999481 
	C710.688049,10.999286 716.376038,10.999090 722.525391,11.388845 
	C722.255005,16.139826 718.611938,15.525342 715.672913,15.976505 
	C710.645691,16.748217 705.554016,17.183084 700.595276,18.250860 
	C699.561890,18.473379 698.227844,20.894110 698.334106,22.195543 
	C698.804504,27.958803 703.857422,27.753485 707.835144,29.007027 
	C710.294250,29.781954 712.617981,30.986435 715.002441,31.998072 
z"/>
<path fill="#F3F9FD" opacity="1.000000" stroke="none" 
	d="
M715.470825,31.998390 
	C712.617981,30.986435 710.294250,29.781954 707.835144,29.007027 
	C703.857422,27.753485 698.804504,27.958803 698.334106,22.195543 
	C698.227844,20.894110 699.561890,18.473379 700.595276,18.250860 
	C705.554016,17.183084 710.645691,16.748217 715.672913,15.976505 
	C718.611938,15.525342 722.255005,16.139826 722.993408,11.389093 
	C729.064148,10.998969 735.128357,10.998549 741.596252,10.998714 
	C742.935242,11.881367 743.870422,12.763433 745.953979,14.728536 
	C740.957581,15.613863 737.061096,16.424891 733.127136,16.960094 
	C730.383606,17.333330 727.186462,16.646891 726.998962,20.918324 
	C726.816650,25.073004 728.223328,27.971266 732.631836,28.982697 
	C735.088928,29.546404 737.458313,30.492140 739.934021,31.631519 
	C731.980286,31.997784 723.959717,31.998243 715.470825,31.998390 
z"/>
<path fill="#E8F4FB" opacity="1.000000" stroke="none" 
	d="
M704.535339,10.998531 
	C705.154053,13.658491 704.034241,14.950394 701.236694,15.025546 
	C691.801636,15.279012 682.370117,15.665195 672.468628,15.583449 
	C672.000000,13.777086 672.000000,12.387895 672.000000,10.998705 
	C678.021790,10.996345 684.043579,10.993984 690.533936,10.984913 
	C695.358521,10.984660 699.714600,10.991121 704.535339,10.998531 
z"/>
<path fill="#C7E5F5" opacity="1.000000" stroke="none" 
	d="
M564.953491,10.211101 
	C566.029602,10.154902 567.105652,10.098704 568.586060,10.037865 
	C576.689453,10.041221 584.388550,10.049218 592.525635,10.297593 
	C592.963562,10.537971 592.990234,11.019642 592.993164,11.433935 
	C592.994934,13.229257 592.993835,14.610285 592.525574,15.992755 
	C586.373108,15.997911 580.687805,16.001627 574.536072,16.002789 
	C569.377380,15.996031 564.684998,15.991825 560.057007,15.640092 
	C561.732117,13.598743 563.342773,11.904922 564.953491,10.211101 
z"/>
<path fill="#E1F2F9" opacity="1.000000" stroke="none" 
	d="
M671.531372,10.997325 
	C672.000000,12.387895 672.000000,13.777086 672.000000,15.582986 
	C670.933289,16.000055 669.866638,16.000414 667.987793,15.991341 
	C665.226013,15.661875 663.268188,15.027775 661.328125,15.078027 
	C654.215576,15.262262 647.108887,15.674041 640.053223,15.655169 
	C640.736877,13.875567 641.367249,12.440950 642.252014,11.000477 
	C642.675964,10.988431 642.845520,10.982243 643.015076,10.976053 
	C652.364258,10.982684 661.713501,10.989315 671.531372,10.997325 
z"/>
<path fill="#D2EBF6" opacity="1.000000" stroke="none" 
	d="
M592.992676,15.991314 
	C592.993835,14.610285 592.994934,13.229257 593.460327,11.423971 
	C598.621521,10.983552 603.318542,10.967390 608.015503,10.951228 
	C611.704102,10.964054 615.392700,10.976880 619.535217,11.350665 
	C619.325256,13.140306 618.661377,14.568988 617.529541,15.997910 
	C611.041870,16.000484 605.022156,16.002821 598.573486,16.003498 
	C596.427246,15.998329 594.709961,15.994822 592.992676,15.991314 
z"/>
<path fill="#DBEFF8" opacity="1.000000" stroke="none" 
	d="
M617.997559,15.997675 
	C618.661377,14.568988 619.325256,13.140306 619.995789,11.353951 
	C621.711243,10.988927 623.419983,10.981578 625.959229,10.981148 
	C627.864929,10.981091 628.940247,10.974115 630.015564,10.967139 
	C633.038025,10.973064 636.060425,10.978990 639.870728,10.990324 
	C641.104919,10.999264 641.551208,11.002793 641.997559,11.006329 
	C641.367249,12.440950 640.736877,13.875567 639.615845,15.655286 
	C637.084290,16.001028 635.043396,16.001669 632.536011,16.001274 
	C627.378967,15.999387 622.688232,15.998532 617.997559,15.997675 
z"/>
<path fill="#EFF7FA" opacity="1.000000" stroke="none" 
	d="
M607.917236,10.562140 
	C603.318542,10.967390 598.621521,10.983552 593.457397,11.009678 
	C592.990234,11.019642 592.963562,10.537971 592.949219,10.297877 
	C597.896240,10.096208 602.857544,10.134630 607.917236,10.562140 
z"/>
<path fill="#EFF7FA" opacity="1.000000" stroke="none" 
	d="
M629.948364,10.624881 
	C628.940247,10.974115 627.864929,10.981091 626.386292,10.975469 
	C626.849304,8.254433 628.204712,8.348937 629.948364,10.624881 
z"/>
<path fill="#EFF7FA" opacity="1.000000" stroke="none" 
	d="
M642.252014,11.000471 
	C641.551208,11.002793 641.104919,10.999264 640.323730,10.987050 
	C640.960571,10.757084 641.932251,10.535802 642.959534,10.645287 
	C642.845520,10.982243 642.675964,10.988431 642.252014,11.000471 
z"/>
<path fill="#ACE1FA" opacity="1.000000" stroke="none" 
	d="
M99.526657,15.964802 
	C100.427902,15.966588 100.861168,15.982182 101.619057,16.001383 
	C101.943672,16.004990 102.023071,15.968958 102.024055,16.428694 
	C101.996330,21.253122 101.967621,25.617817 101.938919,29.982510 
	C99.143250,29.992777 96.347580,30.011820 93.551910,30.011957 
	C65.126457,30.013361 36.699966,29.888462 8.276532,30.127590 
	C3.321254,30.169279 1.156067,29.054728 1.950834,23.853861 
	C2.298539,21.578516 2.025351,19.208292 2.076568,16.409233 
	C34.432243,15.951079 66.745468,15.964845 99.526657,15.964802 
z"/>
<path fill="#B0DAEE" opacity="1.000000" stroke="none" 
	d="
M487.002655,10.981098 
	C489.032593,10.939207 491.062500,10.897315 493.985077,10.878721 
	C498.944550,10.611307 503.011414,10.320596 507.078247,10.029884 
	C509.086945,10.072119 511.095612,10.114351 513.542297,10.567324 
	C513.650269,12.645755 513.320251,14.313446 512.530762,15.985895 
	C508.381409,15.995790 504.691528,16.000927 500.535400,16.001812 
	C495.376770,15.988818 490.684448,15.980074 486.033813,15.607478 
	C486.384583,13.822784 486.693604,12.401941 487.002655,10.981098 
z"/>
<path fill="#B9DFF1" opacity="1.000000" stroke="none" 
	d="
M512.990234,15.981137 
	C513.320251,14.313446 513.650269,12.645755 513.968872,10.621733 
	C514.715942,10.192402 515.474365,10.119401 516.990234,10.077822 
	C519.485291,10.337190 521.222961,10.565136 523.397644,10.845232 
	C525.883606,10.873417 527.932617,10.849453 530.426392,10.861127 
	C533.259644,10.860644 535.648010,10.824524 538.031982,10.842352 
	C538.027588,10.896300 538.000000,11.000965 537.993896,11.357611 
	C537.323975,13.138818 536.660095,14.563381 535.568298,15.991755 
	C533.427368,15.998811 531.714478,16.002058 529.533813,16.002247 
	C523.707520,15.993170 518.348877,15.987153 512.990234,15.981137 
z"/>
<path fill="#F9F9F9" opacity="1.000000" stroke="none" 
	d="
M550.555786,7.990793 
	C552.789246,8.333941 554.583313,8.680037 556.632935,9.436383 
	C555.379700,10.221545 553.879578,10.872893 552.360718,10.920163 
	C547.577637,11.069022 542.787415,10.991103 538.000000,11.000965 
	C538.000000,11.000965 538.027588,10.896300 538.042603,10.573795 
	C538.370117,9.834298 538.682617,9.417307 538.995117,9.000319 
	C542.702209,8.664794 546.409302,8.329268 550.555786,7.990793 
z"/>
<path fill="#FDFEFE" opacity="1.000000" stroke="none" 
	d="
M538.912231,8.609203 
	C538.682617,9.417307 538.370117,9.834298 538.046997,10.519846 
	C535.648010,10.824524 533.259644,10.860644 530.279419,10.565438 
	C529.456848,9.155500 529.226013,8.076889 528.995117,6.998281 
	C532.273193,7.404886 535.551208,7.811488 538.912231,8.609203 
z"/>
<path fill="#F4F6F8" opacity="1.000000" stroke="none" 
	d="
M506.729919,10.018693 
	C503.011414,10.320596 498.944550,10.611307 494.416077,10.826033 
	C493.964783,10.363014 493.975098,9.975982 493.989075,9.296524 
	C494.163696,9.002137 494.334717,9.000176 495.209991,8.995508 
	C498.607239,8.992002 501.300201,8.991202 503.993195,8.990402 
	C504.789307,9.329436 505.585449,9.668469 506.729919,10.018693 
z"/>
<path fill="#F4F6F8" opacity="1.000000" stroke="none" 
	d="
M528.616882,7.040885 
	C529.226013,8.076889 529.456848,9.155500 529.834595,10.529800 
	C527.932617,10.849453 525.883606,10.873417 523.407349,10.499672 
	C522.990845,9.400050 523.001526,8.698135 523.012207,7.996221 
	C524.754333,7.691978 526.496521,7.387735 528.616882,7.040885 
z"/>
<path fill="#FDFEFE" opacity="1.000000" stroke="none" 
	d="
M503.911560,8.604750 
	C501.300201,8.991202 498.607239,8.992002 495.466553,8.992700 
	C497.662537,5.393447 500.742340,6.761982 503.911560,8.604750 
z"/>
<path fill="#FDFEFE" opacity="1.000000" stroke="none" 
	d="
M522.633423,7.996356 
	C523.001526,8.698135 522.990845,9.400050 522.970337,10.447523 
	C521.222961,10.565136 519.485291,10.337190 517.370850,10.061459 
	C518.747681,9.341280 520.501160,8.668885 522.633423,7.996356 
z"/>
<path fill="#BEE2F3" opacity="1.000000" stroke="none" 
	d="
M537.993896,11.357610 
	C542.787415,10.991103 547.577637,11.069022 552.360718,10.920163 
	C553.879578,10.872893 555.379700,10.221545 557.028442,9.464441 
	C559.534058,9.323562 561.899475,9.564872 564.609253,10.008641 
	C563.342773,11.904922 561.732117,13.598743 559.607910,15.642981 
	C556.396240,15.996635 553.698120,15.999876 550.533875,16.000507 
	C545.377258,15.994578 540.686768,15.991261 535.996277,15.987944 
	C536.660095,14.563381 537.323975,13.138818 537.993896,11.357610 
z"/>
<path fill="#B0D89F" opacity="1.000000" stroke="none" 
	d="
M102.174744,30.091431 
	C101.967621,25.617817 101.996330,21.253122 102.067055,16.421463 
	C106.371620,15.935318 110.634178,15.916140 115.330421,15.803553 
	C115.764114,15.710144 115.871735,15.852489 115.932800,16.387424 
	C115.973389,21.564428 115.952911,26.206497 115.929314,30.886032 
	C115.926186,30.923496 115.984116,30.971426 115.521904,30.973036 
	C111.042366,30.992741 107.025040,31.010836 103.007713,31.028933 
	C102.808662,30.752741 102.609619,30.476547 102.174744,30.091431 
z"/>
<path fill="#E7ECF1" opacity="1.000000" stroke="none" 
	d="
M112.027084,34.969097 
	C100.662758,34.974899 89.298431,34.980705 77.621765,34.740044 
	C77.871056,34.000473 78.432686,33.507362 79.377304,33.009594 
	C81.166275,32.712952 82.572243,32.420967 83.978210,32.128983 
	C84.433762,32.113132 84.889313,32.097282 85.992424,32.371300 
	C91.421738,32.475441 96.203491,32.289715 100.985245,32.103989 
	C101.425293,32.066410 101.865334,32.028828 102.910110,32.268620 
	C106.352249,33.353695 109.189667,34.161396 112.027084,34.969097 
z"/>
<path fill="#D3EEFA" opacity="1.000000" stroke="none" 
	d="
M112.420853,34.974396 
	C109.189667,34.161396 106.352249,33.353695 103.240768,32.247711 
	C102.966705,31.949432 102.984711,31.488836 102.996216,31.258884 
	C107.025040,31.010836 111.042366,30.992741 115.527031,31.373428 
	C115.986176,32.835941 115.977982,33.899673 115.969788,34.963402 
	C114.918068,34.968830 113.866341,34.974262 112.420853,34.974396 
z"/>
<path fill="#D3EEFA" opacity="1.000000" stroke="none" 
	d="
M25.520584,32.081039 
	C20.868322,32.304996 15.753075,32.483562 10.329028,32.395603 
	C15.032685,32.097935 20.045141,32.066792 25.520584,32.081039 
z"/>
<path fill="#ECF2FB" opacity="1.000000" stroke="none" 
	d="
M78.994308,33.014252 
	C78.432686,33.507362 77.871056,34.000473 77.152985,34.730785 
	C75.340546,34.513680 73.684547,34.059368 71.901321,33.226536 
	C73.265511,32.596523 74.756943,32.345032 76.809875,32.338257 
	C77.912346,32.726727 78.453331,32.870491 78.994308,33.014252 
z"/>
<path fill="#D3EEFA" opacity="1.000000" stroke="none" 
	d="
M100.522186,32.066917 
	C96.203491,32.289715 91.421738,32.475441 86.333748,32.393940 
	C90.704720,32.094421 95.381927,32.062134 100.522186,32.066917 
z"/>
<path fill="#ECF2FB" opacity="1.000000" stroke="none" 
	d="
M59.992863,34.965996 
	C58.606888,34.970524 57.220917,34.975056 55.262688,34.736931 
	C54.130859,34.000793 53.571285,33.507305 53.318375,32.979935 
	C53.825882,32.901680 54.026726,32.857307 54.227570,32.812939 
	C56.183853,32.785076 58.140141,32.757214 60.526051,32.794312 
	C60.955677,32.859272 60.992203,33.011417 60.888279,33.266331 
	C60.520527,34.002827 60.256695,34.484413 59.992863,34.965996 
z"/>
<path fill="#D3EEFA" opacity="1.000000" stroke="none" 
	d="
M79.377304,33.009594 
	C78.453331,32.870491 77.912346,32.726727 77.187744,32.368935 
	C79.039993,32.115978 81.075874,32.077049 83.544983,32.083549 
	C82.572243,32.420967 81.166275,32.712952 79.377304,33.009594 
z"/>
<path fill="#D3EEFA" opacity="1.000000" stroke="none" 
	d="
M53.920994,32.577377 
	C54.026726,32.857307 53.825882,32.901680 52.941338,32.975426 
	C51.504257,33.008034 50.750874,33.011276 49.997494,33.014519 
	C49.695480,32.924850 49.440926,32.761341 49.113209,32.330650 
	C50.533199,32.205490 52.073807,32.273655 53.920994,32.577377 
z"/>
<path fill="#D3EEFA" opacity="1.000000" stroke="none" 
	d="
M6.593137,32.088531 
	C5.815642,32.291550 4.644830,32.446796 3.257266,32.368954 
	C4.093616,32.104164 5.146718,32.072464 6.593137,32.088531 
z"/>
<path fill="#D3EEFA" opacity="1.000000" stroke="none" 
	d="
M60.945633,32.781685 
	C62.211823,32.602802 63.488060,32.501507 65.041428,32.622414 
	C65.318550,32.844612 65.158669,32.916348 64.751579,32.961735 
	C63.897568,33.009083 63.450649,33.011044 62.668541,33.009720 
	C61.886303,33.008095 61.439251,33.009754 60.992203,33.011417 
	C60.992203,33.011417 60.955677,32.859272 60.945633,32.781685 
z"/>
<path fill="#E7ECF1" opacity="1.000000" stroke="none" 
	d="
M49.998184,33.340511 
	C50.750874,33.011276 51.504257,33.008034 52.634674,33.009308 
	C53.571285,33.507305 54.130859,34.000793 54.846912,34.731522 
	C53.613068,34.974602 52.222748,34.980442 50.415276,34.978001 
	C49.998371,34.535316 49.998623,34.100910 49.998184,33.340511 
z"/>
<path fill="#98BED0" opacity="1.000000" stroke="none" 
	d="
M372.532959,33.851299 
	C369.747131,33.813503 366.961273,33.775703 363.586975,33.350426 
	C361.776245,32.634361 360.554016,32.018494 359.331757,32.018429 
	C300.554962,32.015343 241.778152,32.065445 182.670502,32.068489 
	C181.896698,31.994061 181.453751,31.960724 181.005768,31.610268 
	C181.000717,30.869148 181.000656,30.445145 181.334564,30.018597 
	C182.113770,30.011583 182.559021,30.007116 183.253128,30.003674 
	C183.501984,30.004696 183.999802,30.001749 184.465897,30.010773 
	C189.623032,30.009827 194.314072,29.999857 199.470367,30.007771 
	C204.629379,30.009247 209.323135,29.992838 214.345978,29.993696 
	C215.114395,30.008284 215.553711,30.005604 216.447540,30.022589 
	C219.934921,30.027258 222.967758,30.012262 226.335373,30.004980 
	C227.116486,30.004084 227.562820,29.995476 228.476578,30.004522 
	C235.957245,30.005522 242.970490,29.988867 250.453018,29.988029 
	C256.939209,29.987251 262.956146,29.970654 269.312897,29.971310 
	C270.105743,29.987032 270.558807,29.985500 271.290222,30.174671 
	C275.381927,30.241720 279.195251,30.118063 283.475983,30.013519 
	C291.297089,30.019787 298.650787,30.006943 306.377808,30.009956 
	C307.498352,30.017090 308.245514,30.008362 309.243561,30.013016 
	C309.661743,30.018232 309.829041,30.010071 310.370544,30.009880 
	C311.493225,30.012259 312.241730,30.006672 313.435730,30.008957 
	C316.258026,30.011555 318.634766,30.006275 321.479370,30.012115 
	C338.283264,30.061037 354.619324,30.098843 370.965454,30.449913 
	C371.485046,31.516226 371.994537,32.269272 372.543213,33.228405 
	C372.582367,33.434494 372.532959,33.851299 372.532959,33.851299 
z"/>
<path fill="#D3EEFA" opacity="1.000000" stroke="none" 
	d="
M183.001343,32.109577 
	C241.778152,32.065445 300.554962,32.015343 359.331757,32.018429 
	C360.554016,32.018494 361.776245,32.634361 363.169006,33.335999 
	C361.645172,34.134399 359.934082,34.983765 358.259247,34.917519 
	C345.704193,34.420918 333.161224,33.531540 320.603455,33.238102 
	C316.218170,33.135628 311.785736,34.977867 307.402771,34.863338 
	C296.005341,34.565521 284.627716,33.287548 273.233673,33.159679 
	C265.848755,33.076801 258.439575,34.966820 251.057434,34.859631 
	C230.691788,34.563923 210.334641,33.683010 189.075195,33.023811 
	C186.451462,33.007404 184.726639,33.000717 183.001419,32.772919 
	C183.001007,32.551804 183.001343,32.109577 183.001343,32.109577 
z"/>
<path fill="#E7ECF1" opacity="1.000000" stroke="none" 
	d="
M464.155273,34.952927 
	C440.998474,34.968464 417.841614,35.006115 394.684998,34.948730 
	C393.175201,34.944992 391.667267,34.212074 390.396240,33.412079 
	C391.418091,32.696800 392.202148,32.387783 393.324280,32.062672 
	C394.113342,32.056881 394.564331,32.067192 395.230713,32.322891 
	C396.625610,32.403866 397.805084,32.239456 399.323242,32.058815 
	C400.113800,32.051426 400.565674,32.060272 401.318359,32.350548 
	C407.080688,32.439415 412.542236,32.246841 417.995026,32.018253 
	C417.986267,31.982233 417.962891,31.911886 418.431702,31.948391 
	C423.604462,32.006371 428.308441,32.027843 433.221283,32.301979 
	C434.285553,32.702278 435.140930,32.849918 436.413452,32.998631 
	C438.876678,32.687176 440.922791,32.374649 443.424042,32.039581 
	C446.906006,31.993980 449.932861,31.970924 453.392578,31.970137 
	C455.559204,32.017776 457.292938,32.043148 459.244080,32.323338 
	C460.345093,32.700180 461.228729,32.822205 462.432556,32.983421 
	C463.220276,33.666050 463.687775,34.309490 464.155273,34.952927 
z"/>
<path fill="#B6D7E5" opacity="1.000000" stroke="none" 
	d="
M464.351685,34.948860 
	C463.687775,34.309490 463.220276,33.666050 462.201172,32.736557 
	C460.775269,32.323174 459.900970,32.195847 459.026672,32.068520 
	C457.292938,32.043148 455.559204,32.017776 453.242218,31.734692 
	C452.100372,30.992392 451.541779,30.507809 451.434937,30.014526 
	C454.592194,29.999973 457.297729,29.994116 460.471558,29.991627 
	C468.293457,29.993496 475.647064,29.991999 483.463806,29.993828 
	C487.949249,30.002213 491.971558,30.007269 496.101074,30.265635 
	C496.466034,31.001961 496.723785,31.484978 496.981567,31.967991 
	C494.469025,32.423260 491.956451,32.878525 489.186462,33.594170 
	C486.629181,33.873661 484.329315,33.892776 481.504120,33.581596 
	C479.625092,33.131519 478.271362,33.011730 476.917664,32.891945 
	C473.183533,33.543556 469.449402,34.195168 465.328156,34.893608 
	C464.941040,34.940441 464.548126,34.944798 464.351685,34.948860 
z"/>
<path fill="#A0C9DD" opacity="1.000000" stroke="none" 
	d="
M401.017578,32.069115 
	C400.565674,32.060272 400.113800,32.051426 398.927246,32.028061 
	C397.133514,32.034863 396.074432,32.056179 395.015350,32.077499 
	C394.564331,32.067192 394.113342,32.056881 392.951477,32.031479 
	C391.069550,32.311775 389.898468,32.607170 388.727417,32.902561 
	C385.154877,32.891003 381.582336,32.879444 377.297180,32.865734 
	C376.409424,32.863846 376.234314,32.864113 375.706421,32.845886 
	C374.882843,32.841461 374.412109,32.855522 373.579895,32.887665 
	C372.980316,32.944611 372.742157,32.983471 372.504028,33.022324 
	C371.994537,32.269272 371.485046,31.516226 371.220154,30.396809 
	C371.636810,30.012632 371.808868,29.994829 372.451660,29.987545 
	C384.615326,29.999329 396.308289,30.000593 408.455048,30.005814 
	C411.933899,30.023935 414.958954,30.038099 417.986328,30.362770 
	C417.980072,31.086147 417.971497,31.499018 417.962891,31.911886 
	C417.962891,31.911886 417.986267,31.982233 417.528015,31.990387 
	C411.719025,32.022064 406.368317,32.045589 401.017578,32.069115 
z"/>
<path fill="#E7ECF1" opacity="1.000000" stroke="none" 
	d="
M116.438835,34.975395 
	C115.977982,33.899673 115.986176,32.835941 115.989243,31.371819 
	C115.984116,30.971426 115.926186,30.923496 116.237396,31.059179 
	C118.042732,31.116661 119.536858,31.038460 121.380363,31.129177 
	C124.452248,31.194399 127.174759,31.090698 130.046570,31.190174 
	C130.460281,31.596212 130.724701,31.799078 130.994400,32.262840 
	C131.007690,32.697517 131.015717,32.871300 131.023727,33.045078 
	C129.750015,33.695419 128.511795,34.804874 127.195671,34.906628 
	C123.784714,35.170345 120.339455,34.990292 116.438835,34.975395 
z"/>
<path fill="#98BED0" opacity="1.000000" stroke="none" 
	d="
M178.579407,32.868580 
	C177.687073,32.834396 176.794724,32.800213 175.316254,32.559189 
	C173.739944,32.490822 172.749756,32.629299 171.759583,32.767776 
	C170.183945,32.772625 168.608292,32.777473 166.407547,32.580826 
	C165.196228,32.228714 164.610001,32.078098 163.911530,31.662926 
	C163.521149,30.898914 163.243042,30.399462 163.055939,29.688293 
	C163.332642,29.206833 163.587158,29.045807 164.330780,29.040277 
	C168.827881,29.381622 172.904648,29.676189 177.127319,30.212292 
	C177.827744,30.933899 178.382248,31.413975 178.855713,32.140720 
	C178.709579,32.547783 178.644485,32.708179 178.579407,32.868580 
z"/>
<path fill="#D6ECF7" opacity="1.000000" stroke="none" 
	d="
M162.964935,29.900005 
	C163.243042,30.399462 163.521149,30.898914 163.903793,31.940125 
	C164.004059,32.666302 163.999817,32.850716 163.995560,33.035126 
	C153.315552,33.033279 142.635544,33.031433 131.489624,33.037331 
	C131.015717,32.871300 131.007690,32.697517 131.226013,32.176289 
	C131.452347,31.828842 131.934479,31.719791 132.278625,31.813147 
	C133.091721,31.860445 133.560638,31.814390 134.495026,31.796864 
	C142.259247,31.784233 149.557999,31.743076 157.174835,31.777271 
	C158.313828,31.262260 159.134766,30.671898 160.330475,30.033398 
	C161.458466,29.956841 162.211700,29.928423 162.964935,29.900005 
z"/>
<path fill="#E7ECF1" opacity="1.000000" stroke="none" 
	d="
M183.001831,32.994026 
	C184.726639,33.000717 186.451462,33.007404 188.609222,33.028717 
	C186.399399,36.708744 183.408279,35.014839 180.580566,33.303406 
	C181.484390,33.000740 182.243103,32.997383 183.001831,32.994026 
z"/>
<path fill="#D6ECF7" opacity="1.000000" stroke="none" 
	d="
M171.981339,33.056419 
	C172.749756,32.629299 173.739944,32.490822 174.981415,32.556885 
	C174.222855,32.955967 173.212967,33.150513 171.981339,33.056419 
z"/>
<path fill="#E7ECF1" opacity="1.000000" stroke="none" 
	d="
M60.888279,33.266331 
	C61.439251,33.009754 61.886303,33.008095 62.667961,33.263599 
	C63.003422,33.690121 63.004269,33.859474 63.005119,34.028824 
	C62.225937,34.347717 61.446754,34.666611 60.330219,34.975750 
	C60.256695,34.484413 60.520527,34.002827 60.888279,33.266331 
z"/>
<path fill="#D6ECF7" opacity="1.000000" stroke="none" 
	d="
M389.034058,32.941879 
	C389.898468,32.607170 391.069550,32.311775 392.613403,32.047577 
	C392.202148,32.387783 391.418091,32.696800 390.295654,33.017101 
	C389.751740,33.012657 389.546234,32.996925 389.034058,32.941879 
z"/>
<path fill="#D6ECF7" opacity="1.000000" stroke="none" 
	d="
M183.001419,32.772915 
	C182.243103,32.997383 181.484390,33.000740 180.345383,33.010700 
	C179.734711,32.998062 179.504303,32.978817 178.926666,32.914074 
	C178.644485,32.708179 178.709579,32.547783 179.201080,32.178669 
	C180.088593,31.955759 180.549683,31.941574 181.010788,31.927387 
	C181.453751,31.960724 181.896698,31.994061 182.670502,32.068489 
	C183.001343,32.109577 183.001007,32.551804 183.001419,32.772915 
z"/>
<path fill="#E7E8ED" opacity="1.000000" stroke="none" 
	d="
M164.168701,33.270279 
	C163.999817,32.850716 164.004059,32.666302 164.016052,32.204685 
	C164.610001,32.078098 165.196228,32.228714 166.013580,32.582676 
	C165.610428,33.025829 164.976135,33.265633 164.168701,33.270279 
z"/>
<path fill="#E6EFF5" opacity="1.000000" stroke="none" 
	d="
M373.941376,32.869583 
	C374.412109,32.855522 374.882843,32.841461 375.689514,33.129452 
	C376.024994,33.619850 376.024506,33.808197 376.024017,33.996548 
	C375.568542,34.001743 375.113068,34.006935 374.315826,33.724083 
	C373.963196,33.247219 373.952301,33.058403 373.941376,32.869583 
z"/>
<path fill="#ECF2FB" opacity="1.000000" stroke="none" 
	d="
M63.304306,34.003895 
	C63.004269,33.859474 63.003422,33.690121 63.003151,33.266884 
	C63.450649,33.011044 63.897568,33.009083 64.679901,33.012131 
	C64.544708,33.337746 64.074104,33.658356 63.304306,34.003895 
z"/>
<path fill="#D6ECF7" opacity="1.000000" stroke="none" 
	d="
M373.579895,32.887665 
	C373.952301,33.058403 373.963196,33.247219 373.974213,33.719757 
	C373.734680,33.983829 373.494965,33.964176 372.894104,33.897911 
	C372.532959,33.851299 372.582367,33.434494 372.543213,33.228409 
	C372.742157,32.983471 372.980316,32.944611 373.579895,32.887665 
z"/>
<path fill="#D6ECF7" opacity="1.000000" stroke="none" 
	d="
M376.257812,33.874321 
	C376.024506,33.808197 376.024994,33.619850 376.042358,33.147942 
	C376.234314,32.864113 376.409424,32.863846 376.848083,32.882561 
	C376.904968,33.185055 376.698273,33.468575 376.257812,33.874321 
z"/>
<path fill="#E8F4FB" opacity="1.000000" stroke="none" 
	d="
M633.002441,16.002310 
	C635.043396,16.001669 637.084290,16.001028 639.562622,16.000271 
	C647.108887,15.674041 654.215576,15.262262 661.328125,15.078027 
	C663.268188,15.027775 665.226013,15.661875 667.587830,15.991527 
	C667.949036,16.652454 667.983643,17.324141 667.834167,17.952000 
	C665.588257,27.384594 667.170654,29.436127 677.582031,29.999767 
	C677.750244,30.803312 677.500549,31.606703 677.125366,32.704971 
	C665.977356,32.000294 654.954712,31.000740 643.006104,30.002388 
	C638.720032,30.002544 635.360046,30.001501 631.991577,29.592949 
	C632.322876,24.791063 632.662659,20.396687 633.002441,16.002310 
z"/>
<path fill="#DCEAF1" opacity="1.000000" stroke="none" 
	d="
M632.000000,30.000458 
	C635.360046,30.001501 638.720032,30.002544 642.537598,30.003532 
	C641.550903,30.667717 640.114258,31.888239 638.661194,31.908148 
	C627.086365,32.066750 615.508423,31.997643 603.357056,31.737381 
	C602.520996,30.985270 602.259277,30.494146 602.466492,30.001379 
	C612.623596,29.999977 622.311829,30.000217 632.000000,30.000458 
z"/>
<path fill="#BEDAEC" opacity="1.000000" stroke="none" 
	d="
M497.451965,31.984192 
	C496.723785,31.484978 496.466034,31.001961 496.567871,30.260746 
	C501.618622,29.999298 506.309814,29.996050 511.467773,29.994823 
	C516.956360,29.996548 521.978210,29.996252 527.449829,29.998322 
	C530.597412,30.003321 533.295105,30.005953 535.994995,30.337969 
	C535.994873,31.106329 535.992554,31.545303 535.990234,31.984280 
	C523.300964,31.989649 510.611633,31.995020 497.451965,31.984192 
z"/>
<path fill="#D2E5F2" opacity="1.000000" stroke="none" 
	d="
M601.997559,30.003017 
	C602.259277,30.494146 602.520996,30.985270 602.887939,31.734348 
	C591.973145,31.994995 580.953064,31.997686 569.464478,31.664692 
	C568.994812,30.887928 568.993713,30.446844 569.245178,30.002716 
	C569.665955,29.997791 569.834167,29.995911 570.470947,29.995228 
	C580.959656,29.997463 590.979797,29.998503 601.249390,30.000444 
	C601.498779,30.001347 601.997559,30.003016 601.997559,30.003017 
z"/>
<path fill="#C7E5F5" opacity="1.000000" stroke="none" 
	d="
M568.992676,30.005762 
	C568.993713,30.446844 568.994812,30.887928 568.995483,31.659628 
	C558.306641,31.994965 547.618103,31.999681 536.459961,31.994339 
	C535.992554,31.545303 535.994873,31.106329 536.458984,30.334297 
	C540.947998,29.998711 544.975220,29.996181 549.470703,29.995298 
	C556.290222,29.999884 562.641418,30.002823 568.992676,30.005762 
z"/>
<path fill="#E7ECF1" opacity="1.000000" stroke="none" 
	d="
M477.159393,33.187519 
	C478.271362,33.011730 479.625092,33.131519 481.072571,33.585178 
	C479.911285,33.773731 478.656189,33.628414 477.159393,33.187519 
z"/>
<path fill="#B0DAEE" opacity="1.000000" stroke="none" 
	d="
M363.012207,10.019730 
	C365.046600,10.028507 367.080963,10.037287 369.727814,10.274921 
	C370.909210,10.545609 371.478149,10.587440 372.047089,10.629271 
	C372.047089,10.629270 372.077606,10.791454 372.043152,11.131113 
	C372.009674,11.645462 372.010651,11.820151 372.006500,12.392867 
	C372.008362,13.852348 372.015411,14.913802 371.551392,15.983275 
	C354.398682,16.001532 337.717041,16.011768 321.017761,16.010666 
	C321.000153,15.999327 320.965424,15.976665 320.980103,15.565564 
	C320.998566,13.784107 321.002350,12.413753 320.996277,10.972296 
	C320.986450,10.901195 320.997101,10.758037 321.426697,10.824183 
	C324.293365,10.291508 326.730438,9.692686 329.167480,9.093865 
	C337.805267,9.411016 346.443024,9.728166 355.796661,10.305504 
	C358.679077,10.383704 360.845642,10.201717 363.012207,10.019730 
z"/>
<path fill="#BBE0F0" opacity="1.000000" stroke="none" 
	d="
M312.990234,30.001083 
	C312.241730,30.006672 311.493225,30.012259 310.370972,29.758478 
	C309.995270,29.331537 309.993317,29.163965 309.994263,28.531235 
	C309.997711,25.426416 309.826233,22.772589 310.042175,20.150665 
	C310.313965,16.850292 308.949341,15.866434 305.762054,15.941427 
	C298.177277,16.119886 290.585358,15.997555 282.997345,15.596865 
	C282.995148,14.130655 282.991974,13.064323 282.997040,11.738832 
	C283.012909,11.306977 283.020477,11.134282 283.028076,10.961586 
	C283.197693,10.942477 283.367340,10.923368 283.785706,10.839959 
	C292.358917,10.816497 300.683411,10.857334 309.744019,10.935594 
	C310.664154,10.997297 310.848175,11.021578 311.018036,11.411851 
	C311.664398,13.192554 312.324921,14.607264 312.990417,16.485226 
	C312.993713,21.299345 312.991974,25.650215 312.990234,30.001083 
z"/>
<path fill="#9BD2EA" opacity="1.000000" stroke="none" 
	d="
M404.008911,10.970218 
	C406.039001,10.944365 408.069122,10.918511 410.720123,11.181372 
	C412.237305,11.298757 413.133606,11.127429 414.029877,10.956099 
	C422.041718,10.943130 430.053528,10.930161 438.532410,11.359642 
	C438.995636,13.184490 438.991760,14.566893 438.545197,15.962595 
	C435.735016,15.983735 433.367493,15.991574 430.531372,15.994869 
	C421.708984,15.997004 413.355194,16.003683 404.745667,15.998196 
	C404.319702,15.973047 404.149475,15.960064 403.984375,15.532930 
	C403.995941,13.735927 404.002411,12.353072 404.008911,10.970218 
z"/>
<path fill="#90CEE5" opacity="1.000000" stroke="none" 
	d="
M403.636078,10.940111 
	C404.002411,12.353072 403.995941,13.735927 403.518097,15.545637 
	C392.702698,15.976269 382.358673,15.980044 372.009064,15.989544 
	C372.003510,15.995267 372.022461,15.975256 372.022461,15.975256 
	C372.015411,14.913802 372.008362,13.852348 372.231201,12.277295 
	C372.647522,11.487387 372.834015,11.211077 373.020477,10.934767 
	C374.112152,10.863217 375.203827,10.791669 376.677094,10.734758 
	C377.058685,10.749394 377.003754,10.970868 377.264587,11.262374 
	C380.021545,11.361432 382.517670,11.168985 385.393372,10.950136 
	C386.519226,10.804446 387.265472,10.685160 388.011749,10.565875 
	C389.714142,10.674051 391.416565,10.782227 393.801819,11.210367 
	C396.663727,11.339822 398.842804,11.149311 401.021851,10.958800 
	C401.768982,10.942533 402.516113,10.926269 403.636078,10.940111 
z"/>
<path fill="#AAD7EC" opacity="1.000000" stroke="none" 
	d="
M486.534058,10.961323 
	C486.693604,12.401941 486.384583,13.822784 485.660034,15.615376 
	C484.496368,15.992526 483.748230,15.997927 482.531525,15.999271 
	C475.038208,15.984934 468.013458,15.974652 461.031677,15.600628 
	C461.384521,13.815148 461.694427,12.393410 462.004333,10.971670 
	C470.024719,10.961628 478.045074,10.951588 486.534058,10.961323 
z"/>
<path fill="#A2D4EA" opacity="1.000000" stroke="none" 
	d="
M461.535645,10.950123 
	C461.694427,12.393410 461.384521,13.815148 460.700287,15.610179 
	C459.883728,15.988285 459.441528,15.993099 458.530945,15.993991 
	C451.704376,15.976477 445.346130,15.962885 438.987915,15.949294 
	C438.991760,14.566893 438.995636,13.184490 439.000610,11.386223 
	C446.356842,10.956430 453.711914,10.942502 461.535645,10.950123 
z"/>
<path fill="#F4F6F8" opacity="1.000000" stroke="none" 
	d="
M387.878479,10.224922 
	C387.265472,10.685160 386.519226,10.804446 384.948425,10.920481 
	C381.750488,10.935109 379.377136,10.952989 377.003754,10.970868 
	C377.003754,10.970868 377.058685,10.749394 377.073944,10.632641 
	C380.641205,10.305248 384.193207,10.094609 387.878479,10.224922 
z"/>
<path fill="#EAEEF0" opacity="1.000000" stroke="none" 
	d="
M311.032196,11.045857 
	C310.848175,11.021578 310.664154,10.997297 310.207825,10.911339 
	C312.990021,7.058011 316.917542,9.567113 320.750977,9.873263 
	C321.029114,10.356812 320.997101,10.758037 320.997101,10.758037 
	C320.997101,10.758037 320.986450,10.901195 320.542419,10.946886 
	C317.076324,11.010338 314.054260,11.028097 311.032196,11.045857 
z"/>
<path fill="#F4F6F8" opacity="1.000000" stroke="none" 
	d="
M321.426697,10.824183 
	C320.997101,10.758037 321.029114,10.356812 321.052063,10.156181 
	C323.484406,9.644777 325.893738,9.334003 328.735291,9.058546 
	C326.730438,9.692686 324.293365,10.291508 321.426697,10.824183 
z"/>
<path fill="#F4F6F8" opacity="1.000000" stroke="none" 
	d="
M362.757843,9.733071 
	C360.845642,10.201717 358.679077,10.383704 356.250183,10.293175 
	C358.159729,9.829242 360.331604,9.637827 362.757843,9.733071 
z"/>
<path fill="#A0C9DD" opacity="1.000000" stroke="none" 
	d="
M400.582275,10.922589 
	C398.842804,11.149311 396.663727,11.339822 394.229980,11.239941 
	C396.031067,10.928493 398.086884,10.907434 400.582275,10.922589 
z"/>
<path fill="#F4F6F8" opacity="1.000000" stroke="none" 
	d="
M371.983582,10.373720 
	C371.478149,10.587440 370.909210,10.545609 370.163574,10.261486 
	C370.631287,10.052187 371.275665,10.085178 371.983582,10.373720 
z"/>
<path fill="#A0C9DD" opacity="1.000000" stroke="none" 
	d="
M413.647583,10.928587 
	C413.133606,11.127429 412.237305,11.298757 411.154236,11.211311 
	C411.733368,10.935384 412.499329,10.918229 413.647583,10.928587 
z"/>
<path fill="#A0C9DD" opacity="1.000000" stroke="none" 
	d="
M372.769958,10.913627 
	C372.834015,11.211077 372.647522,11.487387 372.236359,11.879268 
	C372.010651,11.820151 372.009674,11.645462 372.014099,11.208345 
	C372.186188,10.928108 372.352844,10.910297 372.769958,10.913627 
z"/>
<path fill="#91ABD8" opacity="1.000000" stroke="none" 
	d="
M159.955704,30.081535 
	C159.134766,30.671898 158.313828,31.262260 157.092346,31.410072 
	C155.320038,30.654684 153.951172,30.086998 152.576065,30.071449 
	C145.112076,29.987038 137.646545,30.038971 130.116623,29.581696 
	C130.096207,25.059376 130.140701,20.999315 130.185196,16.939255 
	C130.633469,16.666782 131.081741,16.394308 131.766541,16.003712 
	C140.640518,15.905478 149.277985,15.925367 158.454041,16.393286 
	C159.313675,21.254719 159.634689,25.668127 159.955704,30.081535 
z"/>
<path fill="#F7B770" opacity="1.000000" stroke="none" 
	d="
M160.330475,30.033398 
	C159.634689,25.668127 159.313675,21.254719 158.911652,16.374966 
	C158.904953,14.200752 158.979263,12.492887 159.129532,10.361017 
	C161.204590,11.471709 157.978104,16.337542 163.465363,16.401320 
	C163.907104,20.913450 163.908783,24.953474 163.910461,28.993500 
	C163.587158,29.045807 163.332642,29.206833 163.055939,29.688290 
	C162.211700,29.928423 161.458466,29.956841 160.330475,30.033398 
z"/>
<path fill="#BEDAEC" opacity="1.000000" stroke="none" 
	d="
M228.009171,29.986866 
	C227.562820,29.995476 227.116486,30.004084 226.335358,29.754547 
	C225.999298,29.329435 225.997986,29.162466 225.998505,28.530647 
	C226.000824,27.084188 226.001709,26.102577 226.001740,25.120968 
	C226.002121,15.972214 226.002075,15.972214 216.732925,15.900330 
	C215.981857,15.515407 215.490341,15.240423 214.998520,14.600806 
	C214.997986,13.506905 214.997772,12.777635 215.365204,11.874712 
	C218.503983,11.445076 221.275116,11.189095 224.409515,10.935534 
	C226.175293,10.640829 227.577805,10.343705 228.980316,10.046580 
	C231.037155,10.335856 233.093994,10.625133 235.563232,10.869026 
	C236.431564,10.855817 236.887482,10.887992 237.683899,10.870771 
	C240.711197,10.850989 243.397995,10.880603 246.530090,10.861565 
	C247.725113,10.858891 248.474869,10.904867 249.605850,11.379028 
	C249.991196,13.204868 249.995300,14.602524 249.530853,16.000471 
	C246.756729,15.999946 244.450043,15.952685 242.145813,16.008244 
	C237.723663,16.114870 231.477051,14.588690 229.365326,16.868635 
	C226.976624,19.447641 228.299973,25.464773 228.009171,29.986866 
z"/>
<path fill="#AAD7EC" opacity="1.000000" stroke="none" 
	d="
M183.004272,30.002651 
	C182.559021,30.007116 182.113770,30.011583 181.331268,29.761318 
	C180.991119,29.335239 180.988235,29.163895 180.987518,28.528555 
	C181.002060,23.733786 181.014450,19.403013 181.026855,15.072241 
	C181.338043,13.985721 181.649231,12.899200 182.220642,11.390919 
	C182.668121,10.918481 182.855408,10.867805 183.491180,10.853424 
	C187.295395,10.596359 190.651108,10.302999 194.006821,10.009638 
	C195.773956,10.232935 197.541077,10.456231 199.655304,11.240480 
	C199.997330,13.191278 199.992264,14.581121 199.520584,15.978598 
	C198.068680,15.989947 197.083374,15.995997 196.098068,15.997026 
	C182.988342,16.010721 182.988342,16.010544 183.002167,29.241100 
	C183.002075,29.664185 183.003174,29.833416 183.004272,30.002651 
z"/>
<path fill="#BBE0F0" opacity="1.000000" stroke="none" 
	d="
M199.987183,15.970965 
	C199.992264,14.581121 199.997330,13.191278 200.008820,11.383060 
	C204.364944,10.952182 208.714645,10.939679 213.628204,11.168440 
	C214.460556,11.622589 214.729050,11.835477 214.997559,12.048365 
	C214.997772,12.777635 214.997986,13.506905 214.779205,14.715709 
	C214.282455,15.395114 214.090652,15.657739 213.521881,15.987253 
	C208.706390,15.996649 204.353806,16.001911 199.998993,15.999251 
	C199.996780,15.991331 199.987183,15.970965 199.987183,15.970965 
z"/>
<path fill="#F4F6F8" opacity="1.000000" stroke="none" 
	d="
M193.744659,9.721613 
	C190.651108,10.302999 187.295395,10.596359 183.480682,10.544728 
	C183.010895,9.783234 183.000122,9.366731 182.989365,8.950227 
	C186.487076,9.111347 189.984772,9.272467 193.744659,9.721613 
z"/>
<path fill="#F4F6F8" opacity="1.000000" stroke="none" 
	d="
M228.924896,9.681608 
	C227.577805,10.343705 226.175293,10.640829 224.395874,10.692075 
	C224.018982,10.446197 224.002441,9.957355 224.002441,9.957355 
	C225.253891,6.926345 226.982346,7.518822 228.924896,9.681608 
z"/>
<path fill="#DCEAF1" opacity="1.000000" stroke="none" 
	d="
M223.565262,9.969627 
	C224.002441,9.957355 224.018982,10.446197 224.032623,10.689655 
	C221.275116,11.189095 218.503983,11.445076 215.365204,11.874711 
	C214.729050,11.835477 214.460556,11.622589 214.092316,11.168159 
	C214.094788,10.610736 214.283356,10.359738 215.110352,10.081653 
	C216.110962,9.984282 216.559555,9.978885 217.008133,9.973487 
	C219.048111,9.976292 221.088104,9.979096 223.565262,9.969627 
z"/>
<path fill="#F4F6F8" opacity="1.000000" stroke="none" 
	d="
M216.966858,9.678271 
	C216.559555,9.978885 216.110962,9.984282 215.325989,9.977195 
	C215.634933,9.770824 216.280258,9.576941 216.966858,9.678271 
z"/>
<path fill="#EAEEF0" opacity="1.000000" stroke="none" 
	d="
M182.643219,8.964697 
	C183.000122,9.366731 183.010895,9.783234 183.032166,10.508433 
	C182.855408,10.867805 182.668121,10.918481 182.195602,11.028787 
	C181.611374,10.604136 181.312378,10.119856 180.962662,9.338866 
	C181.373657,9.021160 181.835358,9.000164 182.643219,8.964697 
z"/>
<path fill="#92D1F2" opacity="1.000000" stroke="none" 
	d="
M180.607300,15.093287 
	C181.014450,19.403013 181.002060,23.733786 180.623581,28.531101 
	C179.165466,29.322016 178.073441,29.646387 176.981415,29.970758 
	C172.904648,29.676189 168.827881,29.381622 164.330780,29.040277 
	C163.908783,24.953474 163.907104,20.913450 163.853577,16.409494 
	C163.801727,15.945563 164.233887,15.785374 164.464905,15.776105 
	C169.859879,15.549335 175.023804,15.331833 180.607300,15.093287 
z"/>
<path fill="#A4CFE3" opacity="1.000000" stroke="none" 
	d="
M249.999390,16.000179 
	C249.995300,14.602524 249.991196,13.204868 249.981583,11.386659 
	C255.341782,10.954300 260.707489,10.942494 266.539734,11.334041 
	C267.674896,12.826289 268.343567,13.915188 269.008179,15.257612 
	C269.001923,15.680202 268.999725,15.849263 268.529480,16.012768 
	C262.040924,16.004957 256.020477,16.002701 250.000000,16.000223 
	C250.000000,16.000000 249.999390,16.000179 249.999390,16.000179 
z"/>
<path fill="#9BD2EA" opacity="1.000000" stroke="none" 
	d="
M269.012207,15.004084 
	C268.343567,13.915188 267.674896,12.826289 267.007385,11.358394 
	C271.689514,10.957409 276.370453,10.935422 281.623352,11.161111 
	C282.459747,11.605189 282.724274,11.801591 282.988770,11.997993 
	C282.991974,13.064323 282.995148,14.130655 282.999176,15.598171 
	C283.000000,15.999357 282.994507,15.994097 282.534454,15.995094 
	C278.383667,15.999846 274.692902,16.003601 270.837402,15.760790 
	C270.119171,15.344175 269.565674,15.174128 269.012207,15.004084 
z"/>
<path fill="#A4CFE3" opacity="1.000000" stroke="none" 
	d="
M282.997040,11.738832 
	C282.724274,11.801591 282.459747,11.605189 282.087891,11.181093 
	C282.155151,10.944262 282.329712,10.935123 282.766174,10.943785 
	C283.020477,11.134282 283.012909,11.306977 282.997040,11.738832 
z"/>
<path fill="#FDF9BD" opacity="1.000000" stroke="none" 
	d="
M130.109955,16.698471 
	C130.140701,20.999315 130.096207,25.059376 130.043396,29.816929 
	C130.035080,30.514420 129.897263,30.987000 129.897263,30.987000 
	C127.174759,31.090698 124.452248,31.194399 121.369080,30.667564 
	C121.002556,25.360928 120.996712,20.684824 120.990860,16.008722 
	C120.990860,16.008722 121.446915,15.969945 121.674377,15.952566 
	C124.265709,15.954002 126.629585,15.972816 129.429993,15.986809 
	C129.922592,16.140554 129.978653,16.299122 130.109955,16.698471 
z"/>
<path fill="#CDE6C6" opacity="1.000000" stroke="none" 
	d="
M120.574554,15.996966 
	C120.996712,20.684824 121.002556,25.360928 121.019699,30.498642 
	C119.536858,31.038460 118.042732,31.116661 116.240524,31.021713 
	C115.952911,26.206497 115.973389,21.564428 115.990860,16.455181 
	C117.377975,15.987074 118.768112,15.986142 120.574554,15.996966 
z"/>
<path fill="#DBEFF8" opacity="1.000000" stroke="none" 
	d="
M601.000000,29.999542 
	C590.979797,29.998503 580.959656,29.997463 570.469971,29.571493 
	C569.241211,23.842529 572.414490,20.035328 575.002441,16.005342 
	C580.687805,16.001627 586.373108,15.997911 592.525574,15.992755 
	C594.709961,15.994822 596.427246,15.998329 598.526367,16.392399 
	C596.367493,21.700958 600.083496,25.628721 601.000000,29.999542 
z"/>
<path fill="#D6ECF7" opacity="1.000000" stroke="none" 
	d="
M574.536072,16.002789 
	C572.414490,20.035328 569.241211,23.842529 570.001465,29.570297 
	C569.834167,29.995911 569.665955,29.997791 569.245178,30.002716 
	C562.641418,30.002823 556.290222,29.999884 549.470947,29.576771 
	C549.668640,24.772102 550.334290,20.387608 551.000000,16.003115 
	C553.698120,15.999876 556.396240,15.996635 559.543518,15.990507 
	C564.684998,15.991825 569.377380,15.996031 574.536072,16.002789 
z"/>
<path fill="#E1F2F9" opacity="1.000000" stroke="none" 
	d="
M601.249390,30.000444 
	C600.083496,25.628721 596.367493,21.700958 598.955322,16.394060 
	C605.022156,16.002821 611.041870,16.000484 617.529541,15.997913 
	C622.688232,15.998532 627.378967,15.999387 632.536011,16.001274 
	C632.662659,20.396687 632.322876,24.791063 631.991577,29.592949 
	C622.311829,30.000217 612.623596,29.999977 602.466492,30.001377 
	C601.997559,30.003016 601.498779,30.001347 601.249390,30.000444 
z"/>
<path fill="#CDE8F5" opacity="1.000000" stroke="none" 
	d="
M527.000000,29.995953 
	C521.978210,29.996252 516.956360,29.996548 511.394104,29.624565 
	C508.763489,28.506712 506.725494,27.392019 504.573029,27.088242 
	C499.195831,26.329369 497.760132,23.983002 499.868286,18.686583 
	C500.226929,17.785463 500.622925,16.899199 501.001648,16.006069 
	C504.691528,16.000927 508.381409,15.995790 512.530762,15.985894 
	C518.348877,15.987153 523.707520,15.993170 529.469543,16.361797 
	C527.650085,17.854465 525.427246,18.984524 522.236755,20.606489 
	C524.828064,21.975126 526.797607,23.015396 528.656494,23.997200 
	C528.086182,26.062582 527.543091,28.029266 527.000000,29.995953 
z"/>
<path fill="#C7E5F5" opacity="1.000000" stroke="none" 
	d="
M500.535400,16.001818 
	C500.622925,16.899199 500.226929,17.785463 499.868286,18.686583 
	C497.760132,23.983002 499.195831,26.329369 504.573029,27.088242 
	C506.725494,27.392019 508.763489,28.506712 510.927307,29.622543 
	C506.309814,29.996050 501.618622,29.999298 496.460693,30.007435 
	C491.971558,30.007269 487.949249,30.002213 483.404297,29.641426 
	C478.980957,26.464140 478.443665,23.102127 481.205658,18.810488 
	C481.806641,17.876595 482.402100,16.939144 483.000092,16.003330 
	C483.748230,15.997927 484.496368,15.992526 485.618286,15.979227 
	C490.684448,15.980074 495.376770,15.988818 500.535400,16.001818 
z"/>
<path fill="#D2EBF6" opacity="1.000000" stroke="none" 
	d="
M527.449829,29.998318 
	C527.543091,28.029266 528.086182,26.062582 528.656494,23.997200 
	C526.797607,23.015396 524.828064,21.975126 522.236755,20.606489 
	C525.427246,18.984524 527.650085,17.854465 529.937256,16.364857 
	C531.714478,16.002058 533.427368,15.998811 535.568298,15.991754 
	C540.686768,15.991261 545.377258,15.994578 550.533875,16.000505 
	C550.334290,20.387608 549.668640,24.772102 549.002686,29.575127 
	C544.975220,29.996181 540.947998,29.998711 536.456787,30.004911 
	C533.295105,30.005953 530.597412,30.003321 527.449829,29.998318 
z"/>
<path fill="#C7E5F5" opacity="1.000000" stroke="none" 
	d="
M321.035400,16.022005 
	C337.717041,16.011768 354.398682,16.001532 371.551392,15.983275 
	C372.022461,15.975256 372.003510,15.995267 372.003357,16.455906 
	C371.995758,21.270037 371.988342,25.623531 371.980927,29.977024 
	C371.808868,29.994829 371.636810,30.012632 371.210083,30.083542 
	C354.619324,30.098843 338.283264,30.061037 321.475464,29.547392 
	C321.014252,24.721703 321.024811,20.371855 321.035400,16.022005 
z"/>
<path fill="#CFE8F5" opacity="1.000000" stroke="none" 
	d="
M282.998169,15.998051 
	C290.585358,15.997555 298.177277,16.119886 305.762054,15.941427 
	C308.949341,15.866434 310.313965,16.850292 310.042175,20.150665 
	C309.826233,22.772589 309.997711,25.426416 309.776123,28.641075 
	C309.282959,29.416481 309.095490,29.677668 308.992676,29.999634 
	C308.245514,30.008362 307.498352,30.017090 306.082153,29.714504 
	C297.945770,29.266617 290.478363,29.130041 283.007874,28.530682 
	C283.001373,24.043297 282.997955,20.018696 282.994507,15.994097 
	C282.994507,15.994097 283.000000,15.999357 282.998169,15.998051 
z"/>
<path fill="#D2E5F2" opacity="1.000000" stroke="none" 
	d="
M228.476578,30.004520 
	C228.299973,25.464773 226.976624,19.447641 229.365326,16.868635 
	C231.477051,14.588690 237.723663,16.114870 242.145813,16.008244 
	C244.450043,15.952685 246.756729,15.999946 249.530853,16.000471 
	C249.999390,16.000179 250.000000,16.000000 249.998901,16.464760 
	C249.993134,21.277084 249.988434,25.624649 249.983749,29.972212 
	C242.970490,29.988867 235.957245,30.005522 228.476578,30.004520 
z"/>
<path fill="#BEDAEC" opacity="1.000000" stroke="none" 
	d="
M250.453018,29.988029 
	C249.988434,25.624649 249.993134,21.277084 249.998901,16.464985 
	C256.020477,16.002701 262.040924,16.004957 268.529602,16.475246 
	C268.989563,21.280205 268.981323,25.617132 268.973083,29.954056 
	C262.956146,29.970654 256.939209,29.987251 250.453018,29.988029 
z"/>
<path fill="#C4E4F4" opacity="1.000000" stroke="none" 
	d="
M183.003342,28.987247 
	C182.988342,16.010544 182.988342,16.010721 196.098068,15.997026 
	C197.083374,15.995997 198.068680,15.989947 199.520584,15.978598 
	C199.987183,15.970965 199.996780,15.991331 199.990997,16.395695 
	C199.990768,20.866140 199.996292,24.932224 199.783493,29.105202 
	C199.292328,29.409321 199.105637,29.668585 199.005112,29.989887 
	C194.314072,29.999857 189.623032,30.009827 184.364014,29.785793 
	C183.596802,29.272348 183.332581,29.084167 183.003342,28.987247 
z"/>
<path fill="#B9DFF1" opacity="1.000000" stroke="none" 
	d="
M282.534454,15.995094 
	C282.997955,20.018696 283.001373,24.043297 283.004974,28.780951 
	C283.006317,29.660807 283.007446,29.827608 283.008545,29.994408 
	C279.195251,30.118063 275.381927,30.241720 271.286224,29.711807 
	C271.003265,24.707947 271.002716,20.357651 271.002167,16.007357 
	C274.692902,16.003601 278.383667,15.999846 282.534454,15.995094 
z"/>
<path fill="#AAD7EC" opacity="1.000000" stroke="none" 
	d="
M321.017761,16.010666 
	C321.024811,20.371855 321.014252,24.721703 321.007629,29.536274 
	C318.634766,30.006275 316.258026,30.011555 313.435730,30.008957 
	C312.991974,25.650215 312.993713,21.299345 313.435364,16.475485 
	C316.238647,15.993883 318.602051,15.985274 320.965424,15.976665 
	C320.965424,15.976665 321.000153,15.999327 321.017761,16.010666 
z"/>
<path fill="#DBEFF8" opacity="1.000000" stroke="none" 
	d="
M213.984787,15.983120 
	C214.090652,15.657739 214.282455,15.395114 214.779510,15.080341 
	C215.490341,15.240423 215.981857,15.515407 216.736023,16.362347 
	C217.002151,20.955816 217.005615,24.977329 216.788300,29.108387 
	C216.290390,29.416927 216.098892,29.678593 215.993011,30.002924 
	C215.553711,30.005604 215.114395,30.008284 214.340332,29.749542 
	C214.005569,29.488121 213.996948,28.999313 213.997910,28.536148 
	C213.994186,24.043028 213.989487,20.013073 213.984787,15.983120 
z"/>
<path fill="#AAD7EC" opacity="1.000000" stroke="none" 
	d="
M270.837402,15.760790 
	C271.002716,20.357651 271.003265,24.707947 271.007812,29.521105 
	C270.558807,29.985500 270.105743,29.987032 269.312897,29.971310 
	C268.981323,25.617132 268.989563,21.280205 268.997681,16.480801 
	C268.999725,15.849263 269.001923,15.680202 269.008179,15.257610 
	C269.565674,15.174128 270.119171,15.344175 270.837402,15.760790 
z"/>
<path fill="#C7E5F5" opacity="1.000000" stroke="none" 
	d="
M283.475983,30.013521 
	C283.007446,29.827608 283.006317,29.660807 283.008057,29.243736 
	C290.478363,29.130041 297.945770,29.266617 305.708801,29.698645 
	C298.650787,30.006943 291.297089,30.019787 283.475983,30.013521 
z"/>
<path fill="#C7E5F5" opacity="1.000000" stroke="none" 
	d="
M213.996948,28.999313 
	C213.996948,28.999313 214.005569,29.488121 214.011230,29.732275 
	C209.323135,29.992838 204.629379,30.009247 199.470367,30.007771 
	C199.105637,29.668585 199.292328,29.409321 200.247925,29.105581 
	C205.286118,28.999149 209.641525,28.999231 213.996948,28.999313 
z"/>
<path fill="#C7E5F5" opacity="1.000000" stroke="none" 
	d="
M216.447540,30.022589 
	C216.098892,29.678593 216.290390,29.416927 217.237183,29.108749 
	C220.603470,28.998215 223.300079,28.996857 225.996689,28.995499 
	C225.997986,29.162466 225.999298,29.329435 226.000610,29.746834 
	C222.967758,30.012262 219.934921,30.027258 216.447540,30.022589 
z"/>
<path fill="#A0C9DD" opacity="1.000000" stroke="none" 
	d="
M177.127319,30.212292 
	C178.073441,29.646387 179.165466,29.322016 180.621429,28.995098 
	C180.988235,29.163895 180.991119,29.335239 180.997314,29.763863 
	C181.000656,30.445145 181.000717,30.869148 181.005768,31.610270 
	C180.549683,31.941574 180.088593,31.955759 179.282135,31.931999 
	C178.382248,31.413975 177.827744,30.933899 177.127319,30.212292 
z"/>
<path fill="#A0C9DD" opacity="1.000000" stroke="none" 
	d="
M183.002167,29.241100 
	C183.332581,29.084167 183.596802,29.272348 183.897919,29.776770 
	C183.999802,30.001749 183.501984,30.004696 183.253128,30.003674 
	C183.003174,29.833416 183.002075,29.664185 183.002167,29.241100 
z"/>
<path fill="#C7E5F5" opacity="1.000000" stroke="none" 
	d="
M309.243561,30.013016 
	C309.095490,29.677668 309.282959,29.416481 309.773254,29.106232 
	C309.993317,29.163965 309.995270,29.331537 309.996765,29.750511 
	C309.829041,30.010071 309.661743,30.018232 309.243561,30.013016 
z"/>
<path fill="#A4CFE3" opacity="1.000000" stroke="none" 
	d="
M418.431702,31.948391 
	C417.971497,31.499018 417.980072,31.086147 418.442017,30.345861 
	C421.930634,30.010326 424.965942,30.002207 428.469788,29.997702 
	C436.286591,30.008623 443.634888,30.015930 450.983154,30.023232 
	C451.541779,30.507809 452.100372,30.992392 452.809326,31.712421 
	C449.932861,31.970924 446.906006,31.993980 442.991455,32.014832 
	C440.072693,32.026031 438.041626,32.039436 435.635864,32.028069 
	C434.511597,32.018631 433.761993,32.033974 433.012421,32.049320 
	C428.308441,32.027843 423.604462,32.006371 418.431702,31.948391 
z"/>
<path fill="#D6ECF7" opacity="1.000000" stroke="none" 
	d="
M401.318359,32.350548 
	C406.368317,32.045589 411.719025,32.022064 417.536774,32.026405 
	C412.542236,32.246841 407.080688,32.439415 401.318359,32.350548 
z"/>
<path fill="#E1F2F9" opacity="1.000000" stroke="none" 
	d="
M436.010559,32.052845 
	C438.041626,32.039436 440.072693,32.026031 442.536316,32.037376 
	C440.922791,32.374649 438.876678,32.687176 436.416321,32.762455 
	C436.002045,32.525208 436.010559,32.052845 436.010559,32.052845 
z"/>
<path fill="#D6ECF7" opacity="1.000000" stroke="none" 
	d="
M395.230713,32.322891 
	C396.074432,32.056179 397.133514,32.034863 398.588593,32.044296 
	C397.805084,32.239456 396.625610,32.403866 395.230713,32.322891 
z"/>
<path fill="#D6ECF7" opacity="1.000000" stroke="none" 
	d="
M435.635864,32.028069 
	C436.010559,32.052845 436.002045,32.525208 435.999207,32.761383 
	C435.140930,32.849918 434.285553,32.702278 433.221283,32.301979 
	C433.761993,32.033974 434.511597,32.018631 435.635864,32.028069 
z"/>
<path fill="#E1F2F9" opacity="1.000000" stroke="none" 
	d="
M459.244080,32.323334 
	C459.900970,32.195847 460.775269,32.323174 461.880951,32.697365 
	C461.228729,32.822205 460.345093,32.700180 459.244080,32.323334 
z"/>
<path fill="#BEE2F3" opacity="1.000000" stroke="none" 
	d="
M451.434937,30.014534 
	C443.634888,30.015930 436.286591,30.008623 428.461639,29.599335 
	C426.732208,25.533388 426.479126,22.126196 429.799866,19.202604 
	C430.554810,18.537964 430.618256,17.087927 431.000000,15.999411 
	C433.367493,15.991574 435.735016,15.983735 438.545227,15.962595 
	C445.346130,15.962885 451.704376,15.976477 458.496460,16.342300 
	C454.249573,23.860390 454.250549,23.859417 459.916595,29.513115 
	C460.010254,29.606569 459.977173,29.827051 460.003235,29.988258 
	C457.297729,29.994116 454.592194,29.999973 451.434937,30.014534 
z"/>
<path fill="#C4E4F4" opacity="1.000000" stroke="none" 
	d="
M460.471558,29.991627 
	C459.977173,29.827051 460.010254,29.606569 459.916595,29.513115 
	C454.250549,23.859417 454.249573,23.860390 458.964844,16.346224 
	C459.441528,15.993099 459.883728,15.988285 460.657349,15.973921 
	C468.013458,15.974652 475.038208,15.984934 482.531525,15.999275 
	C482.402100,16.939144 481.806641,17.876595 481.205658,18.810488 
	C478.443665,23.102127 478.980957,26.464140 482.941162,29.638100 
	C475.647064,29.991999 468.293457,29.993496 460.471558,29.991627 
z"/>
<path fill="#B9DFF1" opacity="1.000000" stroke="none" 
	d="
M430.531372,15.994866 
	C430.618256,17.087927 430.554810,18.537964 429.799866,19.202604 
	C426.479126,22.126196 426.732208,25.533388 427.993103,29.595718 
	C424.965942,30.002207 421.930634,30.010326 418.439667,30.035355 
	C414.958954,30.038099 411.933899,30.023935 408.378296,29.628582 
	C404.028320,28.188427 400.208923,27.129463 396.376190,26.066809 
	C396.544464,18.963799 396.764954,18.758003 403.172974,17.868143 
	C403.855286,17.773392 404.395386,16.654274 405.001434,16.010366 
	C413.355194,16.003683 421.708984,15.997004 430.531372,15.994866 
z"/>
<path fill="#B5DDF1" opacity="1.000000" stroke="none" 
	d="
M404.745667,15.998199 
	C404.395386,16.654274 403.855286,17.773392 403.172974,17.868143 
	C396.764954,18.758003 396.544464,18.963799 396.376190,26.066809 
	C400.208923,27.129463 404.028320,28.188427 407.924500,29.624624 
	C396.308289,30.000593 384.615326,29.999329 372.451660,29.987545 
	C371.988342,25.623531 371.995758,21.270037 372.008911,16.450182 
	C382.358673,15.980044 392.702698,15.976269 403.513000,15.959786 
	C404.149475,15.960064 404.319702,15.973047 404.745667,15.998199 
z"/>
<path fill="#6B89B2" opacity="1.000000" stroke="none" 
	d="
M130.046570,31.190174 
	C129.897263,30.987000 130.035080,30.514420 130.108307,30.279186 
	C137.646545,30.038971 145.112076,29.987038 152.576065,30.071449 
	C153.951172,30.086998 155.320038,30.654684 156.774277,31.334721 
	C149.557999,31.743076 142.259247,31.784233 134.326447,31.613649 
	C133.106445,31.507870 132.520462,31.613829 131.934479,31.719791 
	C131.934479,31.719791 131.452347,31.828842 131.220734,31.915394 
	C130.724701,31.799078 130.460281,31.596212 130.046570,31.190174 
z"/>
<path fill="#91ABD8" opacity="1.000000" stroke="none" 
	d="
M132.278625,31.813145 
	C132.520462,31.613829 133.106445,31.507870 133.860992,31.585121 
	C133.560638,31.814390 133.091721,31.860445 132.278625,31.813145 
z"/>
<path fill="#92C7E0" opacity="1.000000" stroke="none" 
	d="
M320.980103,15.565563 
	C318.602051,15.985274 316.238647,15.993883 313.430359,16.012234 
	C312.324921,14.607264 311.664398,13.192554 311.018036,11.411851 
	C314.054260,11.028097 317.076324,11.010338 320.552246,11.017988 
	C321.002350,12.413753 320.998566,13.784107 320.980103,15.565563 
z"/>
<path fill="#A0C9DD" opacity="1.000000" stroke="none" 
	d="
M377.264587,11.262374 
	C379.377136,10.952989 381.750488,10.935109 384.568817,10.946884 
	C382.517670,11.168985 380.021545,11.361432 377.264587,11.262374 
z"/>
<path fill="#D2E5F2" opacity="1.000000" stroke="none" 
	d="
M225.998505,28.530647 
	C223.300079,28.996857 220.603470,28.998215 217.457977,28.999208 
	C217.005615,24.977329 217.002151,20.955816 216.995590,16.472286 
	C226.002075,15.972214 226.002121,15.972214 226.001740,25.120968 
	C226.001709,26.102577 226.000824,27.084188 225.998505,28.530647 
z"/>
<path fill="#CFE8F5" opacity="1.000000" stroke="none" 
	d="
M213.997910,28.536148 
	C209.641525,28.999231 205.286118,28.999149 200.466263,28.998688 
	C199.996292,24.932224 199.990768,20.866140 199.993225,16.403614 
	C204.353806,16.001911 208.706390,15.996649 213.521881,15.987253 
	C213.989487,20.013073 213.994186,24.043028 213.997910,28.536148 
z"/>
</svg>