<svg version="1.1" id="Layer_1" xmlns="http://www.w3.org/2000/svg" xmlns:xlink="http://www.w3.org/1999/xlink" x="0px" y="0px"
	 width="100%" viewBox="0 0 86 90" enable-background="new 0 0 86 90" xml:space="preserve">
<path fill="#FFFFFF" opacity="1.000000" stroke="none" 
	d="
M46.000000,91.000000 
	C30.666668,91.000000 15.833335,91.000000 1.000002,91.000000 
	C1.000001,61.000004 1.000001,31.000006 1.000001,1.000006 
	C29.666662,1.000004 58.333324,1.000004 86.999985,1.000002 
	C86.999992,30.999994 86.999992,60.999989 87.000000,90.999992 
	C73.500000,91.000000 60.000000,91.000000 46.000000,91.000000 
M45.303776,28.037556 
	C44.887466,28.034052 44.471161,28.030546 43.171482,28.003366 
	C41.404114,28.025780 39.636745,28.048193 37.131359,28.048803 
	C28.428501,30.456787 24.482384,35.346149 23.993656,44.165272 
	C23.922314,45.452652 23.431171,46.716763 23.278433,48.603260 
	C23.533501,49.388355 23.788568,50.173450 24.097742,51.582169 
	C24.155499,51.782669 24.213257,51.983170 24.302710,52.694813 
	C24.590281,53.069706 24.877853,53.444603 25.125402,54.546013 
	C28.831457,63.717327 38.383549,67.756737 49.260788,64.752457 
	C56.923901,62.635902 63.453178,52.420628 61.823341,44.377251 
	C60.533451,38.011539 58.650761,31.735302 50.362282,29.724316 
	C49.264912,29.390823 48.167542,29.057331 46.766605,28.387392 
	C46.523609,28.185276 46.244129,28.078938 45.303776,28.037556 
z"/>
<path fill="#DCE0F6" opacity="1.000000" stroke="none" 
	d="
M51.005730,29.982563 
	C58.650761,31.735302 60.533451,38.011539 61.823341,44.377251 
	C63.453178,52.420628 56.923901,62.635902 49.260788,64.752457 
	C38.383549,67.756737 28.831457,63.717327 25.439713,54.248962 
	C26.469183,54.339191 27.184341,54.726463 28.018877,55.327389 
	C28.338264,55.824455 28.608969,55.997032 29.040274,56.289116 
	C29.326498,56.810230 29.597321,56.986664 29.980574,57.401138 
	C32.680260,59.172169 35.342022,60.590809 38.231464,62.277821 
	C39.966492,62.380241 41.473846,62.214291 43.381889,62.051285 
	C44.850246,62.014900 45.917915,61.975571 47.148232,62.178329 
	C47.873371,61.945900 48.435863,61.471390 49.196007,60.720306 
	C49.938774,59.508553 50.483891,58.573380 51.028828,57.515667 
	C51.028648,57.393127 51.024670,57.148079 51.377506,57.137192 
	C52.847866,56.427967 53.965393,55.729633 55.311611,54.863373 
	C56.026817,54.130348 56.513332,53.565250 57.296059,52.971558 
	C57.706951,52.290653 57.821636,51.638340 57.956905,50.571175 
	C57.972614,48.772881 57.967739,47.389431 58.198425,45.864456 
	C58.277233,45.143814 58.120480,44.564705 57.972225,43.579727 
	C57.831589,39.168716 57.495613,35.271778 52.450508,33.853302 
	C51.819023,33.493263 51.394505,33.262146 50.966972,32.888546 
	C50.963959,32.746063 50.998253,32.463104 51.040787,32.049641 
	C51.057457,31.084974 51.031593,30.533768 51.005730,29.982563 
z"/>
<path fill="#F1F3FB" opacity="1.000000" stroke="none" 
	d="
M50.998253,32.463104 
	C50.998253,32.463104 50.963959,32.746063 50.837971,33.167831 
	C49.808105,34.394672 48.904232,35.199741 47.656898,35.947281 
	C45.879246,35.263252 44.445045,34.636753 42.596867,34.006294 
	C38.668034,33.953220 35.153183,33.904114 31.752600,33.516762 
	C33.867702,31.475883 35.868542,29.773245 37.869377,28.070606 
	C39.636745,28.048193 41.404114,28.025780 43.625565,28.369194 
	C46.385853,29.977716 48.692051,31.220409 50.998253,32.463104 
z"/>
<path fill="#ABB6C9" opacity="1.000000" stroke="none" 
	d="
M37.500366,28.059704 
	C35.868542,29.773245 33.867702,31.475883 31.450771,33.578796 
	C30.332575,34.972404 29.630474,35.965733 28.564772,37.040100 
	C27.445086,40.411488 26.689001,43.701836 25.658461,47.120003 
	C24.634096,47.495762 23.884188,47.743702 23.134279,47.991642 
	C23.431171,46.716763 23.922314,45.452652 23.993656,44.165272 
	C24.482384,35.346149 28.428501,30.456787 37.500366,28.059704 
z"/>
<path fill="#AEB8CB" opacity="1.000000" stroke="none" 
	d="
M23.206356,48.297451 
	C23.884188,47.743702 24.634096,47.495762 25.681068,47.497364 
	C26.650154,49.498802 27.322174,51.250694 28.006420,53.330650 
	C28.025364,54.095947 28.032078,54.533192 28.002815,55.005135 
	C27.966839,55.039841 27.899502,55.113739 27.899502,55.113739 
	C27.184341,54.726463 26.469183,54.339191 25.459724,53.885704 
	C24.877853,53.444603 24.590281,53.069706 24.423065,52.289124 
	C24.376825,51.575134 24.210230,51.266842 24.043634,50.958546 
	C23.788568,50.173450 23.533501,49.388355 23.206356,48.297451 
z"/>
<path fill="#AEB8CB" opacity="1.000000" stroke="none" 
	d="
M51.040787,32.049641 
	C48.692051,31.220409 46.385853,29.977716 44.067253,28.381031 
	C44.471161,28.030546 44.887466,28.034052 45.750580,28.248560 
	C46.438534,28.712044 46.729465,28.800135 47.070171,28.723839 
	C48.167542,29.057331 49.264912,29.390823 50.684006,29.853439 
	C51.031593,30.533768 51.057457,31.084974 51.040787,32.049641 
z"/>
<path fill="#DCE0F6" opacity="1.000000" stroke="none" 
	d="
M24.070688,51.270355 
	C24.210230,51.266842 24.376825,51.575134 24.407219,52.033554 
	C24.213257,51.983170 24.155499,51.782669 24.070688,51.270355 
z"/>
<path fill="#DCE0F6" opacity="1.000000" stroke="none" 
	d="
M46.918388,28.555614 
	C46.729465,28.800135 46.438534,28.712044 46.062775,28.263969 
	C46.244129,28.078938 46.523609,28.185276 46.918388,28.555614 
z"/>
<path fill="#B7BBC5" opacity="1.000000" stroke="none" 
	d="
M55.082916,55.031300 
	C53.965393,55.729633 52.847866,56.427967 50.972847,57.016678 
	C45.148838,56.901398 40.082325,56.895744 34.873024,56.619129 
	C33.266800,54.852810 32.349972,53.368603 34.985783,52.224586 
	C35.748489,52.611546 36.345268,52.727386 37.321327,52.898460 
	C38.464367,52.915943 39.228123,52.878193 40.323639,52.895142 
	C41.101456,52.926464 41.547508,52.903091 42.340012,52.933136 
	C43.386456,52.998188 44.086452,53.009823 44.981796,53.297131 
	C46.142105,53.397209 47.107067,53.221615 48.382618,52.776089 
	C48.431267,49.297905 48.169323,46.089657 47.916977,42.691101 
	C47.926575,42.500801 47.873837,42.123379 48.280121,42.105194 
	C54.669865,43.187458 50.906368,48.028614 52.066036,51.344288 
	C52.661968,52.800808 53.287075,53.882187 54.204880,54.980251 
	C54.692692,55.008392 54.887806,55.019844 55.082916,55.031300 
z"/>
<path fill="#D8DDEC" opacity="1.000000" stroke="none" 
	d="
M35.015816,56.890091 
	C40.082325,56.895744 45.148838,56.901398 50.620010,57.027565 
	C51.024670,57.148079 51.028648,57.393127 50.677662,57.667454 
	C47.867062,58.956570 45.407448,59.971359 42.540253,60.991051 
	C40.773205,60.992474 39.413738,60.988991 37.864445,60.733273 
	C36.779362,59.994160 35.884106,59.507278 34.994427,58.665813 
	C35.005276,57.837517 35.010548,57.363804 35.015816,56.890091 
z"/>
<path fill="#E8EBF5" opacity="1.000000" stroke="none" 
	d="
M48.000359,36.004810 
	C48.904232,35.199741 49.808105,34.394672 50.840984,33.310318 
	C51.394505,33.262146 51.819023,33.493263 52.588947,34.156975 
	C53.309120,35.377758 53.683891,36.165951 54.038219,37.295094 
	C54.011951,38.091106 54.006130,38.546169 53.679653,39.029747 
	C52.380527,39.495655 51.402061,39.933052 50.278690,40.435219 
	C49.468761,38.860237 48.734558,37.432526 48.000359,36.004810 
z"/>
<path fill="#AEB8CB" opacity="1.000000" stroke="none" 
	d="
M54.058662,36.954140 
	C53.683891,36.165951 53.309120,35.377758 52.795914,34.285892 
	C57.495613,35.271778 57.831589,39.168716 57.624832,43.508934 
	C56.198849,41.547379 55.128757,39.250759 54.058662,36.954140 
z"/>
<path fill="#D0D6E5" opacity="1.000000" stroke="none" 
	d="
M54.038223,37.295094 
	C55.128757,39.250759 56.198849,41.547379 57.616333,43.914799 
	C58.120480,44.564705 58.277233,45.143814 57.883049,45.875763 
	C56.910404,46.029514 56.488697,46.030422 55.764664,45.812584 
	C54.974995,43.396305 54.487652,41.198765 54.000305,39.001228 
	C54.006130,38.546169 54.011951,38.091106 54.038223,37.295094 
z"/>
<path fill="#AEB8CB" opacity="1.000000" stroke="none" 
	d="
M56.066990,46.031326 
	C56.488697,46.030422 56.910404,46.029514 57.647488,46.017296 
	C57.967739,47.389431 57.972614,48.772881 57.718910,50.742874 
	C57.306831,51.886333 57.153339,52.443241 56.999847,53.000153 
	C56.513332,53.565250 56.026817,54.130348 55.311611,54.863373 
	C54.887806,55.019844 54.692692,55.008392 54.262070,54.640594 
	C54.357468,53.193119 54.688381,52.101990 55.286774,50.753258 
	C55.725166,49.007545 55.896076,47.519436 56.066990,46.031326 
z"/>
<path fill="#AEB8CB" opacity="1.000000" stroke="none" 
	d="
M34.988850,59.020401 
	C35.884106,59.507278 36.779362,59.994160 37.845688,60.989048 
	C38.012436,61.667850 38.008110,61.838650 38.003788,62.009449 
	C35.342022,60.590809 32.680260,59.172169 29.998049,57.386765 
	C29.977604,57.020000 30.009287,56.988583 30.350861,57.026291 
	C32.124573,57.716137 33.556713,58.368267 34.988850,59.020401 
z"/>
<path fill="#AEB8CB" opacity="1.000000" stroke="none" 
	d="
M42.947838,60.986145 
	C45.407448,59.971359 47.867062,58.956570 50.677841,57.789993 
	C50.483891,58.573380 49.938774,59.508553 48.900391,60.735611 
	C47.933281,61.330410 47.459435,61.633327 46.985588,61.936245 
	C45.917915,61.975571 44.850246,62.014900 43.379364,61.785332 
	C42.966717,61.339676 42.957279,61.162910 42.947838,60.986145 
z"/>
<path fill="#D0D4E9" opacity="1.000000" stroke="none" 
	d="
M42.540253,60.991051 
	C42.957279,61.162910 42.966717,61.339676 42.978676,61.782387 
	C41.473846,62.214291 39.966492,62.380241 38.231464,62.277821 
	C38.008110,61.838650 38.012436,61.667850 38.035515,61.241280 
	C39.413738,60.988991 40.773205,60.992474 42.540253,60.991051 
z"/>
<path fill="#D0D4E9" opacity="1.000000" stroke="none" 
	d="
M47.148232,62.178329 
	C47.459435,61.633327 47.933281,61.330410 48.702744,61.012192 
	C48.435863,61.471390 47.873371,61.945900 47.148232,62.178329 
z"/>
<path fill="#D0D4E9" opacity="1.000000" stroke="none" 
	d="
M57.296059,52.971558 
	C57.153339,52.443241 57.306831,51.886333 57.698326,51.157722 
	C57.821636,51.638340 57.706951,52.290653 57.296059,52.971558 
z"/>
<path fill="#AEB8CB" opacity="1.000000" stroke="none" 
	d="
M28.950361,56.058773 
	C28.608969,55.997032 28.338264,55.824455 28.018877,55.327389 
	C27.899502,55.113739 27.966839,55.039841 28.221409,55.113747 
	C28.745600,55.394257 28.923500,55.661861 28.994524,56.007057 
	C28.979370,56.023655 28.950361,56.058773 28.950361,56.058773 
z"/>
<path fill="#AEB8CB" opacity="1.000000" stroke="none" 
	d="
M29.960129,57.034378 
	C29.597321,56.986664 29.326498,56.810230 29.040274,56.289116 
	C28.950361,56.058773 28.979370,56.023655 29.218193,56.108986 
	C29.736435,56.392784 29.920525,56.657536 30.009287,56.988583 
	C30.009287,56.988583 29.977604,57.020000 29.960129,57.034378 
z"/>
<path fill="#DCDFEB" opacity="1.000000" stroke="none" 
	d="
M55.764664,45.812584 
	C55.896076,47.519436 55.725166,49.007545 54.919853,50.748302 
	C53.555370,50.990353 52.825294,50.979752 52.095215,50.969151 
	C50.906368,48.028614 54.669865,43.187458 48.066879,42.045650 
	C47.447357,42.004292 47.027969,41.865204 47.014061,41.528141 
	C46.601704,40.469078 46.203251,39.747074 45.537682,39.005661 
	C45.094044,38.959408 44.917522,38.932575 44.729755,38.786324 
	C44.718506,38.666908 44.940174,38.575211 44.883633,38.234520 
	C44.205677,37.262745 43.584259,36.631660 42.966003,35.668694 
	C42.983059,34.894623 42.996952,34.452438 43.010849,34.010258 
	C44.445045,34.636753 45.879246,35.263252 47.656898,35.947281 
	C48.734558,37.432526 49.468761,38.860237 50.278690,40.435219 
	C51.402061,39.933052 52.380527,39.495655 53.679649,39.029747 
	C54.487652,41.198765 54.974995,43.396305 55.764664,45.812584 
z"/>
<path fill="#E8EBF5" opacity="1.000000" stroke="none" 
	d="
M42.596867,34.006294 
	C42.996952,34.452438 42.983059,34.894623 42.648632,35.672222 
	C41.557522,36.511887 40.786942,37.016132 39.810715,37.727821 
	C39.172024,38.321262 38.738972,38.707264 37.987617,39.067760 
	C37.457531,39.029762 37.245754,39.017265 36.681015,39.035442 
	C33.902641,38.703354 31.477238,38.340599 29.030666,37.721973 
	C28.982458,37.297089 28.955416,37.128075 28.928371,36.959061 
	C29.630474,35.965733 30.332575,34.972404 31.336504,33.917038 
	C35.153183,33.904114 38.668034,33.953220 42.596867,34.006294 
z"/>
<path fill="#C1CADE" opacity="1.000000" stroke="none" 
	d="
M28.564770,37.040100 
	C28.955416,37.128075 28.982458,37.297089 29.010380,38.124466 
	C29.007334,39.855442 29.003412,40.928059 28.838634,42.366219 
	C28.449917,46.155373 28.222054,49.578979 27.994190,53.002590 
	C27.322174,51.250694 26.650154,49.498802 25.955528,47.369545 
	C26.689001,43.701836 27.445086,40.411488 28.564770,37.040100 
z"/>
<path fill="#D0D6E5" opacity="1.000000" stroke="none" 
	d="
M28.006420,53.330650 
	C28.222054,49.578979 28.449917,46.155373 29.121357,42.628517 
	C29.871523,44.509289 30.178114,46.493298 30.456587,48.295349 
	C32.026020,46.728424 33.386761,45.369854 34.833542,44.015320 
	C34.919582,44.019352 35.087421,43.980518 35.046692,44.423958 
	C34.943924,47.229424 34.881889,49.591442 34.819855,51.953465 
	C32.349972,53.368603 33.266800,54.852810 34.873024,56.619129 
	C35.010548,57.363804 35.005276,57.837517 34.994427,58.665817 
	C33.556713,58.368267 32.124573,57.716137 30.350861,57.026291 
	C29.920525,56.657536 29.736435,56.392784 29.233349,56.092392 
	C28.923500,55.661861 28.745600,55.394257 28.257385,55.079041 
	C28.032078,54.533192 28.025364,54.095947 28.006420,53.330650 
z"/>
<path fill="#FFFD88" opacity="1.000000" stroke="none" 
	d="
M39.991882,52.840443 
	C39.228123,52.878193 38.464367,52.915943 37.331253,52.469742 
	C36.337070,49.317368 35.712246,46.648941 35.087421,43.980518 
	C35.087421,43.980518 34.919582,44.019352 34.919090,43.773422 
	C34.961914,43.361996 35.005226,43.196507 35.494400,43.037323 
	C38.642479,43.001205 41.344692,42.958782 44.033714,42.936050 
	C44.020519,42.955738 44.001320,42.999073 43.997589,43.230438 
	C43.993858,43.461807 43.927017,43.919750 43.565536,43.939842 
	C42.477665,43.983276 41.751282,44.006615 40.737545,44.044434 
	C40.336502,44.815773 40.222805,45.572624 40.120026,46.514091 
	C40.130943,46.698708 39.876465,46.967133 39.716644,47.067337 
	C39.669785,47.446629 39.782749,47.725719 39.991482,47.980682 
	C40.087250,47.956554 40.284618,47.948681 40.269077,48.219616 
	C40.301666,48.664951 40.349800,48.839352 40.271973,49.227028 
	C40.146015,49.440300 40.178299,49.934631 39.993164,50.182632 
	C39.859768,50.630367 39.911503,50.830097 39.968239,51.285694 
	C39.974712,51.712166 39.976185,51.882767 39.981911,52.250126 
	C39.986168,52.446880 39.991882,52.840443 39.991882,52.840443 
z"/>
<path fill="#FEF758" opacity="1.000000" stroke="none" 
	d="
M47.907379,42.881405 
	C48.169323,46.089657 48.431267,49.297905 48.195511,52.719158 
	C47.697807,52.932159 47.318420,52.837440 47.276451,52.414886 
	C47.250454,49.708466 47.266434,47.424591 47.413815,44.993595 
	C47.384792,44.547909 47.224365,44.249348 47.029152,43.723454 
	C46.994358,43.496120 47.038727,43.038307 47.258133,43.011513 
	C47.477543,42.984715 47.907383,42.881405 47.907379,42.881405 
z"/>
<path fill="#FADA3F" opacity="1.000000" stroke="none" 
	d="
M35.046692,44.423958 
	C35.712246,46.648941 36.337070,49.317368 36.951973,52.414509 
	C36.345268,52.727386 35.748489,52.611546 34.985786,52.224586 
	C34.881889,49.591442 34.943924,47.229424 35.046692,44.423958 
z"/>
<path fill="#D0D6E5" opacity="1.000000" stroke="none" 
	d="
M52.066036,51.344288 
	C52.825294,50.979752 53.555370,50.990353 54.652374,51.005905 
	C54.688381,52.101990 54.357468,53.193119 53.969368,54.623909 
	C53.287075,53.882187 52.661968,52.800808 52.066036,51.344288 
z"/>
<path fill="#F0E055" opacity="1.000000" stroke="none" 
	d="
M39.977657,52.053371 
	C39.976185,51.882767 39.974712,51.712166 40.367405,51.277496 
	C41.558872,51.026180 42.356171,51.038933 43.440201,51.035973 
	C44.109623,51.027569 44.492317,51.034885 44.915169,51.359409 
	C45.023735,52.095642 45.092155,52.514660 45.068802,52.963127 
	C44.977032,52.992577 44.786446,53.021458 44.786446,53.021458 
	C44.086452,53.009823 43.386456,52.998188 42.156555,52.712814 
	C41.076981,52.310505 40.527321,52.181938 39.977657,52.053371 
z"/>
<path fill="#D8840F" opacity="1.000000" stroke="none" 
	d="
M47.916977,42.691101 
	C47.907383,42.881405 47.477543,42.984715 46.936535,42.996861 
	C45.967407,42.999653 45.539284,42.990295 44.833496,42.972595 
	C44.370991,42.975853 44.186153,42.987465 44.001320,42.999073 
	C44.001320,42.999073 44.020519,42.955738 44.026512,42.750851 
	C44.032505,42.545963 44.022064,42.174446 44.280602,42.100517 
	C44.711636,41.976692 44.884125,41.926796 45.275661,41.920479 
	C45.494713,41.964062 45.933571,41.880783 46.207672,41.912086 
	C46.663837,41.917328 46.845905,41.891266 47.027969,41.865204 
	C47.027969,41.865204 47.447357,42.004292 47.660599,42.063835 
	C47.873837,42.123379 47.926575,42.500801 47.916977,42.691101 
z"/>
<path fill="#D8840F" opacity="1.000000" stroke="none" 
	d="
M47.318420,52.837440 
	C47.318420,52.837440 47.697807,52.932159 47.884918,52.989090 
	C47.107067,53.221615 46.142105,53.397209 44.981796,53.297131 
	C44.786446,53.021458 44.977032,52.992577 45.427681,52.973331 
	C46.358356,52.915203 46.838390,52.876320 47.318420,52.837440 
z"/>
<path fill="#FDF773" opacity="1.000000" stroke="none" 
	d="
M39.981911,52.250126 
	C40.527321,52.181938 41.076981,52.310505 41.810104,52.659393 
	C41.547508,52.903091 41.101456,52.926464 40.323639,52.895142 
	C39.991882,52.840443 39.986168,52.446880 39.981911,52.250126 
z"/>
<path fill="#82858C" opacity="1.000000" stroke="none" 
	d="
M38.305923,39.093262 
	C38.738972,38.707264 39.172024,38.321262 40.235161,37.711933 
	C42.223557,37.850807 43.581863,38.213009 44.940174,38.575211 
	C44.940174,38.575211 44.718506,38.666908 44.761276,39.039658 
	C44.794678,39.581417 44.785309,39.750431 44.576790,39.943329 
	C44.377632,39.967213 43.979534,40.016735 43.674984,39.953850 
	C42.518726,40.541309 41.667015,41.191658 40.517570,41.888229 
	C39.818951,41.925579 39.418064,41.916698 38.919060,41.721565 
	C38.668350,41.291534 38.465626,41.101120 38.199181,40.651344 
	C38.225700,39.923500 38.265812,39.508381 38.305923,39.093262 
z"/>
<path fill="#ECF0F2" opacity="1.000000" stroke="none" 
	d="
M44.883633,38.234520 
	C43.581863,38.213009 42.223557,37.850807 40.440804,37.504494 
	C40.786942,37.016132 41.557522,36.511887 42.645473,36.004112 
	C43.584259,36.631660 44.205677,37.262745 44.883633,38.234520 
z"/>
<path fill="#82858C" opacity="1.000000" stroke="none" 
	d="
M47.014061,41.528141 
	C46.845905,41.891266 46.663837,41.917328 46.249397,41.554596 
	C45.946281,40.452225 45.875542,39.738651 45.804802,39.025074 
	C46.203251,39.747074 46.601704,40.469078 47.014061,41.528141 
z"/>
<path fill="#ECF0F2" opacity="1.000000" stroke="none" 
	d="
M45.537682,39.005661 
	C45.875542,39.738651 45.946281,40.452225 45.975296,41.523293 
	C45.933571,41.880783 45.494713,41.964062 45.247341,41.591591 
	C44.925297,40.785896 44.850620,40.352673 44.775944,39.919445 
	C44.785309,39.750431 44.794678,39.581417 44.772526,39.159073 
	C44.917522,38.932575 45.094044,38.959408 45.537682,39.005661 
z"/>
<path fill="#DDE1EE" opacity="1.000000" stroke="none" 
	d="
M35.048534,43.031017 
	C35.005226,43.196507 34.961914,43.361996 34.833054,43.769386 
	C33.386761,45.369854 32.026020,46.728424 30.456587,48.295349 
	C30.178114,46.493298 29.871523,44.509289 29.282211,42.262978 
	C29.003412,40.928059 29.007334,39.855442 29.031544,38.380333 
	C31.477238,38.340599 33.902641,38.703354 36.665844,39.387787 
	C37.013474,40.414921 37.023308,41.120380 36.707512,41.875595 
	C35.937435,42.293903 35.492985,42.662460 35.048534,43.031017 
z"/>
<path fill="#F1F3FB" opacity="1.000000" stroke="none" 
	d="
M37.033142,41.825844 
	C37.023308,41.120380 37.013474,40.414921 37.018806,39.357117 
	C37.245754,39.017265 37.457531,39.029762 37.987617,39.067760 
	C38.265812,39.508381 38.225700,39.923500 38.100136,40.880707 
	C38.014683,41.422798 37.936977,41.916183 37.705826,41.945557 
	C37.474674,41.974934 37.033142,41.825844 37.033142,41.825844 
z"/>
<path fill="#FADA3F" opacity="1.000000" stroke="none" 
	d="
M43.997589,43.230438 
	C44.186153,42.987465 44.370991,42.975853 44.817455,43.419823 
	C45.011063,46.264332 44.943039,48.653263 44.875015,51.042198 
	C44.492317,51.034885 44.109623,51.027569 43.506660,50.742298 
	C43.170509,50.300545 43.054619,50.136749 42.945755,49.607147 
	C43.050900,48.783642 43.149017,48.325935 43.343140,47.796772 
	C43.583248,47.498135 43.529076,47.307602 43.105206,46.908432 
	C42.886177,46.469421 42.838562,46.275692 43.072014,45.912476 
	C43.544395,45.135242 43.735706,44.527496 43.927017,43.919750 
	C43.927017,43.919750 43.993858,43.461807 43.997589,43.230438 
z"/>
<path fill="#0F0400" opacity="1.000000" stroke="none" 
	d="
M42.790943,46.081955 
	C42.838562,46.275692 42.886177,46.469421 43.061493,47.084854 
	C43.189190,47.506565 43.247135,47.868233 43.247135,47.868233 
	C43.149017,48.325935 43.050900,48.783642 42.600540,49.613686 
	C41.558296,49.968895 40.868298,49.951763 40.178299,49.934631 
	C40.178299,49.934631 40.146015,49.440300 40.418022,49.116020 
	C40.554893,48.510723 40.419754,48.229702 40.284615,47.948681 
	C40.284618,47.948681 40.087250,47.956554 40.028244,47.720673 
	C39.938313,47.312241 39.907391,47.139687 39.876465,46.967133 
	C39.876465,46.967133 40.130943,46.698708 40.367081,46.444786 
	C40.723244,46.069386 40.843277,45.947910 41.267731,45.873096 
	C41.978416,45.973824 42.384678,46.027889 42.790943,46.081955 
z"/>
<path fill="#E6AD3B" opacity="1.000000" stroke="none" 
	d="
M36.707512,41.875595 
	C37.033142,41.825844 37.474674,41.974934 37.976231,41.983368 
	C38.657585,41.963802 38.837379,41.935810 39.017178,41.907814 
	C39.418064,41.916698 39.818951,41.925579 40.915733,41.930870 
	C42.393837,41.871990 43.176037,41.816700 43.970703,41.865208 
	C43.983166,41.969006 44.022064,42.174446 44.022064,42.174446 
	C44.022064,42.174446 44.032505,42.545963 44.039703,42.731163 
	C41.344692,42.958782 38.642479,43.001205 35.494400,43.037323 
	C35.492985,42.662460 35.937435,42.293903 36.707512,41.875595 
z"/>
<path fill="#FEF758" opacity="1.000000" stroke="none" 
	d="
M43.072014,45.912472 
	C42.384678,46.027889 41.978416,45.973824 41.274040,45.573235 
	C40.992249,44.827789 41.008572,44.428867 41.024895,44.029949 
	C41.751282,44.006615 42.477665,43.983276 43.565536,43.939842 
	C43.735706,44.527496 43.544395,45.135242 43.072014,45.912472 
z"/>
<path fill="#350E02" opacity="1.000000" stroke="none" 
	d="
M39.993164,50.182632 
	C40.868298,49.951763 41.558296,49.968895 42.593513,49.979492 
	C43.054619,50.136749 43.170509,50.300545 43.219936,50.758011 
	C42.356171,51.038933 41.558872,51.026180 40.362404,51.021629 
	C39.911503,50.830097 39.859768,50.630367 39.993164,50.182632 
z"/>
<path fill="#FDF773" opacity="1.000000" stroke="none" 
	d="
M40.737545,44.044434 
	C41.008572,44.428867 40.992249,44.827789 40.969620,45.526573 
	C40.843277,45.947910 40.723244,46.069386 40.356163,46.260170 
	C40.222805,45.572624 40.336502,44.815773 40.737545,44.044434 
z"/>
<path fill="#350E02" opacity="1.000000" stroke="none" 
	d="
M40.269073,48.219616 
	C40.419754,48.229702 40.554893,48.510723 40.543983,48.902748 
	C40.349800,48.839352 40.301666,48.664951 40.269073,48.219616 
z"/>
<path fill="#FDF773" opacity="1.000000" stroke="none" 
	d="
M39.716644,47.067337 
	C39.907391,47.139687 39.938313,47.312241 39.932472,47.744801 
	C39.782749,47.725719 39.669785,47.446629 39.716644,47.067337 
z"/>
<path fill="#E99A05" opacity="1.000000" stroke="none" 
	d="
M44.915169,51.359409 
	C44.943039,48.653263 45.011063,46.264332 45.095123,43.428169 
	C45.539284,42.990295 45.967407,42.999653 46.717125,43.023659 
	C47.038727,43.038307 46.994358,43.496120 47.051292,44.027016 
	C47.166283,44.752182 47.224346,44.946449 47.282413,45.140720 
	C47.266434,47.424591 47.250454,49.708466 47.276451,52.414886 
	C46.838390,52.876320 46.358356,52.915203 45.519451,52.943886 
	C45.092155,52.514660 45.023735,52.095642 44.915169,51.359409 
z"/>
<path fill="#FBCA26" opacity="1.000000" stroke="none" 
	d="
M47.413815,44.993595 
	C47.224346,44.946449 47.166283,44.752182 47.086082,44.254349 
	C47.224365,44.249348 47.384792,44.547909 47.413815,44.993595 
z"/>
<path fill="#9EA3AE" opacity="1.000000" stroke="none" 
	d="
M44.576790,39.943329 
	C44.850620,40.352673 44.925297,40.785896 45.028290,41.548012 
	C44.884125,41.926796 44.711636,41.976692 44.280602,42.100517 
	C44.022064,42.174446 43.983166,41.969006 43.970379,41.574364 
	C43.964905,40.792061 43.972221,40.404400 43.979534,40.016735 
	C43.979534,40.016735 44.377632,39.967213 44.576790,39.943329 
z"/>
<path fill="#C1CADE" opacity="1.000000" stroke="none" 
	d="
M43.674984,39.953850 
	C43.972221,40.404400 43.964905,40.792061 43.957916,41.470566 
	C43.176037,41.816700 42.393837,41.871990 41.213470,41.884644 
	C41.667015,41.191658 42.518726,40.541309 43.674984,39.953850 
z"/>
<path fill="#9EA3AE" opacity="1.000000" stroke="none" 
	d="
M38.919060,41.721565 
	C38.837379,41.935810 38.657585,41.963802 38.207382,41.953991 
	C37.936977,41.916183 38.014683,41.422798 38.113728,41.193436 
	C38.465626,41.101120 38.668350,41.291534 38.919060,41.721565 
z"/>
<path fill="#FEF758" opacity="1.000000" stroke="none" 
	d="
M43.343140,47.796772 
	C43.247135,47.868233 43.189190,47.506565 43.232903,47.330139 
	C43.529076,47.307602 43.583248,47.498135 43.343140,47.796772 
z"/>
</svg>