<svg version="1.1" id="Layer_1" xmlns="http://www.w3.org/2000/svg" xmlns:xlink="http://www.w3.org/1999/xlink" x="0px" y="0px"
	 width="100%" viewBox="0 0 637 265" enable-background="new 0 0 637 265" xml:space="preserve">
<path fill="#FFFFFF" opacity="1.000000" stroke="none" 
	d="
M447.000000,266.000000 
	C298.041138,266.000000 149.582260,266.000000 1.061698,266.000000 
	C1.061698,177.732300 1.061698,89.464546 1.061698,1.098398 
	C213.333313,1.098398 425.666656,1.098398 637.973389,1.098398 
	C637.973389,89.417755 637.973389,177.708878 637.973389,266.000000 
	C574.464539,266.000000 510.982269,266.000000 447.000000,266.000000 
M209.999680,142.535065 
	C209.999680,139.431076 209.999680,136.327087 209.999680,133.293396 
	C188.025360,133.293396 166.636673,133.293396 145.294296,133.293396 
	C145.294296,154.976471 145.294296,176.365158 145.294296,197.704803 
	C166.978287,197.704803 188.366989,197.704803 209.999680,197.704803 
	C209.999680,179.448685 209.999680,161.486343 209.999680,142.535065 
M76.567001,133.000229 
	C74.137360,133.000229 71.707710,133.000229 69.307617,133.000229 
	C69.307617,154.981079 69.307617,176.348587 69.307617,197.690918 
	C90.984016,197.690918 112.351570,197.690918 133.689453,197.690918 
	C133.689453,176.013031 133.689453,154.645493 133.689453,133.000229 
	C114.769867,133.000229 96.159248,133.000229 76.567001,133.000229 
M150.644775,126.999786 
	C170.720062,126.999786 190.795364,126.999786 210.734680,126.999786 
	C210.734680,105.605133 210.734680,85.000130 210.734680,64.312775 
	C189.079086,64.312775 167.690109,64.312775 146.002029,64.312775 
	C146.002029,84.430008 146.063522,104.236542 145.938248,124.041893 
	C145.918594,127.147942 147.542389,127.149033 150.644775,126.999786 
M76.569733,64.000351 
	C74.141350,64.000351 71.712967,64.000351 69.379929,64.000351 
	C69.379929,84.379677 69.379929,104.090279 69.379929,123.751541 
	C91.018646,123.751541 112.276848,123.751541 133.705139,123.751541 
	C133.705139,103.792679 133.705139,84.082886 133.705139,64.000351 
	C114.792168,64.000351 96.171326,64.000351 76.569733,64.000351 
M247.210220,137.269089 
	C248.722275,140.935379 250.059830,144.688934 251.829102,148.226593 
	C252.575394,149.718781 254.231812,150.755814 255.474518,151.999741 
	C256.717834,150.711609 258.401550,149.630554 259.122681,148.096893 
	C261.373505,143.310089 263.239136,138.343140 265.303894,133.467148 
	C265.794128,132.309448 266.479004,131.234177 267.074341,130.120987 
	C267.462189,130.264587 267.850037,130.408188 268.237885,130.551804 
	C268.237885,137.638275 268.237885,144.724747 268.237885,151.811218 
	C268.611298,152.044861 268.984711,152.278503 269.358124,152.512146 
	C270.309570,151.617569 272.067047,150.741226 272.087769,149.825562 
	C272.293671,140.728851 272.212524,131.625671 272.212524,122.685722 
	C267.231171,120.765770 264.757355,122.493553 263.138916,126.841499 
	C260.934143,132.764664 258.277252,138.519547 255.579971,144.900772 
	C252.956940,138.525314 250.301819,132.971893 248.400162,127.171432 
	C246.813614,122.332077 244.099854,120.940163 239.271729,122.502220 
	C239.271729,132.188690 239.271729,141.908875 239.271729,151.554352 
	C242.552353,152.722992 243.312683,151.333130 243.267944,148.547211 
	C243.164841,142.126862 243.235229,135.703751 243.235229,129.281754 
	C243.475555,129.195618 243.715881,129.109467 243.956207,129.023331 
	C244.977234,131.521042 245.998260,134.018738 247.210220,137.269089 
M448.156647,144.265778 
	C446.958618,142.737579 445.760559,141.209381 444.448456,139.535675 
	C447.325043,136.522888 449.909882,133.815674 452.606689,130.991196 
	C445.518982,127.094284 444.266907,135.218277 439.463104,136.815903 
	C439.463104,130.759125 439.463104,125.142136 439.463104,119.029686 
	C437.528900,119.122612 436.005463,119.195801 434.393860,119.273232 
	C434.393860,130.347061 434.393860,140.917694 434.393860,151.744476 
	C436.116699,151.744476 437.545776,151.744476 439.166687,151.744476 
	C439.417175,148.865936 439.659332,146.083298 439.929810,142.974777 
	C444.651520,146.110428 445.398590,153.871750 453.334198,151.458725 
	C451.638062,149.073196 450.125732,146.946213 448.156647,144.265778 
M373.604248,150.082748 
	C377.251770,150.695282 380.920471,151.897156 384.541260,151.766891 
	C388.790344,151.614014 392.259186,146.393204 392.502289,141.154633 
	C392.736816,136.100876 389.732574,131.333359 385.590027,130.185410 
	C380.188660,128.688629 374.381927,130.250565 371.968597,133.849426 
	C368.900604,138.424484 369.323822,144.715424 373.604248,150.082748 
M473.786743,133.666702 
	C470.706818,129.916992 463.992523,128.561340 459.985565,130.880173 
	C455.277863,133.604507 453.364197,140.656235 455.798798,146.307999 
	C458.074890,151.591919 462.947540,153.553558 470.149750,151.810287 
	C472.704407,151.191925 475.524017,150.314819 474.034882,146.501343 
	C461.979187,149.035980 460.205627,148.451233 461.337250,141.870300 
	C465.838623,141.870300 470.429810,141.870300 475.925568,141.870300 
	C475.256287,138.927017 474.731018,136.617111 473.786743,133.666702 
M332.407166,130.276672 
	C327.322845,132.559036 325.645599,136.602005 325.927460,141.975372 
	C326.132080,145.876343 327.074524,149.150513 330.706421,151.127014 
	C334.209686,153.033508 341.461273,152.219604 344.344299,149.633240 
	C348.000641,146.353195 349.194031,140.864319 347.228851,135.566177 
	C345.406189,130.652313 341.389709,129.654297 336.711823,129.978073 
	C335.551422,130.058380 334.383728,130.032852 332.407166,130.276672 
M411.850647,134.840057 
	C413.798676,134.540680 415.742950,134.213745 417.695557,133.947952 
	C421.174255,133.474442 423.523315,134.537262 423.806824,138.997253 
	C421.579742,138.997253 419.458282,138.860352 417.360626,139.025375 
	C412.805603,139.383713 409.697906,142.388870 410.063721,146.175476 
	C410.504425,150.737289 413.412445,152.236328 417.701477,152.043854 
	C421.188293,151.887375 424.687714,152.012070 428.491486,152.012070 
	C428.491486,146.080551 429.003326,140.690399 428.235687,135.489075 
	C427.934998,133.451813 424.901337,130.520844 422.872589,130.310593 
	C418.874329,129.896210 413.887665,128.170471 411.105438,133.334137 
	C410.979523,133.567856 411.181885,133.978439 411.850647,134.840057 
M294.361511,151.698059 
	C296.681458,151.786407 299.106567,152.342865 301.296112,151.850845 
	C304.401398,151.153030 307.892944,150.050720 306.465668,146.791656 
	C302.314270,146.791656 297.681885,148.087387 296.135071,146.456528 
	C294.291870,144.513168 293.913910,139.606354 294.996399,136.788239 
	C297.274445,130.857742 302.305206,135.476746 306.048279,135.408646 
	C307.559296,131.582138 304.926056,130.699249 302.538208,130.117508 
	C296.327606,128.604416 292.172729,130.415024 289.933868,135.290924 
	C287.278839,141.073334 288.855225,147.729904 294.361511,151.698059 
M360.588379,143.919708 
	C363.250214,146.470978 361.880829,147.824799 359.054718,147.967117 
	C356.526794,148.094452 353.960785,147.465729 349.982544,147.005127 
	C351.496094,149.170959 352.229309,151.245651 353.121613,151.316467 
	C356.661377,151.597397 360.535492,152.069397 363.755646,150.948227 
	C368.664307,149.239136 368.754547,143.695267 364.291138,140.920578 
	C362.468109,139.787277 360.295563,139.197296 358.533813,137.992111 
	C357.647888,137.386017 357.325317,135.956421 356.747986,134.899231 
	C357.867249,134.305252 358.933624,133.510757 360.126556,133.196243 
	C360.789093,133.021576 361.723328,133.973694 362.428284,133.842758 
	C363.736603,133.599762 364.966644,132.935242 366.229279,132.446243 
	C365.202454,131.635437 364.271759,130.353119 363.127167,130.119705 
	C361.208038,129.728333 359.123657,129.787949 357.160950,130.049347 
	C353.799316,130.497055 351.877838,132.238525 351.930206,136.027618 
	C352.006287,141.528717 356.552704,141.787888 360.588379,143.919708 
M398.014160,150.129364 
	C398.940552,150.723145 399.866943,151.316910 400.793335,151.910675 
	C401.274109,151.007355 402.145264,150.114853 402.170654,149.198914 
	C402.307892,144.246811 402.235687,139.288925 402.235687,135.426743 
	C404.845947,133.805466 406.583221,132.726425 408.320496,131.647369 
	C408.080658,131.218018 407.840851,130.788666 407.601013,130.359314 
	C405.869263,130.075745 404.137512,129.792175 402.460724,129.517609 
	C402.465576,123.569870 402.465576,123.569870 408.968689,122.381027 
	C409.476227,118.222160 406.405273,118.992805 404.131195,119.026550 
	C399.360626,119.097313 398.331207,120.831802 397.789398,129.070633 
	C396.508087,129.950500 395.247314,130.722412 394.157990,131.687744 
	C394.027588,131.803299 394.786469,133.530655 395.204926,133.562332 
	C398.948853,133.845810 397.924469,136.603806 397.972321,138.720322 
	C398.051270,142.212021 397.995422,145.706741 398.014160,150.129364 
M315.518463,143.563507 
	C314.530334,136.778198 317.357391,133.129715 325.070618,133.151337 
	C320.516785,127.623070 315.051605,132.181000 310.476501,129.561432 
	C310.476501,137.585464 310.476501,144.625031 310.476501,151.985825 
	C312.288086,151.902344 313.704407,151.837067 315.517639,151.753494 
	C315.517639,149.115051 315.517639,146.805374 315.518463,143.563507 
M284.174255,150.166016 
	C284.174255,143.579941 284.174255,136.993866 284.174255,130.032196 
	C282.125580,130.145859 280.745209,130.222443 279.260773,130.304794 
	C279.260773,137.617996 279.260773,144.529785 279.260773,152.153564 
	C281.085541,151.737625 282.539459,151.406204 284.174255,150.166016 
z"/>
<path fill="#880015" opacity="1.000000" stroke="none" 
	d="
M209.999680,143.029541 
	C209.999680,161.486343 209.999680,179.448685 209.999680,197.704803 
	C188.366989,197.704803 166.978287,197.704803 145.294296,197.704803 
	C145.294296,176.365158 145.294296,154.976471 145.294296,133.293396 
	C166.636673,133.293396 188.025360,133.293396 209.999680,133.293396 
	C209.999680,136.327087 209.999680,139.431076 209.999680,143.029541 
z"/>
<path fill="#22B14C" opacity="1.000000" stroke="none" 
	d="
M77.057816,133.000229 
	C96.159248,133.000229 114.769867,133.000229 133.689453,133.000229 
	C133.689453,154.645493 133.689453,176.013031 133.689453,197.690918 
	C112.351570,197.690918 90.984016,197.690918 69.307617,197.690918 
	C69.307617,176.348587 69.307617,154.981079 69.307617,133.000229 
	C71.707710,133.000229 74.137360,133.000229 77.057816,133.000229 
z"/>
<path fill="#00A2E8" opacity="1.000000" stroke="none" 
	d="
M150.163025,126.999664 
	C147.542389,127.149033 145.918594,127.147942 145.938248,124.041893 
	C146.063522,104.236542 146.002029,84.430008 146.002029,64.312775 
	C167.690109,64.312775 189.079086,64.312775 210.734680,64.312775 
	C210.734680,85.000130 210.734680,105.605133 210.734680,126.999786 
	C190.795364,126.999786 170.720062,126.999786 150.163025,126.999664 
z"/>
<path fill="#FFC90E" opacity="1.000000" stroke="none" 
	d="
M77.060112,64.000351 
	C96.171326,64.000351 114.792168,64.000351 133.705139,64.000351 
	C133.705139,84.082886 133.705139,103.792679 133.705139,123.751541 
	C112.276848,123.751541 91.018646,123.751541 69.379929,123.751541 
	C69.379929,104.090279 69.379929,84.379677 69.379929,64.000351 
	C71.712967,64.000351 74.141350,64.000351 77.060112,64.000351 
z"/>
<path fill="#828181" opacity="1.000000" stroke="none" 
	d="
M247.114761,136.892761 
	C245.998260,134.018738 244.977234,131.521042 243.956207,129.023331 
	C243.715881,129.109467 243.475555,129.195618 243.235229,129.281754 
	C243.235229,135.703751 243.164841,142.126862 243.267944,148.547211 
	C243.312683,151.333130 242.552353,152.722992 239.271729,151.554352 
	C239.271729,141.908875 239.271729,132.188690 239.271729,122.502220 
	C244.099854,120.940163 246.813614,122.332077 248.400162,127.171432 
	C250.301819,132.971893 252.956940,138.525314 255.579971,144.900772 
	C258.277252,138.519547 260.934143,132.764664 263.138916,126.841499 
	C264.757355,122.493553 267.231171,120.765770 272.212524,122.685722 
	C272.212524,131.625671 272.293671,140.728851 272.087769,149.825562 
	C272.067047,150.741226 270.309570,151.617569 269.358124,152.512146 
	C268.984711,152.278503 268.611298,152.044861 268.237885,151.811218 
	C268.237885,144.724747 268.237885,137.638275 268.237885,130.551804 
	C267.850037,130.408188 267.462189,130.264587 267.074341,130.120987 
	C266.479004,131.234177 265.794128,132.309448 265.303894,133.467148 
	C263.239136,138.343140 261.373505,143.310089 259.122681,148.096893 
	C258.401550,149.630554 256.717834,150.711609 255.474518,151.999741 
	C254.231812,150.755814 252.575394,149.718781 251.829102,148.226593 
	C250.059830,144.688934 248.722275,140.935379 247.114761,136.892761 
z"/>
<path fill="#848484" opacity="1.000000" stroke="none" 
	d="
M448.385010,144.542511 
	C450.125732,146.946213 451.638062,149.073196 453.334198,151.458725 
	C445.398590,153.871750 444.651520,146.110428 439.929810,142.974777 
	C439.659332,146.083298 439.417175,148.865936 439.166687,151.744476 
	C437.545776,151.744476 436.116699,151.744476 434.393860,151.744476 
	C434.393860,140.917694 434.393860,130.347061 434.393860,119.273232 
	C436.005463,119.195801 437.528900,119.122612 439.463104,119.029686 
	C439.463104,125.142136 439.463104,130.759125 439.463104,136.815903 
	C444.266907,135.218277 445.518982,127.094284 452.606689,130.991196 
	C449.909882,133.815674 447.325043,136.522888 444.448456,139.535675 
	C445.760559,141.209381 446.958618,142.737579 448.385010,144.542511 
z"/>
<path fill="#838383" opacity="1.000000" stroke="none" 
	d="
M373.314392,149.814026 
	C369.323822,144.715424 368.900604,138.424484 371.968597,133.849426 
	C374.381927,130.250565 380.188660,128.688629 385.590027,130.185410 
	C389.732574,131.333359 392.736816,136.100876 392.502289,141.154633 
	C392.259186,146.393204 388.790344,151.614014 384.541260,151.766891 
	C380.920471,151.897156 377.251770,150.695282 373.314392,149.814026 
M383.774963,147.727112 
	C387.142273,145.369476 387.858521,141.736465 386.653076,138.422180 
	C385.955536,136.504318 383.069214,134.270294 381.123657,134.228226 
	C379.138000,134.185287 375.962402,136.238754 375.288452,138.093948 
	C372.985382,144.433823 376.183563,148.163147 383.774963,147.727112 
z"/>
<path fill="#838383" opacity="1.000000" stroke="none" 
	d="
M473.996277,133.986969 
	C474.731018,136.617111 475.256287,138.927017 475.925568,141.870300 
	C470.429810,141.870300 465.838623,141.870300 461.337250,141.870300 
	C460.205627,148.451233 461.979187,149.035980 474.034882,146.501343 
	C475.524017,150.314819 472.704407,151.191925 470.149750,151.810287 
	C462.947540,153.553558 458.074890,151.591919 455.798798,146.307999 
	C453.364197,140.656235 455.277863,133.604507 459.985565,130.880173 
	C463.992523,128.561340 470.706818,129.916992 473.996277,133.986969 
M460.067932,137.036469 
	C462.813232,141.450623 466.565948,137.911453 470.196716,138.106430 
	C469.269836,136.153839 467.927429,133.867783 466.554749,133.849487 
	C464.480988,133.821823 462.386139,135.375443 460.067932,137.036469 
z"/>
<path fill="#838383" opacity="1.000000" stroke="none" 
	d="
M332.813293,130.166321 
	C334.383728,130.032852 335.551422,130.058380 336.711823,129.978073 
	C341.389709,129.654297 345.406189,130.652313 347.228851,135.566177 
	C349.194031,140.864319 348.000641,146.353195 344.344299,149.633240 
	C341.461273,152.219604 334.209686,153.033508 330.706421,151.127014 
	C327.074524,149.150513 326.132080,145.876343 325.927460,141.975372 
	C325.645599,136.602005 327.322845,132.559036 332.813293,130.166321 
M330.919861,142.333908 
	C332.291748,144.236343 333.285583,147.084778 335.124146,147.819626 
	C337.886841,148.923843 341.543457,148.252884 341.992188,144.431244 
	C342.340729,141.462738 341.964294,137.973984 340.592224,135.426254 
	C339.928375,134.193680 335.419189,133.518814 334.113770,134.512665 
	C332.320038,135.878281 331.914124,139.066727 330.919861,142.333908 
z"/>
<path fill="#838282" opacity="1.000000" stroke="none" 
	d="
M411.541016,134.573364 
	C411.181885,133.978439 410.979523,133.567856 411.105438,133.334137 
	C413.887665,128.170471 418.874329,129.896210 422.872589,130.310593 
	C424.901337,130.520844 427.934998,133.451813 428.235687,135.489075 
	C429.003326,140.690399 428.491486,146.080551 428.491486,152.012070 
	C424.687714,152.012070 421.188293,151.887375 417.701477,152.043854 
	C413.412445,152.236328 410.504425,150.737289 410.063721,146.175476 
	C409.697906,142.388870 412.805603,139.383713 417.360626,139.025375 
	C419.458282,138.860352 421.579742,138.997253 423.806824,138.997253 
	C423.523315,134.537262 421.174255,133.474442 417.695557,133.947952 
	C415.742950,134.213745 413.798676,134.540680 411.541016,134.573364 
M421.248749,147.759369 
	C422.312531,146.163696 423.376343,144.568039 424.440125,142.972366 
	C423.971161,142.442673 423.502197,141.912964 423.033264,141.383255 
	C420.449615,142.378235 417.813232,143.267090 415.344940,144.494080 
	C415.012970,144.659088 415.256927,147.311691 415.700378,147.465134 
	C417.193939,147.981903 418.897949,147.890472 421.248749,147.759369 
z"/>
<path fill="#848484" opacity="1.000000" stroke="none" 
	d="
M294.032898,151.455002 
	C288.855225,147.729904 287.278839,141.073334 289.933868,135.290924 
	C292.172729,130.415024 296.327606,128.604416 302.538208,130.117508 
	C304.926056,130.699249 307.559296,131.582138 306.048279,135.408646 
	C302.305206,135.476746 297.274445,130.857742 294.996399,136.788239 
	C293.913910,139.606354 294.291870,144.513168 296.135071,146.456528 
	C297.681885,148.087387 302.314270,146.791656 306.465668,146.791656 
	C307.892944,150.050720 304.401398,151.153030 301.296112,151.850845 
	C299.106567,152.342865 296.681458,151.786407 294.032898,151.455002 
z"/>
<path fill="#848484" opacity="1.000000" stroke="none" 
	d="
M360.285706,143.674255 
	C356.552704,141.787888 352.006287,141.528717 351.930206,136.027618 
	C351.877838,132.238525 353.799316,130.497055 357.160950,130.049347 
	C359.123657,129.787949 361.208038,129.728333 363.127167,130.119705 
	C364.271759,130.353119 365.202454,131.635437 366.229279,132.446228 
	C364.966644,132.935242 363.736603,133.599762 362.428284,133.842758 
	C361.723328,133.973694 360.789093,133.021576 360.126556,133.196243 
	C358.933624,133.510757 357.867249,134.305252 356.747986,134.899231 
	C357.325317,135.956421 357.647888,137.386017 358.533813,137.992111 
	C360.295563,139.197296 362.468109,139.787277 364.291138,140.920578 
	C368.754547,143.695267 368.664307,149.239136 363.755646,150.948227 
	C360.535492,152.069397 356.661377,151.597397 353.121613,151.316467 
	C352.229309,151.245651 351.496094,149.170959 349.982544,147.005127 
	C353.960785,147.465729 356.526794,148.094452 359.054718,147.967117 
	C361.880829,147.824799 363.250214,146.470978 360.285706,143.674255 
z"/>
<path fill="#828182" opacity="1.000000" stroke="none" 
	d="
M398.005249,149.664780 
	C397.995422,145.706741 398.051270,142.212021 397.972321,138.720322 
	C397.924469,136.603806 398.948853,133.845810 395.204926,133.562332 
	C394.786469,133.530655 394.027588,131.803299 394.157990,131.687744 
	C395.247314,130.722412 396.508087,129.950500 397.789398,129.070633 
	C398.331207,120.831802 399.360626,119.097313 404.131195,119.026550 
	C406.405273,118.992805 409.476227,118.222160 408.968689,122.381027 
	C402.465576,123.569870 402.465576,123.569870 402.460724,129.517609 
	C404.137512,129.792175 405.869263,130.075745 407.601013,130.359314 
	C407.840851,130.788666 408.080658,131.218018 408.320496,131.647369 
	C406.583221,132.726425 404.845947,133.805466 402.235687,135.426743 
	C402.235687,139.288925 402.307892,144.246811 402.170654,149.198914 
	C402.145264,150.114853 401.274109,151.007355 400.793335,151.910675 
	C399.866943,151.316910 398.940552,150.723145 398.005249,149.664780 
z"/>
<path fill="#858585" opacity="1.000000" stroke="none" 
	d="
M315.518066,144.029602 
	C315.517639,146.805374 315.517639,149.115051 315.517639,151.753494 
	C313.704407,151.837067 312.288086,151.902344 310.476501,151.985825 
	C310.476501,144.625031 310.476501,137.585464 310.476501,129.561432 
	C315.051605,132.181000 320.516785,127.623070 325.070618,133.151337 
	C317.357391,133.129715 314.530334,136.778198 315.518066,144.029602 
z"/>
<path fill="#828282" opacity="1.000000" stroke="none" 
	d="
M284.083832,150.620392 
	C282.539459,151.406204 281.085541,151.737625 279.260773,152.153564 
	C279.260773,144.529785 279.260773,137.617996 279.260773,130.304794 
	C280.745209,130.222443 282.125580,130.145859 284.174255,130.032196 
	C284.174255,136.993866 284.174255,143.579941 284.083832,150.620392 
z"/>
<path fill="#FDFDFD" opacity="1.000000" stroke="none" 
	d="
M383.375488,147.843018 
	C376.183563,148.163147 372.985382,144.433823 375.288452,138.093948 
	C375.962402,136.238754 379.138000,134.185287 381.123657,134.228226 
	C383.069214,134.270294 385.955536,136.504318 386.653076,138.422180 
	C387.858521,141.736465 387.142273,145.369476 383.375488,147.843018 
z"/>
<path fill="#FDFDFD" opacity="1.000000" stroke="none" 
	d="
M460.184082,136.646759 
	C462.386139,135.375443 464.480988,133.821823 466.554749,133.849487 
	C467.927429,133.867783 469.269836,136.153839 470.196716,138.106430 
	C466.565948,137.911453 462.813232,141.450623 460.184082,136.646759 
z"/>
<path fill="#FEFEFE" opacity="1.000000" stroke="none" 
	d="
M330.916718,141.904022 
	C331.914124,139.066727 332.320038,135.878281 334.113770,134.512665 
	C335.419189,133.518814 339.928375,134.193680 340.592224,135.426254 
	C341.964294,137.973984 342.340729,141.462738 341.992188,144.431244 
	C341.543457,148.252884 337.886841,148.923843 335.124146,147.819626 
	C333.285583,147.084778 332.291748,144.236343 330.916718,141.904022 
z"/>
<path fill="#FDFDFD" opacity="1.000000" stroke="none" 
	d="
M420.885101,147.895538 
	C418.897949,147.890472 417.193939,147.981903 415.700378,147.465134 
	C415.256927,147.311691 415.012970,144.659088 415.344940,144.494080 
	C417.813232,143.267090 420.449615,142.378235 423.033264,141.383255 
	C423.502197,141.912964 423.971161,142.442673 424.440125,142.972366 
	C423.376343,144.568039 422.312531,146.163696 420.885101,147.895538 
z"/>
</svg>