<svg version="1.1" id="Layer_1" xmlns="http://www.w3.org/2000/svg" xmlns:xlink="http://www.w3.org/1999/xlink" x="0px" y="0px"
	 width="100%" viewBox="0 0 638 127" enable-background="new 0 0 638 127" xml:space="preserve">
<path fill="#FEFEFE" opacity="1.000000" stroke="none" 
	d="
M2.000000,1.000000 
	C214.273315,1.000000 426.546631,1.000000 638.909973,1.000000 
	C638.909973,43.261181 638.909973,85.522621 638.909973,127.892029 
	C426.333374,127.892029 213.666687,127.892029 1.000009,127.894218 
	C1.000000,86.241631 1.000000,44.586857 1.233732,2.379720 
	C1.733757,1.608725 1.911270,1.332939 2.000000,1.000000 
M394.354309,78.765923 
	C392.742493,78.510010 391.130646,78.254097 389.518829,77.998184 
	C389.446594,79.280060 389.343140,80.561287 389.316071,81.844116 
	C389.303558,82.435104 389.340942,83.063683 389.531219,83.614586 
	C389.888153,84.647980 390.494141,86.531464 390.783508,86.492188 
	C392.131653,86.309143 393.696869,85.865616 394.579224,84.938942 
	C394.986633,84.510994 394.289490,82.530418 393.580750,81.681740 
	C392.873718,80.835144 391.525787,80.523781 390.024384,79.755402 
	C392.103027,79.418953 393.530945,79.187843 395.573608,79.353004 
	C396.412079,82.450989 397.250519,85.548981 398.357727,89.640068 
	C399.811371,85.853256 401.154999,82.353012 402.498627,78.852760 
	C402.137054,78.679337 401.775482,78.505913 401.413879,78.332489 
	C400.589539,79.486961 399.765198,80.641426 399.535675,80.962883 
	C397.660126,80.155426 396.326569,79.581299 394.354309,78.765923 
M359.342896,92.581993 
	C356.635101,92.407364 353.927338,92.232742 351.332642,92.065414 
	C351.332642,97.632820 351.332642,102.460236 351.332642,107.287643 
	C351.680603,107.331314 352.028534,107.374992 352.376495,107.418663 
	C352.669800,105.476112 352.963104,103.533562 353.207458,101.915321 
	C355.295441,101.222359 357.188690,100.594017 359.761841,99.996803 
	C360.359344,99.660103 360.956818,99.323402 361.554321,98.986694 
	C361.253693,98.702393 360.953033,98.418083 360.652405,98.133774 
	C360.113281,98.728737 359.574158,99.323692 358.172699,99.952164 
	C351.699707,99.932480 351.699707,99.932480 352.591492,94.259094 
	C354.721558,94.259094 356.857330,94.259094 359.110840,94.841080 
	C359.877716,94.851913 360.644592,94.862740 361.411469,94.873566 
	C360.956177,94.248581 360.500885,93.623589 359.342896,92.581993 
M475.157501,97.463257 
	C472.537720,97.463257 469.917938,97.463257 467.298187,97.463257 
	C467.300995,97.738663 467.303802,98.014069 467.306610,98.289474 
	C469.536835,98.545769 471.767059,98.802071 474.849487,99.156303 
	C471.360016,101.410774 469.153351,102.836441 467.644318,103.811394 
	C470.298065,105.045036 472.915375,106.261734 476.153076,107.766830 
	C476.153076,104.612274 476.153076,102.312302 476.935394,100.016716 
	C478.964783,99.674652 480.994171,99.332588 483.759460,99.391235 
	C483.568390,101.251060 483.377289,103.110886 483.186188,104.970703 
	C481.157898,104.469315 479.129608,103.967918 477.101288,103.466530 
	C476.894165,103.873589 476.687042,104.280640 476.479889,104.687698 
	C478.929199,105.850861 481.378510,107.014023 484.050537,108.282944 
	C484.086700,108.474785 484.245453,109.316780 484.404205,110.158768 
	C484.807861,110.132050 485.211548,110.105324 485.615234,110.078606 
	C485.615234,105.664177 485.615234,101.249756 485.615234,96.536705 
	C484.836243,96.672844 483.907196,96.835205 482.265656,96.990074 
	C479.995483,97.383568 477.725342,97.777054 475.157501,97.463257 
M324.498596,99.715759 
	C321.787689,96.647141 318.126526,98.294235 314.925751,98.130447 
	C314.452057,98.106209 312.917511,101.994011 313.449677,103.523590 
	C314.071167,105.309944 316.239014,107.251633 318.081482,107.697266 
	C319.517853,108.044678 321.482727,106.206894 323.212738,105.340195 
	C323.048492,104.725441 322.884216,104.110687 322.719940,103.495941 
	C320.119019,105.289986 317.423676,107.739159 315.710419,103.669296 
	C318.922150,102.636986 322.014252,101.643120 325.535522,101.358330 
	C327.456482,102.340996 329.377441,103.323669 331.298370,104.306335 
	C331.137970,104.807716 330.977570,105.309097 330.817169,105.810478 
	C328.820984,105.397850 326.824768,104.985222 324.873474,104.581879 
	C327.478271,109.100456 329.979004,109.092018 334.320587,104.339279 
	C334.643250,104.984711 334.806610,105.888908 335.203033,106.006371 
	C337.104858,106.569885 339.079895,107.245491 341.007233,107.185349 
	C341.766571,107.161652 343.286072,104.733734 343.057648,104.419449 
	C342.031616,103.007820 340.577393,101.857018 339.130341,100.817078 
	C337.881012,99.919258 336.433075,99.297821 335.072906,98.554207 
	C334.802704,98.903381 334.532501,99.252548 334.262299,99.601723 
	C336.562408,101.289429 338.862549,102.977135 341.162659,104.664841 
	C339.660065,105.412445 338.149872,105.566902 336.967712,105.016632 
	C332.908295,103.127007 328.963745,100.990570 324.498596,99.715759 
M430.538483,99.542946 
	C431.029694,99.684479 431.520935,99.826012 432.034576,100.729843 
	C432.886566,103.109032 433.738556,105.488213 434.590546,107.867401 
	C435.046509,107.877876 435.502472,107.888344 435.958466,107.898819 
	C437.155426,104.982353 438.352417,102.065895 439.885773,98.329796 
	C440.274536,102.062584 440.553986,104.745781 440.833466,107.428978 
	C441.208221,107.384567 441.583008,107.340157 441.957764,107.295753 
	C441.957764,102.291054 441.957764,97.286354 441.957764,91.438477 
	C436.607819,94.023613 438.216003,99.796471 435.005005,103.349968 
	C434.189331,100.693810 433.689087,98.430946 432.790100,96.339462 
	C432.083099,94.694710 430.884064,93.261452 429.903595,91.734245 
	C429.596161,92.011070 429.288727,92.287903 428.981293,92.564728 
	C428.981293,97.433609 428.981293,102.302483 428.981293,107.171356 
	C429.360901,107.152977 429.740479,107.134598 430.120087,107.116219 
	C430.120087,104.850594 430.120087,102.584976 430.538483,99.542946 
M21.021921,85.812454 
	C21.558933,84.950211 22.038649,83.393082 22.642656,83.343277 
	C25.615936,83.098106 28.822046,82.608116 31.557966,83.456215 
	C34.059120,84.231544 36.064213,86.607162 37.903954,87.989136 
	C37.903954,84.246613 37.903954,79.698051 37.903954,74.578568 
	C35.106995,80.984077 30.863890,82.291252 21.389206,80.158058 
	C21.389206,74.427292 21.389206,68.696526 21.389206,62.353081 
	C28.867731,64.439499 38.581833,57.802189 42.982979,69.576721 
	C42.829754,66.459991 42.676525,63.343266 42.521076,60.181374 
	C30.955658,60.181374 20.067703,60.181374 9.179749,60.181374 
	C14.314809,60.526035 14.792595,64.184532 14.814310,68.026047 
	C14.871725,78.183197 15.047822,88.348114 14.696910,98.493347 
	C14.606490,101.107483 12.744842,103.660362 11.733059,106.152214 
	C20.525425,106.152214 30.179369,106.218506 39.829845,106.065666 
	C40.995014,106.047218 42.736069,105.116203 43.183628,104.138298 
	C44.462509,101.343987 45.212288,98.307526 46.170174,95.366302 
	C45.840515,94.959549 45.510857,94.552795 45.181198,94.146042 
	C41.664242,104.070099 33.980820,104.269043 25.864740,103.915451 
	C22.191801,103.755432 20.806805,102.337662 20.974501,98.739372 
	C21.160347,94.751640 21.017225,90.748589 21.021921,85.812454 
M144.737564,70.525589 
	C144.737564,68.095078 144.737564,65.664558 144.737564,62.726585 
	C152.632965,63.502804 161.291824,59.188480 164.702148,70.881241 
	C165.021835,70.465179 165.341537,70.049110 165.661224,69.633041 
	C165.417938,66.482323 165.174652,63.331604 164.933105,60.203354 
	C153.808441,60.203354 143.306717,60.203354 132.804977,60.203354 
	C137.742065,60.939247 138.178970,64.289642 138.124908,68.305618 
	C137.990448,78.294319 137.942993,88.288773 138.143723,98.275223 
	C138.227036,102.419151 137.153503,105.211647 132.676422,106.236610 
	C138.112244,106.236610 143.548065,106.236610 148.704758,106.236610 
	C144.464066,102.287010 143.065094,93.197365 145.641006,83.809074 
	C150.667923,84.330025 157.090912,80.958405 159.269165,89.178650 
	C159.269165,84.432098 159.269165,79.685539 159.269165,73.804070 
	C156.293137,81.185120 154.142776,82.040611 144.737137,80.268013 
	C144.737137,77.413147 144.737137,74.457047 144.737564,70.525589 
M228.762207,102.230064 
	C230.719772,97.739670 232.677353,93.249275 235.111633,87.665398 
	C238.108749,94.980377 240.605240,101.073463 243.598145,108.378151 
	C248.353729,96.218651 252.549316,85.490982 256.625916,75.067612 
	C255.079971,75.067612 252.429169,75.067612 250.442719,75.067612 
	C253.536316,83.343300 246.824036,89.291298 245.405670,96.483612 
	C242.991592,91.924065 241.123566,87.337463 239.172333,82.786537 
	C237.842468,79.684845 236.591919,76.684792 241.187790,75.249908 
	C236.842606,75.249908 232.497421,75.249908 227.771408,75.249908 
	C235.786957,80.828606 234.656342,86.022110 227.332535,97.024521 
	C226.211914,89.090317 219.646484,83.306297 222.431030,75.216446 
	C219.137161,75.216446 215.396927,75.216446 212.562225,75.216446 
	C214.362213,79.199638 216.358688,83.229240 218.023636,87.391449 
	C220.625244,93.895226 223.002304,100.488815 225.859085,108.064140 
	C227.114441,105.513931 227.761429,104.199570 228.762207,102.230064 
M63.240791,86.528870 
	C59.197971,88.772240 54.836575,90.599419 51.204613,93.379532 
	C47.777912,96.002518 47.887581,101.487419 50.597225,104.654968 
	C53.058590,107.532326 57.275185,107.831726 61.007374,105.382599 
	C62.219059,104.587471 63.413139,103.765511 64.933212,102.741676 
	C66.357132,106.255768 68.465416,108.163292 71.898560,105.894722 
	C73.561226,104.796051 74.906731,103.217407 77.472115,100.872124 
	C74.575150,101.540161 73.270515,101.841003 71.028297,102.358055 
	C71.028297,95.709114 71.080963,89.611816 71.013077,83.515854 
	C70.948738,77.737961 69.062164,75.380432 63.907288,74.344574 
	C58.259495,73.209671 52.147434,75.522682 50.584480,79.722237 
	C50.075027,81.091103 50.407028,82.915764 50.814331,84.406212 
	C50.957821,84.931282 53.032192,85.579369 53.268383,85.315392 
	C54.272774,84.192848 54.894958,82.734863 55.701138,81.426735 
	C56.643391,79.897812 57.443855,77.349365 58.645039,77.133850 
	C60.382191,76.822182 63.568810,77.739418 64.076897,78.977699 
	C64.910477,81.009254 64.089523,83.719704 63.240791,86.528870 
M182.508286,88.985283 
	C181.965683,100.257774 188.513199,108.064270 197.828644,107.251488 
	C205.183548,106.609764 210.301895,100.876625 211.552139,91.879555 
	C212.520706,84.909554 208.114899,77.222740 201.872543,74.991531 
	C192.918396,71.791046 185.021057,77.237740 182.508286,88.985283 
M123.115738,75.238358 
	C123.705582,77.066490 125.183754,79.164024 124.725716,80.674370 
	C123.072876,86.124512 120.768150,91.376968 118.293739,97.780197 
	C115.359612,91.339531 112.668083,86.029709 110.599686,80.487343 
	C110.055099,79.028114 111.437431,76.849770 111.831459,75.385941 
	C108.416229,75.385941 104.096039,75.385941 99.201660,75.385941 
	C100.555206,76.442200 101.671707,76.885933 102.064011,77.685135 
	C106.447845,86.616035 111.214294,95.408592 114.825348,104.649628 
	C116.797218,109.695839 111.021683,114.953224 105.738548,114.527809 
	C104.252487,114.408157 102.603615,116.310364 101.029427,117.285187 
	C102.450249,118.570175 104.512230,121.222664 105.183098,120.908119 
	C108.431503,119.385101 112.210167,117.676117 114.098434,114.882378 
	C116.826767,110.845695 118.107582,105.825584 119.972595,101.211563 
	C123.519371,92.436867 127.042503,83.652611 130.523285,75.001968 
	C128.755707,75.001968 126.265083,75.001968 123.115738,75.238358 
M94.141411,90.400482 
	C90.933182,88.653938 87.436104,87.266144 84.636467,85.012108 
	C83.199409,83.855103 82.143799,80.946236 82.554504,79.218613 
	C82.831390,78.053886 86.173401,76.654602 87.781860,77.008293 
	C89.893646,77.472656 91.796425,79.402145 93.497696,81.009888 
	C94.399971,81.862556 94.686203,83.367111 95.250526,84.577393 
	C95.459518,84.485413 95.668510,84.393425 95.877502,84.301445 
	C95.877502,81.177879 95.877502,78.054314 95.877502,75.274017 
	C93.319283,74.922432 90.965103,74.624130 88.619179,74.271057 
	C84.181885,73.603218 79.957603,75.803696 78.387291,79.635033 
	C76.605576,83.982178 77.953499,88.105309 82.197990,90.772049 
	C84.445770,92.184273 86.895905,93.272453 89.159126,94.662521 
	C93.221725,97.157730 94.429039,100.583069 92.294434,103.165482 
	C90.234413,105.657661 85.862801,105.667892 82.936325,102.683792 
	C81.088791,100.799866 79.934555,98.236038 78.183670,95.536774 
	C78.183670,99.493942 78.183670,102.896675 78.183670,105.922684 
	C81.209389,106.413261 83.949257,107.064903 86.721214,107.259560 
	C91.158554,107.571167 95.125656,106.279526 97.203224,102.040268 
	C99.264069,97.835129 98.399147,93.953087 94.141411,90.400482 
M177.715195,93.450829 
	C177.715195,81.619576 177.715195,69.788315 177.715195,57.101044 
	C173.718582,58.763504 171.026596,59.883286 169.469086,60.531162 
	C170.424957,63.349754 171.805023,65.607719 171.861252,67.898170 
	C172.106049,77.873848 172.136810,87.863785 171.856323,97.837601 
	C171.776855,100.663498 170.380814,103.452354 169.552979,106.384285 
	C172.694443,106.384285 176.492630,106.384285 178.962067,106.384285 
	C178.566330,102.590225 178.140640,98.509041 177.715195,93.450829 
M267.515259,107.679153 
	C269.986450,106.789124 274.260071,106.308899 274.573944,104.928360 
	C275.358612,101.477303 275.424042,96.950371 273.689148,94.148628 
	C272.462677,92.167961 267.821320,92.301849 264.056213,91.323288 
	C264.056213,94.354515 264.056061,95.978836 264.056244,97.603165 
	C264.056549,100.083160 263.812836,102.599754 264.176331,105.025337 
	C264.324005,106.010712 265.792786,106.798111 267.515259,107.679153 
M521.625488,102.681107 
	C523.035156,102.581108 524.444763,102.481110 526.025696,102.368965 
	C525.915161,95.287407 520.960938,99.939095 518.536377,98.922424 
	C518.063354,98.724075 515.944153,100.725304 516.088745,101.057846 
	C517.104736,103.394424 518.007019,106.405731 519.930664,107.560425 
	C522.217712,108.933266 524.678833,107.371933 526.382996,103.398201 
	C522.787659,105.105110 519.894958,107.880257 518.053894,102.934860 
	C519.176331,102.831215 519.985291,102.756523 521.625488,102.681107 
M398.002899,98.299400 
	C395.733551,98.733047 392.206757,98.448196 391.461395,99.752647 
	C389.992676,102.323029 390.543579,105.631020 393.880493,107.340775 
	C396.790894,108.832016 398.911407,107.802406 400.297699,104.297905 
	C395.231110,106.540680 395.231110,106.540680 393.362579,102.860741 
	C395.868286,102.729477 398.300140,102.602089 402.331329,102.390915 
	C400.565613,100.390259 399.586914,99.281334 398.002899,98.299400 
M508.310394,99.676643 
	C510.417694,97.217667 511.904388,97.371994 512.347778,100.764450 
	C512.625488,102.889084 512.622559,105.050400 512.745483,107.195251 
	C513.206604,107.168449 513.667664,107.141640 514.128784,107.114830 
	C514.128784,104.390205 514.510071,101.583557 513.949829,98.979454 
	C513.710205,97.865494 511.534912,96.478226 510.193695,96.427948 
	C506.940460,96.305984 503.660522,96.895432 500.560242,97.182579 
	C500.560242,100.337952 500.560242,103.834412 500.560242,107.852516 
	C503.584778,104.827644 499.402100,99.187500 505.549255,97.891022 
	C505.899231,101.507484 506.189880,104.510780 506.480530,107.514076 
	C507.012054,107.469139 507.543579,107.424210 508.075104,107.379272 
	C508.075104,105.111809 508.075104,102.844337 508.310394,99.676643 
M423.375610,83.997772 
	C423.862701,82.821106 424.349792,81.644440 425.357941,79.209038 
	C422.417480,78.958252 419.740295,78.729919 417.063080,78.501579 
	C417.122772,80.891235 416.343201,83.815048 417.442841,85.542816 
	C419.012421,88.008896 421.461639,86.801270 423.375610,83.997772 
M313.558258,81.004791 
	C314.283264,82.876617 315.008270,84.748444 315.733246,86.620293 
	C318.051910,84.929901 320.370605,83.239510 323.261658,81.131813 
	C319.024323,79.059578 316.211182,73.656479 313.558258,81.004791 
M274.006195,81.618835 
	C273.836853,84.586189 275.206085,86.701973 278.156250,86.504463 
	C279.476837,86.416046 281.733795,84.351768 281.684357,83.270180 
	C281.596405,81.346954 280.075989,79.489220 279.154785,77.604095 
	C277.454926,78.686035 275.755096,79.767967 274.006195,81.618835 
M496.379547,104.123741 
	C494.121063,106.482025 492.040802,106.712296 489.370026,102.809631 
	C492.737244,102.345985 495.370636,101.983376 498.012848,101.619560 
	C497.107117,97.007126 493.873047,98.791176 491.743073,99.125946 
	C490.351929,99.344589 487.979736,101.818710 488.165894,102.174759 
	C489.249298,104.246971 490.622650,106.784233 492.560028,107.608665 
	C494.274902,108.338409 497.615753,107.997780 496.379547,104.123741 
M449.635315,96.989403 
	C448.181183,97.287140 446.727081,97.584885 444.259216,98.090195 
	C447.664124,98.462013 449.824219,98.697891 453.189758,99.065407 
	C449.459167,101.389626 447.141754,102.833420 445.580597,103.806061 
	C448.203217,105.033958 450.857849,106.276840 454.004547,107.750099 
	C454.004547,104.836250 454.439392,102.565453 453.857849,100.594521 
	C453.441803,99.184372 451.663513,98.176163 449.635315,96.989403 
M343.351562,86.166138 
	C346.862183,87.662781 349.618164,86.187210 350.261719,82.953445 
	C350.724060,80.629944 349.827576,77.472519 348.381012,75.563072 
	C347.622620,74.561989 343.833313,74.649132 342.367920,75.647209 
	C339.464203,77.624878 339.272980,80.894661 341.034912,84.024910 
	C341.424194,84.716537 342.116364,85.237694 343.351562,86.166138 
M373.848816,107.756554 
	C377.412415,108.120995 379.987701,106.521439 379.835846,103.002121 
	C379.740662,100.796196 378.294952,98.043877 376.553528,96.754150 
	C375.600891,96.048607 371.975067,97.292969 370.960236,98.683678 
	C368.978729,101.399017 369.355621,104.599365 372.261719,106.977707 
	C372.510162,107.181038 372.840240,107.284653 373.848816,107.756554 
M383.361908,96.876236 
	C382.719757,99.556992 381.559418,102.263054 381.688446,104.906158 
	C381.740662,105.975861 384.594421,107.650810 386.196198,107.677467 
	C387.576965,107.700455 388.990204,105.774933 390.595856,104.553558 
	C387.572357,104.691948 385.631592,104.780777 383.690857,104.869598 
	C383.664459,102.987968 383.638062,101.106339 383.611664,99.224709 
	C385.558105,99.224709 387.504517,99.224709 389.301788,99.224709 
	C388.167664,96.225327 388.167664,96.225327 383.361908,96.876236 
M465.091949,105.023201 
	C465.094086,95.443260 463.960815,94.414513 457.392761,97.881836 
	C457.392761,101.086098 457.392761,104.232574 457.392761,107.379044 
	C457.873627,105.234985 457.687317,102.975540 458.240997,100.914909 
	C458.532959,99.828316 460.115967,99.088615 461.116089,98.192291 
	C461.755219,99.176308 462.746490,100.091965 462.953735,101.159798 
	C463.294464,102.915245 463.127106,104.769318 463.173981,106.581802 
	C463.810669,106.342590 464.447388,106.103386 465.091949,105.023201 
M416.416229,102.987083 
	C417.753204,103.790642 419.090179,104.594208 420.427155,105.397766 
	C420.742676,105.195343 421.058197,104.992920 421.373749,104.790497 
	C420.304230,103.225334 419.234741,101.660164 418.166779,100.097282 
	C418.656158,99.746498 419.428864,99.192589 420.201630,98.638672 
	C419.443787,97.859970 418.604980,96.366135 417.943756,96.440979 
	C416.185608,96.639999 414.503998,97.515320 412.791931,98.121666 
	C413.771667,99.681587 414.751404,101.241516 416.416229,102.987083 
M380.845673,79.769463 
	C382.057861,79.614304 383.270050,79.459152 383.791931,79.392357 
	C382.471313,81.465317 381.290527,83.318794 380.109741,85.172279 
	C382.224945,85.601097 384.340179,86.029915 388.125397,86.797287 
	C386.833679,82.685699 386.056305,80.211304 385.278931,77.736908 
	C383.639740,78.260818 382.000580,78.784737 380.845673,79.769463 
M306.839355,96.264801 
	C306.211304,96.425087 305.586700,96.602280 304.952393,96.731918 
	C304.819916,96.758995 304.651550,96.610435 304.499725,96.542824 
	C304.463074,96.675858 304.426453,96.808891 304.360992,97.046532 
	C306.094757,98.134224 308.657990,98.856064 309.414124,100.440353 
	C310.364960,102.432587 309.837311,105.130470 310.000488,108.670288 
	C313.198761,101.801796 312.104614,97.645912 306.839355,96.264801 
M529.824402,98.007545 
	C537.634094,97.575668 533.133118,104.657951 536.289673,108.655167 
	C536.464722,105.212303 536.797729,102.866058 536.656677,100.548660 
	C536.375854,95.933083 533.940186,94.966675 529.824402,98.007545 
M277.300537,98.304504 
	C277.300690,99.965302 277.202057,101.633118 277.319672,103.285553 
	C277.654938,107.995392 279.778046,108.916832 285.442352,105.273552 
	C278.393250,107.238022 279.387024,103.270828 279.307007,100.111786 
	C279.238464,97.404755 279.233459,97.404884 277.300537,98.304504 
M539.416077,106.591774 
	C540.413635,107.071304 541.411194,107.550835 542.225159,107.942123 
	C541.797607,104.847603 541.016357,102.293663 541.207275,99.814598 
	C541.464233,96.478012 541.785950,96.502792 539.153687,93.269264 
	C539.153687,97.449104 539.153687,101.628952 539.416077,106.591774 
M291.051025,102.651161 
	C292.241394,103.179573 293.431732,103.707993 294.622101,104.236404 
	C294.462769,104.788177 294.303436,105.339951 294.144104,105.891724 
	C292.117218,105.511757 290.090302,105.131783 288.063385,104.751816 
	C287.994690,105.186203 287.925995,105.620583 287.857300,106.054970 
	C290.087128,106.358276 292.343079,106.969521 294.531494,106.784119 
	C295.220886,106.725716 296.352753,103.539589 296.228333,103.461372 
	C293.828827,101.953072 291.272461,100.694336 288.748413,99.384178 
	C288.520630,99.818695 288.292847,100.253220 288.065063,100.687744 
	C288.817261,101.229713 289.569427,101.771683 291.051025,102.651161 
M357.148346,79.862495 
	C356.969879,81.496223 356.791443,83.129951 356.613007,84.763680 
	C356.078979,84.806129 355.544983,84.848572 355.010956,84.891022 
	C354.478760,82.693764 353.946533,80.496506 353.414337,78.299240 
	C352.924438,78.400185 352.434540,78.501129 351.944641,78.602074 
	C352.373535,80.974632 352.278656,83.671051 353.458527,85.579269 
	C354.024536,86.494690 357.001404,85.919472 358.954926,86.022957 
	C358.954926,83.113663 358.968750,81.145844 358.885132,79.182159 
	C358.882721,79.126053 357.845306,79.114014 357.148346,79.862495 
M285.695068,84.628128 
	C285.256439,82.536224 284.817841,80.444313 284.379242,78.352409 
	C283.892334,78.423042 283.405426,78.493683 282.918518,78.564316 
	C283.296021,80.922592 283.127808,83.614677 284.280334,85.498856 
	C284.860077,86.446609 287.839020,85.926773 290.153290,86.102501 
	C289.919128,82.853218 289.757843,80.614738 289.596527,78.376259 
	C289.337891,78.412720 289.079254,78.449188 288.820648,78.485649 
	C288.039246,80.595268 287.257874,82.704880 285.695068,84.628128 
M370.019226,81.552910 
	C370.133392,82.972801 370.247559,84.392700 370.355438,85.734299 
	C373.160187,85.734299 375.504791,85.734299 377.849396,85.734299 
	C377.839111,85.558441 377.828857,85.382576 377.818573,85.206718 
	C375.951447,84.974854 374.084320,84.742989 372.297821,84.521133 
	C372.026520,81.286652 371.790192,78.468758 371.553833,75.650864 
	C371.041992,75.697273 370.530151,75.743683 370.018311,75.790092 
	C370.018311,77.415024 370.018311,79.039948 370.019226,81.552910 
M270.982544,83.466316 
	C271.543121,81.467278 272.103699,79.468239 272.547852,77.884377 
	C270.847687,77.884377 269.089294,77.884377 267.534210,77.884377 
	C268.004364,79.877190 268.543396,82.220703 269.183838,84.536156 
	C269.199829,84.593925 270.336456,84.341728 270.982544,83.466316 
M273.235260,75.559326 
	C273.426239,75.581528 273.617218,75.603729 273.808197,75.625946 
	C273.724670,75.510956 273.641144,75.395958 273.235260,75.559326 
M266.762177,75.593864 
	C266.568573,75.584778 266.375000,75.575699 266.181396,75.566620 
	C266.273132,75.676270 266.364838,75.785927 266.762177,75.593864 
z"/>
<path fill="#DCDDDF" opacity="1.000000" stroke="none" 
	d="
M1.500000,1.000000 
	C1.911270,1.332939 1.733757,1.608725 1.233732,1.913679 
	C1.000000,1.666667 1.000000,1.333333 1.500000,1.000000 
z"/>
<path fill="#5193CD" opacity="1.000000" stroke="none" 
	d="
M21.019638,86.282333 
	C21.017225,90.748589 21.160347,94.751640 20.974501,98.739372 
	C20.806805,102.337662 22.191801,103.755432 25.864740,103.915451 
	C33.980820,104.269043 41.664242,104.070099 45.181198,94.146042 
	C45.510857,94.552795 45.840515,94.959549 46.170174,95.366302 
	C45.212288,98.307526 44.462509,101.343987 43.183628,104.138298 
	C42.736069,105.116203 40.995014,106.047218 39.829845,106.065666 
	C30.179369,106.218506 20.525425,106.152214 11.733059,106.152214 
	C12.744842,103.660362 14.606490,101.107483 14.696910,98.493347 
	C15.047822,88.348114 14.871725,78.183197 14.814310,68.026047 
	C14.792595,64.184532 14.314809,60.526035 9.179749,60.181374 
	C20.067703,60.181374 30.955658,60.181374 42.521076,60.181374 
	C42.676525,63.343266 42.829754,66.459991 42.982979,69.576721 
	C38.581833,57.802189 28.867731,64.439499 21.389206,62.353081 
	C21.389206,68.696526 21.389206,74.427292 21.393501,80.161636 
	C30.863890,82.291252 35.106995,80.984077 37.903954,74.578568 
	C37.903954,79.698051 37.903954,84.246613 37.903954,87.989136 
	C36.064213,86.607162 34.059120,84.231544 31.557966,83.456215 
	C28.822046,82.608116 25.615936,83.098106 22.642656,83.343277 
	C22.038649,83.393082 21.558933,84.950211 21.019638,86.282333 
z"/>
<path fill="#5E9BD1" opacity="1.000000" stroke="none" 
	d="
M144.737350,71.013268 
	C144.737137,74.457047 144.737137,77.413147 144.737137,80.268013 
	C154.142776,82.040611 156.293137,81.185120 159.269165,73.804070 
	C159.269165,79.685539 159.269165,84.432098 159.269165,89.178650 
	C157.090912,80.958405 150.667923,84.330025 145.641006,83.809074 
	C143.065094,93.197365 144.464066,102.287010 148.704758,106.236610 
	C143.548065,106.236610 138.112244,106.236610 132.676422,106.236610 
	C137.153503,105.211647 138.227036,102.419151 138.143723,98.275223 
	C137.942993,88.288773 137.990448,78.294319 138.124908,68.305618 
	C138.178970,64.289642 137.742065,60.939247 132.804977,60.203354 
	C143.306717,60.203354 153.808441,60.203354 164.933105,60.203354 
	C165.174652,63.331604 165.417938,66.482323 165.661224,69.633041 
	C165.341537,70.049110 165.021835,70.465179 164.702148,70.881241 
	C161.291824,59.188480 152.632965,63.502804 144.737564,62.726585 
	C144.737564,65.664558 144.737564,68.095078 144.737350,71.013268 
z"/>
<path fill="#5595CE" opacity="1.000000" stroke="none" 
	d="
M228.585327,102.557632 
	C227.761429,104.199570 227.114441,105.513931 225.859085,108.064140 
	C223.002304,100.488815 220.625244,93.895226 218.023636,87.391449 
	C216.358688,83.229240 214.362213,79.199638 212.562225,75.216446 
	C215.396927,75.216446 219.137161,75.216446 222.431030,75.216446 
	C219.646484,83.306297 226.211914,89.090317 227.332535,97.024521 
	C234.656342,86.022110 235.786957,80.828606 227.771408,75.249908 
	C232.497421,75.249908 236.842606,75.249908 241.187790,75.249908 
	C236.591919,76.684792 237.842468,79.684845 239.172333,82.786537 
	C241.123566,87.337463 242.991592,91.924065 245.405670,96.483612 
	C246.824036,89.291298 253.536316,83.343300 250.442719,75.067612 
	C252.429169,75.067612 255.079971,75.067612 256.625916,75.067612 
	C252.549316,85.490982 248.353729,96.218651 243.598145,108.378151 
	C240.605240,101.073463 238.108749,94.980377 235.111633,87.665398 
	C232.677353,93.249275 230.719772,97.739670 228.585327,102.557632 
z"/>
<path fill="#5797CF" opacity="1.000000" stroke="none" 
	d="
M63.603539,86.336365 
	C64.089523,83.719704 64.910477,81.009254 64.076897,78.977699 
	C63.568810,77.739418 60.382191,76.822182 58.645039,77.133850 
	C57.443855,77.349365 56.643391,79.897812 55.701138,81.426735 
	C54.894958,82.734863 54.272774,84.192848 53.268383,85.315392 
	C53.032192,85.579369 50.957821,84.931282 50.814331,84.406212 
	C50.407028,82.915764 50.075027,81.091103 50.584480,79.722237 
	C52.147434,75.522682 58.259495,73.209671 63.907288,74.344574 
	C69.062164,75.380432 70.948738,77.737961 71.013077,83.515854 
	C71.080963,89.611816 71.028297,95.709114 71.028297,102.358055 
	C73.270515,101.841003 74.575150,101.540161 77.472115,100.872124 
	C74.906731,103.217407 73.561226,104.796051 71.898560,105.894722 
	C68.465416,108.163292 66.357132,106.255768 64.933212,102.741676 
	C63.413139,103.765511 62.219059,104.587471 61.007374,105.382599 
	C57.275185,107.831726 53.058590,107.532326 50.597225,104.654968 
	C47.887581,101.487419 47.777912,96.002518 51.204613,93.379532 
	C54.836575,90.599419 59.197971,88.772240 63.603539,86.336365 
M55.008430,94.680481 
	C53.378754,98.121696 54.154690,101.572731 57.600632,102.359802 
	C59.802402,102.862701 64.136147,101.074234 64.899727,99.230400 
	C66.139130,96.237610 65.233719,92.356606 65.233719,87.296997 
	C61.201973,90.049065 58.288269,92.037964 55.008430,94.680481 
z"/>
<path fill="#5998D0" opacity="1.000000" stroke="none" 
	d="
M182.614105,88.593063 
	C185.021057,77.237740 192.918396,71.791046 201.872543,74.991531 
	C208.114899,77.222740 212.520706,84.909554 211.552139,91.879555 
	C210.301895,100.876625 205.183548,106.609764 197.828644,107.251488 
	C188.513199,108.064270 181.965683,100.257774 182.614105,88.593063 
M199.932144,104.685844 
	C201.387543,103.199257 203.627472,101.948952 204.158981,100.184120 
	C206.177856,93.480690 206.270233,86.581581 202.205185,80.593048 
	C200.889771,78.655212 197.523682,76.832687 195.364441,77.103180 
	C193.202148,77.374069 190.263565,79.992119 189.611923,82.165146 
	C187.707916,88.514366 187.992569,95.186043 191.917847,100.777939 
	C193.358109,102.829712 196.697876,103.548103 199.932144,104.685844 
z"/>
<path fill="#5696CF" opacity="1.000000" stroke="none" 
	d="
M123.445099,75.120163 
	C126.265083,75.001968 128.755707,75.001968 130.523285,75.001968 
	C127.042503,83.652611 123.519371,92.436867 119.972595,101.211563 
	C118.107582,105.825584 116.826767,110.845695 114.098434,114.882378 
	C112.210167,117.676117 108.431503,119.385101 105.183098,120.908119 
	C104.512230,121.222664 102.450249,118.570175 101.029419,117.285187 
	C102.603615,116.310364 104.252487,114.408157 105.738548,114.527809 
	C111.021683,114.953224 116.797218,109.695839 114.825348,104.649628 
	C111.214294,95.408592 106.447845,86.616035 102.064011,77.685135 
	C101.671707,76.885933 100.555206,76.442200 99.201660,75.385941 
	C104.096039,75.385941 108.416229,75.385941 111.831459,75.385941 
	C111.437431,76.849770 110.055099,79.028114 110.599686,80.487343 
	C112.668083,86.029709 115.359612,91.339531 118.293739,97.780197 
	C120.768150,91.376968 123.072876,86.124512 124.725716,80.674370 
	C125.183754,79.164024 123.705582,77.066490 123.445099,75.120163 
z"/>
<path fill="#5696CF" opacity="1.000000" stroke="none" 
	d="
M94.438141,90.624466 
	C98.399147,93.953087 99.264069,97.835129 97.203224,102.040268 
	C95.125656,106.279526 91.158554,107.571167 86.721214,107.259560 
	C83.949257,107.064903 81.209389,106.413261 78.183670,105.922684 
	C78.183670,102.896675 78.183670,99.493942 78.183670,95.536774 
	C79.934555,98.236038 81.088791,100.799866 82.936325,102.683792 
	C85.862801,105.667892 90.234413,105.657661 92.294434,103.165482 
	C94.429039,100.583069 93.221725,97.157730 89.159126,94.662521 
	C86.895905,93.272453 84.445770,92.184273 82.197990,90.772049 
	C77.953499,88.105309 76.605576,83.982178 78.387291,79.635033 
	C79.957603,75.803696 84.181885,73.603218 88.619179,74.271057 
	C90.965103,74.624130 93.319283,74.922432 95.877502,75.274017 
	C95.877502,78.054314 95.877502,81.177879 95.877502,84.301445 
	C95.668510,84.393425 95.459518,84.485413 95.250526,84.577393 
	C94.686203,83.367111 94.399971,81.862556 93.497696,81.009888 
	C91.796425,79.402145 89.893646,77.472656 87.781860,77.008293 
	C86.173401,76.654602 82.831390,78.053886 82.554504,79.218613 
	C82.143799,80.946236 83.199409,83.855103 84.636467,85.012108 
	C87.436104,87.266144 90.933182,88.653938 94.438141,90.624466 
z"/>
<path fill="#5998D0" opacity="1.000000" stroke="none" 
	d="
M177.715088,93.939346 
	C178.140640,98.509041 178.566330,102.590225 178.962067,106.384285 
	C176.492630,106.384285 172.694443,106.384285 169.552979,106.384285 
	C170.380814,103.452354 171.776855,100.663498 171.856323,97.837601 
	C172.136810,87.863785 172.106049,77.873848 171.861252,67.898170 
	C171.805023,65.607719 170.424957,63.349754 169.469086,60.531162 
	C171.026596,59.883286 173.718582,58.763504 177.715195,57.101044 
	C177.715195,69.788315 177.715195,81.619576 177.715088,93.939346 
z"/>
<path fill="#4C494A" opacity="1.000000" stroke="none" 
	d="
M430.120087,100.319351 
	C430.120087,102.584976 430.120087,104.850594 430.120087,107.116219 
	C429.740479,107.134598 429.360901,107.152977 428.981293,107.171356 
	C428.981293,102.302483 428.981293,97.433609 428.981293,92.564728 
	C429.288727,92.287903 429.596161,92.011070 429.903595,91.734245 
	C430.884064,93.261452 432.083099,94.694710 432.790100,96.339462 
	C433.689087,98.430946 434.189331,100.693810 435.005005,103.349968 
	C438.216003,99.796471 436.607819,94.023613 441.957764,91.438477 
	C441.957764,97.286354 441.957764,102.291054 441.957764,107.295753 
	C441.583008,107.340157 441.208221,107.384567 440.833466,107.428978 
	C440.553986,104.745781 440.274536,102.062584 439.885773,98.329796 
	C438.352417,102.065895 437.155426,104.982353 435.958466,107.898819 
	C435.502472,107.888344 435.046509,107.877876 434.590546,107.867401 
	C433.738556,105.488213 432.886566,103.109032 432.028748,99.991440 
	C431.621918,98.108704 431.220917,96.964371 430.819916,95.820030 
	C430.586639,95.911629 430.353363,96.003220 430.120087,96.094810 
	C430.120087,97.502991 430.120087,98.911171 430.120087,100.319351 
z"/>
<path fill="#474445" opacity="1.000000" stroke="none" 
	d="
M267.087830,107.677368 
	C265.792786,106.798111 264.324005,106.010712 264.176331,105.025337 
	C263.812836,102.599754 264.056549,100.083160 264.056244,97.603165 
	C264.056061,95.978836 264.056213,94.354515 264.056213,91.323288 
	C267.821320,92.301849 272.462677,92.167961 273.689148,94.148628 
	C275.424042,96.950371 275.358612,101.477303 274.573944,104.928360 
	C274.260071,106.308899 269.986450,106.789124 267.087830,107.677368 
M273.290161,103.243134 
	C271.246216,102.084503 269.202301,100.925873 266.403931,99.339584 
	C266.403931,102.567230 266.403931,104.100273 266.403931,106.628334 
	C269.041565,105.623772 271.049377,104.859077 273.290161,103.243134 
M270.941559,94.128342 
	C269.376343,94.128342 267.811127,94.128342 266.176086,94.128342 
	C266.120789,95.230057 266.009186,95.873436 266.077728,96.497017 
	C266.160004,97.245689 266.395721,97.977501 266.550293,98.652168 
	C272.982574,98.795105 273.460205,98.378548 270.941559,94.128342 
z"/>
<path fill="#373334" opacity="1.000000" stroke="none" 
	d="
M324.975433,98.948212 
	C328.963745,100.990570 332.908295,103.127007 336.967712,105.016632 
	C338.149872,105.566902 339.660065,105.412445 341.162659,104.664841 
	C338.862549,102.977135 336.562408,101.289429 334.262299,99.601723 
	C334.532501,99.252548 334.802704,98.903381 335.072906,98.554207 
	C336.433075,99.297821 337.881012,99.919258 339.130341,100.817078 
	C340.577393,101.857018 342.031616,103.007820 343.057648,104.419449 
	C343.286072,104.733734 341.766571,107.161652 341.007233,107.185349 
	C339.079895,107.245491 337.104858,106.569885 335.203033,106.006371 
	C334.806610,105.888908 334.643250,104.984711 334.320587,104.339279 
	C329.979004,109.092018 327.478271,109.100456 324.873474,104.581879 
	C326.824768,104.985222 328.820984,105.397850 330.817169,105.810478 
	C330.977570,105.309097 331.137970,104.807716 331.298370,104.306335 
	C329.377441,103.323669 327.456482,102.340996 325.345398,100.789749 
	C325.095306,99.796860 325.035370,99.372536 324.975433,98.948212 
z"/>
<path fill="#4E4B4C" opacity="1.000000" stroke="none" 
	d="
M324.737000,99.331985 
	C325.035370,99.372536 325.095306,99.796860 325.130798,100.435211 
	C322.014252,101.643120 318.922150,102.636986 315.710419,103.669296 
	C317.423676,107.739159 320.119019,105.289986 322.719940,103.495941 
	C322.884216,104.110687 323.048492,104.725441 323.212738,105.340195 
	C321.482727,106.206894 319.517853,108.044678 318.081482,107.697266 
	C316.239014,107.251633 314.071167,105.309944 313.449677,103.523590 
	C312.917511,101.994011 314.452057,98.106209 314.925751,98.130447 
	C318.126526,98.294235 321.787689,96.647141 324.737000,99.331985 
z"/>
<path fill="#474445" opacity="1.000000" stroke="none" 
	d="
M521.209839,102.681465 
	C519.985291,102.756523 519.176331,102.831215 518.053894,102.934860 
	C519.894958,107.880257 522.787659,105.105110 526.382996,103.398201 
	C524.678833,107.371933 522.217712,108.933266 519.930664,107.560425 
	C518.007019,106.405731 517.104736,103.394424 516.088745,101.057846 
	C515.944153,100.725304 518.063354,98.724075 518.536377,98.922424 
	C520.960938,99.939095 525.915161,95.287407 526.025696,102.368965 
	C524.444763,102.481110 523.035156,102.581108 521.209839,102.681465 
z"/>
<path fill="#474445" opacity="1.000000" stroke="none" 
	d="
M398.305542,98.235901 
	C399.586914,99.281334 400.565613,100.390259 402.331329,102.390915 
	C398.300140,102.602089 395.868286,102.729477 393.362579,102.860741 
	C395.231110,106.540680 395.231110,106.540680 400.297699,104.297905 
	C398.911407,107.802406 396.790894,108.832016 393.880493,107.340775 
	C390.543579,105.631020 389.992676,102.323029 391.461395,99.752647 
	C392.206757,98.448196 395.733551,98.733047 398.305542,98.235901 
z"/>
<path fill="#373334" opacity="1.000000" stroke="none" 
	d="
M508.192749,100.126755 
	C508.075104,102.844337 508.075104,105.111809 508.075104,107.379272 
	C507.543579,107.424210 507.012054,107.469139 506.480530,107.514076 
	C506.189880,104.510780 505.899231,101.507484 505.549255,97.891022 
	C499.402100,99.187500 503.584778,104.827644 500.560242,107.852516 
	C500.560242,103.834412 500.560242,100.337952 500.560242,97.182579 
	C503.660522,96.895432 506.940460,96.305984 510.193695,96.427948 
	C511.534912,96.478226 513.710205,97.865494 513.949829,98.979454 
	C514.510071,101.583557 514.128784,104.390205 514.128784,107.114830 
	C513.667664,107.141640 513.206604,107.168449 512.745483,107.195251 
	C512.622559,105.050400 512.625488,102.889084 512.347778,100.764450 
	C511.904388,97.371994 510.417694,97.217667 508.192749,100.126755 
z"/>
<path fill="#3D3A3B" opacity="1.000000" stroke="none" 
	d="
M482.978149,96.997559 
	C483.907196,96.835205 484.836243,96.672844 485.615234,96.536705 
	C485.615234,101.249756 485.615234,105.664177 485.615234,110.078606 
	C485.211548,110.105324 484.807861,110.132050 484.404205,110.158768 
	C484.245453,109.316780 484.086700,108.474785 484.050537,108.282944 
	C481.378510,107.014023 478.929199,105.850861 476.479889,104.687698 
	C476.687042,104.280640 476.894165,103.873589 477.101288,103.466530 
	C479.129608,103.967918 481.157898,104.469315 483.186188,104.970703 
	C483.377289,103.110886 483.568390,101.251060 483.334900,98.861275 
	C482.932922,97.886726 482.955536,97.442146 482.978149,96.997559 
z"/>
<path fill="#B8B8B8" opacity="1.000000" stroke="none" 
	d="
M423.230591,84.315025 
	C421.461639,86.801270 419.012421,88.008896 417.442841,85.542816 
	C416.343201,83.815048 417.122772,80.891235 417.063080,78.501579 
	C419.740295,78.729919 422.417480,78.958252 425.357941,79.209038 
	C424.349792,81.644440 423.862701,82.821106 423.230591,84.315025 
z"/>
<path fill="#B8B8B8" opacity="1.000000" stroke="none" 
	d="
M313.415588,80.685913 
	C316.211182,73.656479 319.024323,79.059578 323.261658,81.131813 
	C320.370605,83.239510 318.051910,84.929901 315.733276,86.620285 
	C315.008270,84.748444 314.283264,82.876617 313.415588,80.685913 
z"/>
<path fill="#BCBCBC" opacity="1.000000" stroke="none" 
	d="
M274.030701,81.234375 
	C275.755096,79.767967 277.454926,78.686035 279.154785,77.604095 
	C280.075989,79.489220 281.596405,81.346954 281.684357,83.270180 
	C281.733795,84.351768 279.476837,86.416046 278.156250,86.504463 
	C275.206085,86.701973 273.836853,84.586189 274.030701,81.234375 
z"/>
<path fill="#373334" opacity="1.000000" stroke="none" 
	d="
M496.734131,104.145065 
	C497.615753,107.997780 494.274902,108.338409 492.560028,107.608665 
	C490.622650,106.784233 489.249298,104.246971 488.165894,102.174759 
	C487.979736,101.818710 490.351929,99.344589 491.743073,99.125946 
	C493.873047,98.791176 497.107117,97.007126 498.012848,101.619560 
	C495.370636,101.983376 492.737244,102.345985 489.370026,102.809631 
	C492.040802,106.712296 494.121063,106.482025 496.734131,104.145065 
z"/>
<path fill="#282627" opacity="1.000000" stroke="none" 
	d="
M450.064148,96.989014 
	C451.663513,98.176163 453.441803,99.184372 453.857849,100.594521 
	C454.439392,102.565453 454.004547,104.836250 454.004547,107.750099 
	C450.857849,106.276840 448.203217,105.033958 445.580597,103.806061 
	C447.141754,102.833420 449.459167,101.389626 453.189758,99.065407 
	C449.824219,98.697891 447.664124,98.462013 444.259216,98.090195 
	C446.727081,97.584885 448.181183,97.287140 450.064148,96.989014 
z"/>
<path fill="#282627" opacity="1.000000" stroke="none" 
	d="
M476.153076,100.012337 
	C476.153076,102.312302 476.153076,104.612274 476.153076,107.766830 
	C472.915375,106.261734 470.298065,105.045036 467.644318,103.811394 
	C469.153351,102.836441 471.360016,101.410774 474.849487,99.156303 
	C471.767059,98.802071 469.536835,98.545769 467.306610,98.289474 
	C467.303802,98.014069 467.300995,97.738663 467.298187,97.463257 
	C469.917938,97.463257 472.537720,97.463257 475.370087,98.142181 
	C475.772797,99.218178 475.962952,99.615257 476.153076,100.012337 
z"/>
<path fill="#BCBCBC" opacity="1.000000" stroke="none" 
	d="
M343.010315,86.001740 
	C342.116364,85.237694 341.424194,84.716537 341.034912,84.024910 
	C339.272980,80.894661 339.464203,77.624878 342.367920,75.647209 
	C343.833313,74.649132 347.622620,74.561989 348.381012,75.563072 
	C349.827576,77.472519 350.724060,80.629944 350.261719,82.953445 
	C349.618164,86.187210 346.862183,87.662781 343.010315,86.001740 
M342.023132,80.508102 
	C343.240936,81.966721 344.458740,83.425339 345.676514,84.883972 
	C346.770386,83.634880 348.708252,82.409698 348.744476,81.130638 
	C348.789795,79.531731 347.271149,77.888527 346.427673,76.264435 
	C344.966644,77.416794 343.505646,78.569153 342.023132,80.508102 
z"/>
<path fill="#3D3A3B" opacity="1.000000" stroke="none" 
	d="
M373.490601,107.595566 
	C372.840240,107.284653 372.510162,107.181038 372.261719,106.977707 
	C369.355621,104.599365 368.978729,101.399017 370.960236,98.683678 
	C371.975067,97.292969 375.600891,96.048607 376.553528,96.754150 
	C378.294952,98.043877 379.740662,100.796196 379.835846,103.002121 
	C379.987701,106.521439 377.412415,108.120995 373.490601,107.595566 
M372.543152,99.283241 
	C373.018982,101.447128 373.494781,103.611015 373.970612,105.774902 
	C375.228394,105.251472 377.196075,105.029808 377.577026,104.133667 
	C378.143494,102.801033 378.108917,100.636711 377.336517,99.503693 
	C376.775757,98.681084 374.606934,98.954643 372.543152,99.283241 
z"/>
<path fill="#434142" opacity="1.000000" stroke="none" 
	d="
M383.710876,96.711197 
	C388.167664,96.225327 388.167664,96.225327 389.301788,99.224709 
	C387.504517,99.224709 385.558105,99.224709 383.611694,99.224709 
	C383.638062,101.106339 383.664459,102.987968 383.690857,104.869598 
	C385.631592,104.780777 387.572357,104.691948 390.595856,104.553558 
	C388.990204,105.774933 387.576965,107.700455 386.196198,107.677467 
	C384.594421,107.650810 381.740662,105.975861 381.688446,104.906158 
	C381.559418,102.263054 382.719757,99.556992 383.710876,96.711197 
z"/>
<path fill="#4C494A" opacity="1.000000" stroke="none" 
	d="
M465.088013,105.443695 
	C464.447388,106.103386 463.810669,106.342590 463.173950,106.581802 
	C463.127106,104.769318 463.294464,102.915245 462.953735,101.159798 
	C462.746490,100.091965 461.755219,99.176308 461.116089,98.192291 
	C460.115967,99.088615 458.532959,99.828316 458.240997,100.914909 
	C457.687317,102.975540 457.873627,105.234985 457.392761,107.379044 
	C457.392761,104.232574 457.392761,101.086098 457.392761,97.881836 
	C463.960815,94.414513 465.094086,95.443260 465.088013,105.443695 
z"/>
<path fill="#434142" opacity="1.000000" stroke="none" 
	d="
M416.073700,102.894257 
	C414.751404,101.241516 413.771667,99.681587 412.791931,98.121674 
	C414.503998,97.515320 416.185608,96.639999 417.943756,96.440979 
	C418.604980,96.366135 419.443787,97.859970 420.201599,98.638672 
	C419.428864,99.192589 418.656158,99.746498 418.166779,100.097282 
	C419.234741,101.660164 420.304230,103.225334 421.373749,104.790497 
	C421.058197,104.992920 420.742676,105.195343 420.427155,105.397766 
	C419.090179,104.594208 417.753204,103.790642 416.073700,102.894257 
M417.717865,99.799385 
	C417.151825,99.258865 416.585785,98.718338 416.019745,98.177826 
	C415.676117,98.600914 415.332520,99.024002 414.988892,99.447090 
	C415.634766,99.800941 416.280609,100.154793 417.717865,99.799385 
z"/>
<path fill="#B5B5B5" opacity="1.000000" stroke="none" 
	d="
M380.603516,79.539055 
	C382.000580,78.784737 383.639740,78.260818 385.278931,77.736908 
	C386.056305,80.211304 386.833679,82.685699 388.125397,86.797287 
	C384.340179,86.029915 382.224945,85.601097 380.109741,85.172279 
	C381.290527,83.318794 382.471313,81.465317 383.791931,79.392357 
	C383.270050,79.459152 382.057861,79.614304 380.603516,79.539055 
z"/>
<path fill="#373334" opacity="1.000000" stroke="none" 
	d="
M359.081970,99.965675 
	C357.188690,100.594017 355.295441,101.222359 353.207458,101.915321 
	C352.963104,103.533562 352.669800,105.476112 352.376495,107.418663 
	C352.028534,107.374992 351.680603,107.331314 351.332642,107.287643 
	C351.332642,102.460236 351.332642,97.632820 351.332642,92.065414 
	C353.927338,92.232742 356.635101,92.407364 359.644318,93.083496 
	C359.628174,93.809692 359.310638,94.034393 358.993073,94.259094 
	C356.857330,94.259094 354.721558,94.259094 352.591492,94.259094 
	C351.699707,99.932480 351.699707,99.932480 358.591003,99.971725 
	C359.009308,99.991295 359.081970,99.965675 359.081970,99.965675 
z"/>
<path fill="#4E4B4C" opacity="1.000000" stroke="none" 
	d="
M307.197693,96.166367 
	C312.104614,97.645912 313.198761,101.801796 310.000488,108.670288 
	C309.837311,105.130470 310.364960,102.432587 309.414124,100.440353 
	C308.657990,98.856064 306.094757,98.134224 304.360992,97.046532 
	C304.426453,96.808891 304.463074,96.675858 304.499725,96.542824 
	C304.651550,96.610435 304.819916,96.758995 304.952393,96.731918 
	C305.586700,96.602280 306.211304,96.425087 307.197693,96.166367 
z"/>
<path fill="#4E4B4C" opacity="1.000000" stroke="none" 
	d="
M529.681274,97.779755 
	C533.940186,94.966675 536.375854,95.933083 536.656677,100.548660 
	C536.797729,102.866058 536.464722,105.212303 536.289673,108.655167 
	C533.133118,104.657951 537.634094,97.575668 529.681274,97.779755 
z"/>
<path fill="#B5B5B5" opacity="1.000000" stroke="none" 
	d="
M394.958832,78.956726 
	C393.530945,79.187843 392.103027,79.418953 390.024384,79.755402 
	C391.525787,80.523781 392.873718,80.835144 393.580750,81.681740 
	C394.289490,82.530418 394.986633,84.510994 394.579224,84.938942 
	C393.696869,85.865616 392.131653,86.309143 390.783508,86.492188 
	C390.494141,86.531464 389.888153,84.647980 389.531219,83.614586 
	C389.340942,83.063683 389.303558,82.435104 389.316071,81.844116 
	C389.343140,80.561287 389.446594,79.280060 389.518829,77.998184 
	C391.130646,78.254097 392.742493,78.510010 394.661682,78.877335 
	C394.969055,78.988754 394.958832,78.956726 394.958832,78.956726 
z"/>
<path fill="#4E4B4C" opacity="1.000000" stroke="none" 
	d="
M277.331207,97.923569 
	C279.233459,97.404884 279.238464,97.404755 279.307007,100.111786 
	C279.387024,103.270828 278.393250,107.238022 285.442352,105.273552 
	C279.778046,108.916832 277.654938,107.995392 277.319672,103.285553 
	C277.202057,101.633118 277.300690,99.965302 277.331207,97.923569 
z"/>
<path fill="#434142" opacity="1.000000" stroke="none" 
	d="
M539.284912,106.200287 
	C539.153687,101.628952 539.153687,97.449104 539.153687,93.269264 
	C541.785950,96.502792 541.464233,96.478012 541.207275,99.814598 
	C541.016357,102.293663 541.797607,104.847603 542.225159,107.942123 
	C541.411194,107.550835 540.413635,107.071304 539.284912,106.200287 
z"/>
<path fill="#373334" opacity="1.000000" stroke="none" 
	d="
M290.686340,102.482407 
	C289.569427,101.771683 288.817261,101.229713 288.065063,100.687744 
	C288.292847,100.253220 288.520630,99.818695 288.748413,99.384178 
	C291.272461,100.694336 293.828827,101.953072 296.228333,103.461372 
	C296.352753,103.539589 295.220886,106.725716 294.531494,106.784119 
	C292.343079,106.969521 290.087128,106.358276 287.857300,106.054970 
	C287.925995,105.620583 287.994690,105.186203 288.063385,104.751816 
	C290.090302,105.131783 292.117218,105.511757 294.144104,105.891724 
	C294.303436,105.339951 294.462769,104.788177 294.622101,104.236404 
	C293.431732,103.707993 292.241394,103.179573 290.686340,102.482407 
z"/>
<path fill="#B7B7B7" opacity="1.000000" stroke="none" 
	d="
M357.219421,79.471954 
	C357.845306,79.114014 358.882721,79.126053 358.885132,79.182159 
	C358.968750,81.145844 358.954926,83.113663 358.954926,86.022957 
	C357.001404,85.919472 354.024536,86.494690 353.458527,85.579269 
	C352.278656,83.671051 352.373535,80.974632 351.944641,78.602074 
	C352.434540,78.501129 352.924438,78.400185 353.414337,78.299240 
	C353.946533,80.496506 354.478760,82.693764 355.010956,84.891022 
	C355.544983,84.848572 356.078979,84.806129 356.613007,84.763680 
	C356.791443,83.129951 356.969879,81.496223 357.219421,79.471954 
z"/>
<path fill="#B0B0B0" opacity="1.000000" stroke="none" 
	d="
M394.981018,78.997971 
	C396.326569,79.581299 397.660126,80.155426 399.535675,80.962883 
	C399.765198,80.641426 400.589539,79.486961 401.413879,78.332489 
	C401.775482,78.505913 402.137054,78.679337 402.498627,78.852760 
	C401.154999,82.353012 399.811371,85.853256 398.357727,89.640068 
	C397.250519,85.548981 396.412079,82.450989 395.266235,79.154861 
	C394.958832,78.956726 394.969055,78.988754 394.981018,78.997971 
z"/>
<path fill="#B7B7B7" opacity="1.000000" stroke="none" 
	d="
M286.085754,84.721313 
	C287.257874,82.704880 288.039246,80.595268 288.820648,78.485649 
	C289.079254,78.449188 289.337891,78.412720 289.596527,78.376259 
	C289.757843,80.614738 289.919128,82.853218 290.153290,86.102501 
	C287.839020,85.926773 284.860077,86.446609 284.280334,85.498856 
	C283.127808,83.614677 283.296021,80.922592 282.918518,78.564316 
	C283.405426,78.493683 283.892334,78.423042 284.379242,78.352409 
	C284.817841,80.444313 285.256439,82.536224 286.085754,84.721313 
z"/>
<path fill="#B5B5B5" opacity="1.000000" stroke="none" 
	d="
M370.018768,81.108894 
	C370.018311,79.039948 370.018311,77.415024 370.018311,75.790092 
	C370.530151,75.743683 371.041992,75.697273 371.553833,75.650864 
	C371.790192,78.468758 372.026520,81.286652 372.297821,84.521133 
	C374.084320,84.742989 375.951447,84.974854 377.818573,85.206718 
	C377.828857,85.382576 377.839111,85.558441 377.849396,85.734299 
	C375.504791,85.734299 373.160187,85.734299 370.355438,85.734299 
	C370.247559,84.392700 370.133392,82.972801 370.018768,81.108894 
z"/>
<path fill="#B5B5B5" opacity="1.000000" stroke="none" 
	d="
M270.966492,83.850204 
	C270.336456,84.341728 269.199829,84.593925 269.183838,84.536156 
	C268.543396,82.220703 268.004364,79.877190 267.534210,77.884377 
	C269.089294,77.884377 270.847687,77.884377 272.547852,77.884377 
	C272.103699,79.468239 271.543121,81.467278 270.966492,83.850204 
z"/>
<path fill="#F0F0F0" opacity="1.000000" stroke="none" 
	d="
M476.544250,100.014526 
	C475.962952,99.615257 475.772797,99.218178 475.518921,98.495819 
	C477.725342,97.777054 479.995483,97.383568 482.621887,96.993820 
	C482.955536,97.442146 482.932922,97.886726 482.966919,98.660919 
	C480.994171,99.332588 478.964783,99.674652 476.544250,100.014526 
z"/>
<path fill="#555253" opacity="1.000000" stroke="none" 
	d="
M430.329285,99.931152 
	C430.120087,98.911171 430.120087,97.502991 430.120087,96.094810 
	C430.353363,96.003220 430.586639,95.911629 430.819916,95.820030 
	C431.220917,96.964371 431.621918,98.108704 432.017517,99.610291 
	C431.520935,99.826012 431.029694,99.684479 430.329285,99.931152 
z"/>
<path fill="#F8F8F8" opacity="1.000000" stroke="none" 
	d="
M359.051941,94.550087 
	C359.310638,94.034393 359.628174,93.809692 359.995667,93.291794 
	C360.500885,93.623589 360.956177,94.248581 361.411469,94.873566 
	C360.644592,94.862740 359.877716,94.851913 359.051941,94.550087 
z"/>
<path fill="#F8F8F8" opacity="1.000000" stroke="none" 
	d="
M359.022186,99.954971 
	C359.574158,99.323692 360.113281,98.728737 360.652405,98.133774 
	C360.953033,98.418083 361.253693,98.702393 361.554321,98.986694 
	C360.956818,99.323402 360.359344,99.660103 359.421906,99.981239 
	C359.081970,99.965675 359.009308,99.991295 359.022186,99.954971 
z"/>
<path fill="#B5B5B5" opacity="1.000000" stroke="none" 
	d="
M273.396423,75.420151 
	C273.641144,75.395958 273.724670,75.510956 273.808197,75.625946 
	C273.617218,75.603729 273.426239,75.581528 273.396423,75.420151 
z"/>
<path fill="#B5B5B5" opacity="1.000000" stroke="none" 
	d="
M266.609375,75.744720 
	C266.364838,75.785927 266.273132,75.676270 266.181396,75.566620 
	C266.375000,75.575699 266.568573,75.584778 266.609375,75.744720 
z"/>
<path fill="#F3F7FB" opacity="1.000000" stroke="none" 
	d="
M55.191498,94.353668 
	C58.288269,92.037964 61.201973,90.049065 65.233719,87.296997 
	C65.233719,92.356606 66.139130,96.237610 64.899727,99.230400 
	C64.136147,101.074234 59.802402,102.862701 57.600632,102.359802 
	C54.154690,101.572731 53.378754,98.121696 55.191498,94.353668 
z"/>
<path fill="#FCFDFE" opacity="1.000000" stroke="none" 
	d="
M199.551666,104.780289 
	C196.697876,103.548103 193.358109,102.829712 191.917847,100.777939 
	C187.992569,95.186043 187.707916,88.514366 189.611923,82.165146 
	C190.263565,79.992119 193.202148,77.374069 195.364441,77.103180 
	C197.523682,76.832687 200.889771,78.655212 202.205185,80.593048 
	C206.270233,86.581581 206.177856,93.480690 204.158981,100.184120 
	C203.627472,101.948952 201.387543,103.199257 199.551666,104.780289 
z"/>
<path fill="#F0F0F0" opacity="1.000000" stroke="none" 
	d="
M273.173706,103.668755 
	C271.049377,104.859077 269.041565,105.623772 266.403931,106.628334 
	C266.403931,104.100273 266.403931,102.567230 266.403931,99.339584 
	C269.202301,100.925873 271.246216,102.084503 273.173706,103.668755 
z"/>
<path fill="#F0F0F0" opacity="1.000000" stroke="none" 
	d="
M271.332886,94.257874 
	C273.460205,98.378548 272.982574,98.795105 266.550293,98.652168 
	C266.395721,97.977501 266.160004,97.245689 266.077728,96.497017 
	C266.009186,95.873436 266.120789,95.230057 266.176086,94.128342 
	C267.811127,94.128342 269.376343,94.128342 271.332886,94.257874 
z"/>
<path fill="#FEFEFE" opacity="1.000000" stroke="none" 
	d="
M342.033875,80.114807 
	C343.505646,78.569153 344.966644,77.416794 346.427673,76.264435 
	C347.271149,77.888527 348.789795,79.531731 348.744476,81.130638 
	C348.708252,82.409698 346.770386,83.634880 345.676514,84.883965 
	C344.458740,83.425339 343.240936,81.966721 342.033875,80.114807 
z"/>
<path fill="#F0F0F0" opacity="1.000000" stroke="none" 
	d="
M372.849152,99.011337 
	C374.606934,98.954643 376.775757,98.681084 377.336517,99.503693 
	C378.108917,100.636711 378.143494,102.801033 377.577026,104.133667 
	C377.196075,105.029808 375.228394,105.251472 373.970581,105.774902 
	C373.494781,103.611015 373.018982,101.447128 372.849152,99.011337 
z"/>
<path fill="#FEFEFE" opacity="1.000000" stroke="none" 
	d="
M417.322174,100.154022 
	C416.280609,100.154793 415.634766,99.800941 414.988892,99.447090 
	C415.332520,99.024002 415.676117,98.600914 416.019745,98.177826 
	C416.585785,98.718338 417.151825,99.258865 417.322174,100.154022 
z"/>
</svg>