<svg version="1.1" id="Layer_1" xmlns="http://www.w3.org/2000/svg" xmlns:xlink="http://www.w3.org/1999/xlink" x="0px" y="0px"
	 width="100%" viewBox="0 0 71 110" enable-background="new 0 0 71 110" xml:space="preserve">
<path fill="#FFFFFF" opacity="1.000000" stroke="none" 
	d="
M27.000008,111.000000 
	C18.000011,111.000000 9.500011,111.000000 1.000009,111.000000 
	C1.000006,74.333336 1.000006,37.666676 1.000003,1.000009 
	C24.666662,1.000006 48.333324,1.000006 71.999985,1.000003 
	C71.999992,37.666660 71.999992,74.333321 72.000000,110.999992 
	C57.166668,111.000000 42.333336,111.000000 27.000008,111.000000 
M22.294111,66.681221 
	C22.590141,67.064186 22.886171,67.447159 23.136940,68.554161 
	C26.839754,77.717506 36.407436,81.757721 47.268814,78.744507 
	C54.934155,76.617950 61.457634,66.407547 59.814526,58.369377 
	C58.515923,52.016552 56.661243,45.716846 48.374310,43.593964 
	C45.944641,43.076229 43.514973,42.558495 40.221428,42.002346 
	C38.775253,42.024933 37.329075,42.047520 35.133671,42.030647 
	C25.514929,42.828171 18.543467,56.701096 22.145666,65.511726 
	C22.188169,65.726593 22.230671,65.941452 22.294111,66.681221 
z"/>
<path fill="#D9DDF3" opacity="1.000000" stroke="none" 
	d="
M48.994781,43.988007 
	C56.661243,45.716846 58.515923,52.016552 59.814526,58.369377 
	C61.457634,66.407547 54.934155,76.617950 47.268814,78.744507 
	C36.407436,81.757721 26.839754,77.717506 23.445995,68.233566 
	C24.140778,67.971001 24.526508,68.029030 24.976299,68.395309 
	C25.676804,69.155792 26.313248,69.608017 27.044750,70.286514 
	C27.336174,70.797691 27.603540,70.976379 27.985001,71.402023 
	C31.013449,73.156517 33.998806,74.557838 37.190151,76.228195 
	C38.594330,76.339714 39.792522,76.182198 41.367184,76.032974 
	C42.496681,76.031891 43.249706,76.022522 44.171768,76.238113 
	C44.904293,75.999290 45.467781,75.535492 46.327385,74.924118 
	C47.419552,73.852112 48.215599,72.927673 49.005791,72.001205 
	C48.999939,71.999161 48.999889,72.010742 49.272907,71.918259 
	C49.814682,71.547989 50.083439,71.270203 50.485962,70.915375 
	C50.786579,70.709267 50.910915,70.547508 51.218578,70.168861 
	C51.633026,69.656693 51.821636,69.328735 52.004787,69.000435 
	C51.999329,69.000084 52.004181,69.011169 52.331730,69.001503 
	C53.464954,68.005508 54.270630,67.019173 55.359840,65.989410 
	C55.768204,65.298485 55.893028,64.650978 56.021996,63.628113 
	C56.013752,62.502201 56.001362,61.751659 56.253410,60.793617 
	C56.343948,59.390671 56.170055,58.195217 56.002396,56.609200 
	C54.665062,53.817955 53.321495,51.417271 51.988289,49.008121 
	C51.998653,48.999657 51.987923,49.018177 51.871773,48.729057 
	C51.375885,48.290466 50.996143,48.140995 50.482536,47.918762 
	C50.180500,47.718830 50.065094,47.554596 50.021641,46.988998 
	C49.692150,45.745800 49.343464,44.866901 48.994781,43.988007 
z"/>
<path fill="#EEF0F8" opacity="1.000000" stroke="none" 
	d="
M50.002445,47.353302 
	C50.065094,47.554596 50.180500,47.718830 50.679970,48.139748 
	C51.336823,48.628391 51.662373,48.823284 51.987923,49.018177 
	C51.987923,49.018177 51.998653,48.999657 51.961548,49.340286 
	C51.970814,50.122643 52.017185,50.564373 51.757507,51.028313 
	C50.980347,51.383625 50.509232,51.716724 49.657516,52.032948 
	C48.515003,52.019127 47.753101,52.022182 46.839596,51.718109 
	C45.707603,50.977261 44.727215,50.543541 43.438683,49.924606 
	C39.562851,46.732567 36.502975,47.518330 33.450890,50.985840 
	C31.680857,50.259857 30.262451,49.536423 28.910084,48.471268 
	C31.278379,46.109734 33.580639,44.089920 35.882900,42.070107 
	C37.329075,42.047520 38.775253,42.024933 40.771774,42.343239 
	C44.215561,44.240524 47.109001,45.796913 50.002445,47.353302 
z"/>
<path fill="#B0BACE" opacity="1.000000" stroke="none" 
	d="
M35.508286,42.050377 
	C33.580639,44.089920 31.278379,46.109734 28.564575,48.582321 
	C27.761080,50.360065 27.369127,51.685040 26.970024,53.326054 
	C26.948900,54.063278 26.934929,54.484463 26.562466,55.001343 
	C25.471624,56.801487 24.219614,58.479015 24.129585,60.216747 
	C23.996910,62.777664 24.692141,65.381470 25.004021,67.996918 
	C24.973293,68.026825 24.912239,68.087051 24.912239,68.087051 
	C24.526508,68.029030 24.140778,67.971001 23.468624,67.871552 
	C22.886171,67.447159 22.590141,67.064186 22.420788,66.275764 
	C22.436590,65.532967 22.325714,65.195633 22.214838,64.858292 
	C18.543467,56.701096 25.514929,42.828171 35.508286,42.050377 
z"/>
<path fill="#AFB9CC" opacity="1.000000" stroke="none" 
	d="
M50.021641,46.988998 
	C47.109001,45.796913 44.215561,44.240524 41.203712,42.362450 
	C43.514973,42.558495 45.944641,43.076229 48.684547,43.790985 
	C49.343464,44.866901 49.692150,45.745800 50.021641,46.988998 
z"/>
<path fill="#D9DDF3" opacity="1.000000" stroke="none" 
	d="
M22.180252,65.185013 
	C22.325714,65.195633 22.436590,65.532967 22.410318,66.013313 
	C22.230671,65.941452 22.188169,65.726593 22.180252,65.185013 
z"/>
<path fill="#D8DDEA" opacity="1.000000" stroke="none" 
	d="
M26.920958,54.905647 
	C26.934929,54.484463 26.948900,54.063278 27.371233,53.330879 
	C29.881666,53.337982 31.983738,53.656300 34.292572,54.018127 
	C34.499336,54.061642 34.902393,54.188618 34.941456,54.485847 
	C35.315029,55.242779 35.649540,55.702484 35.997353,56.280266 
	C36.010654,56.398338 36.039864,56.634182 35.925850,56.989548 
	C36.170059,57.936161 36.528282,58.527405 36.928055,59.357426 
	C36.969604,59.596203 37.007183,60.079468 36.622654,59.977749 
	C31.592754,60.317402 31.900442,63.709808 32.092957,67.198135 
	C32.351280,67.689949 32.585648,67.889465 33.108643,68.057281 
	C33.333168,68.100876 33.784653,68.174484 33.958782,68.404793 
	C34.423115,68.886917 34.713322,69.138741 35.131111,69.736923 
	C38.961819,71.018066 42.725651,72.635719 46.158104,68.836731 
	C46.645817,68.034035 47.009007,67.519989 47.660385,66.931625 
	C47.726208,65.902344 47.503845,64.947372 47.183533,63.707161 
	C47.016827,63.028450 46.948078,62.634972 46.882629,61.846840 
	C46.921017,58.309872 46.956108,55.167553 46.991196,52.025238 
	C47.753101,52.022182 48.515003,52.019127 49.862148,52.284695 
	C51.296452,52.702339 52.145512,52.851357 53.228920,53.168369 
	C53.606133,53.879833 53.749004,54.423309 53.562458,55.035164 
	C53.496674,57.081348 53.760307,59.059155 54.017807,61.422302 
	C53.342514,64.208817 52.673351,66.609993 52.004181,69.011169 
	C52.004181,69.011169 51.999329,69.000084 51.736938,69.133926 
	C51.313950,69.629539 51.153343,69.991302 50.992737,70.353073 
	C50.910915,70.547508 50.786579,70.709267 50.185631,70.981003 
	C49.500988,71.419350 49.250439,71.715050 48.999889,72.010742 
	C48.999889,72.010742 48.999939,71.999161 48.634506,72.024460 
	C45.872036,72.718185 43.474995,73.386597 40.663773,74.035210 
	C39.145485,74.024796 38.041386,74.034187 36.565231,74.034698 
	C34.458218,73.356056 32.723248,72.686295 30.988091,71.636261 
	C29.632254,65.805878 28.276606,60.355762 26.920958,54.905647 
z"/>
<path fill="#CDD3E3" opacity="1.000000" stroke="none" 
	d="
M54.023941,61.036957 
	C53.760307,59.059155 53.496674,57.081348 53.640171,55.356514 
	C54.696922,56.072914 55.346542,56.536343 55.996162,56.999767 
	C56.170055,58.195217 56.343948,59.390671 55.925858,60.798225 
	C54.897228,61.019207 54.460587,61.028084 54.023941,61.036957 
z"/>
<path fill="#B0BACE" opacity="1.000000" stroke="none" 
	d="
M30.988281,72.016541 
	C32.723248,72.686295 34.458218,73.356056 36.580788,74.353455 
	C36.973652,75.107109 36.978909,75.533134 36.984161,75.959152 
	C33.998806,74.557838 31.013449,73.156517 28.002934,71.387398 
	C27.977777,71.019592 28.010214,70.987221 28.327559,71.015434 
	C29.426029,71.367943 30.207155,71.692245 30.988281,72.016541 
z"/>
<path fill="#AFB9CC" opacity="1.000000" stroke="none" 
	d="
M56.002399,56.609200 
	C55.346542,56.536343 54.696922,56.072914 53.969589,55.288136 
	C53.749004,54.423309 53.606133,53.879833 53.213856,52.874897 
	C52.664150,51.944321 52.363850,51.475212 52.063553,51.006100 
	C52.017185,50.564373 51.970814,50.122643 51.951187,49.348751 
	C53.321495,51.417271 54.665062,53.817955 56.002399,56.609200 
z"/>
<path fill="#B0B9CC" opacity="1.000000" stroke="none" 
	d="
M41.077953,74.055016 
	C43.474995,73.386597 45.872036,72.718185 48.640362,72.026505 
	C48.215599,72.927673 47.419552,73.852112 46.026306,74.924820 
	C44.953648,75.386444 44.478188,75.699799 44.002731,76.013153 
	C43.249706,76.022522 42.496681,76.031891 41.373413,75.703773 
	C41.028095,74.929199 41.053024,74.492104 41.077953,74.055016 
z"/>
<path fill="#B0B9CC" opacity="1.000000" stroke="none" 
	d="
M54.017811,61.422302 
	C54.460587,61.028084 54.897228,61.019207 55.661423,61.005722 
	C56.001362,61.751659 56.013752,62.502201 55.774250,63.796249 
	C55.373676,64.904114 55.224991,65.468483 55.076302,66.032845 
	C54.270630,67.019173 53.464954,68.005508 52.331734,69.001503 
	C52.673351,66.609993 53.342514,64.208817 54.017811,61.422302 
z"/>
<path fill="#CDD3E3" opacity="1.000000" stroke="none" 
	d="
M40.663773,74.035210 
	C41.053024,74.492104 41.028095,74.929199 40.996941,75.695480 
	C39.792522,76.182198 38.594330,76.339714 37.190151,76.228195 
	C36.978909,75.533134 36.973652,75.107109 36.952839,74.362335 
	C38.041386,74.034187 39.145485,74.024796 40.663773,74.035210 
z"/>
<path fill="#CDD3E3" opacity="1.000000" stroke="none" 
	d="
M55.359844,65.989410 
	C55.224991,65.468483 55.373676,64.904114 55.770107,64.171616 
	C55.893028,64.650978 55.768204,65.298485 55.359844,65.989410 
z"/>
<path fill="#B0BACE" opacity="1.000000" stroke="none" 
	d="
M26.949692,70.060242 
	C26.313248,69.608017 25.676804,69.155792 24.976299,68.395309 
	C24.912239,68.087051 24.973293,68.026825 25.321934,68.036919 
	C26.118244,68.694351 26.565912,69.341690 26.996788,70.006012 
	C26.979994,70.023003 26.949690,70.060242 26.949692,70.060242 
z"/>
<path fill="#CDD3E3" opacity="1.000000" stroke="none" 
	d="
M44.171768,76.238113 
	C44.478188,75.699799 44.953648,75.386444 45.730186,75.072388 
	C45.467781,75.535492 44.904293,75.999290 44.171768,76.238113 
z"/>
<path fill="#B0B9CC" opacity="1.000000" stroke="none" 
	d="
M51.218575,70.168861 
	C51.153343,69.991302 51.313950,69.629539 51.742401,69.134277 
	C51.821636,69.328735 51.633026,69.656693 51.218575,70.168861 
z"/>
<path fill="#B0BACE" opacity="1.000000" stroke="none" 
	d="
M27.959843,71.034225 
	C27.603540,70.976379 27.336174,70.797691 27.044750,70.286514 
	C26.949690,70.060242 26.979994,70.023003 27.217987,70.110596 
	C27.732243,70.396912 27.916986,70.659920 28.010214,70.987221 
	C28.010214,70.987221 27.977777,71.019592 27.959843,71.034225 
z"/>
<path fill="#B0B9CC" opacity="1.000000" stroke="none" 
	d="
M49.272907,71.918259 
	C49.250439,71.715050 49.500988,71.419350 50.051868,71.058037 
	C50.083439,71.270203 49.814682,71.547989 49.272907,71.918259 
z"/>
<path fill="#AFB9CC" opacity="1.000000" stroke="none" 
	d="
M51.871773,48.729057 
	C51.662373,48.823284 51.336823,48.628391 50.813839,48.212509 
	C50.996143,48.140995 51.375885,48.290466 51.871773,48.729057 
z"/>
<path fill="#683925" opacity="1.000000" stroke="none" 
	d="
M34.902393,54.188618 
	C34.902393,54.188618 34.499336,54.061642 34.257893,53.643692 
	C33.945137,52.479958 33.873825,51.734173 33.802517,50.988384 
	C36.502975,47.518330 39.562851,46.732567 43.473545,50.276260 
	C43.537113,51.886059 43.257679,52.958984 42.532017,54.012466 
	C39.691322,54.058216 37.296860,54.123417 34.902393,54.188618 
z"/>
<path fill="#D5D9E4" opacity="1.000000" stroke="none" 
	d="
M42.978241,54.031914 
	C43.257679,52.958984 43.537113,51.886059 43.781685,50.461475 
	C44.727215,50.543541 45.707603,50.977261 46.839596,51.718109 
	C46.956108,55.167553 46.921017,58.309872 46.557236,61.757729 
	C45.781536,62.024715 45.334534,61.986164 44.667423,61.958694 
	C44.447315,61.969784 44.005165,61.979084 43.886292,61.702904 
	C43.154964,60.958599 42.542515,60.490479 41.692108,60.003670 
	C41.454151,59.984989 40.980358,59.926636 41.035049,59.532074 
	C41.061359,58.608494 41.032982,58.079475 41.085442,57.488018 
	C41.166286,57.425583 41.476559,57.206688 41.849228,57.072117 
	C42.474014,55.969002 42.726128,55.000458 42.978241,54.031914 
z"/>
<path fill="#E5E8F3" opacity="1.000000" stroke="none" 
	d="
M33.450890,50.985840 
	C33.873825,51.734173 33.945137,52.479958 34.051128,53.600182 
	C31.983738,53.656300 29.881666,53.337982 27.378387,53.014839 
	C27.369127,51.685040 27.761080,50.360065 28.498539,48.924038 
	C30.262451,49.536423 31.680857,50.259857 33.450890,50.985840 
z"/>
<path fill="#D5D9E4" opacity="1.000000" stroke="none" 
	d="
M51.757507,51.028313 
	C52.363850,51.475212 52.664150,51.944321 52.979511,52.706905 
	C52.145512,52.851357 51.296452,52.702339 50.242752,52.301571 
	C50.509232,51.716724 50.980347,51.383625 51.757507,51.028313 
z"/>
<path fill="#CDD3E3" opacity="1.000000" stroke="none" 
	d="
M28.327559,71.015434 
	C27.916986,70.659920 27.732243,70.396912 27.234779,70.093613 
	C26.565912,69.341690 26.118244,68.694351 25.352661,68.007011 
	C24.692141,65.381470 23.996910,62.777664 24.129585,60.216747 
	C24.219614,58.479015 25.471624,56.801487 26.562466,55.001343 
	C28.276606,60.355762 29.632254,65.805878 30.988091,71.636261 
	C30.207155,71.692245 29.426029,71.367943 28.327559,71.015434 
z"/>
<path fill="#417BA0" opacity="1.000000" stroke="none" 
	d="
M32.004898,66.981133 
	C31.900442,63.709808 31.592754,60.317402 36.638145,59.948483 
	C37.038170,60.020935 37.007339,59.962975 37.012028,60.302612 
	C38.008770,61.736691 39.000828,62.831135 39.991112,64.312302 
	C40.046715,65.468063 40.104088,66.237091 39.868599,67.287796 
	C37.645374,67.771149 35.715015,67.972816 33.784653,68.174484 
	C33.784653,68.174484 33.333168,68.100876 33.057369,67.819519 
	C32.596554,67.249512 32.337662,67.063835 32.004898,66.981133 
z"/>
<path fill="#8697A6" opacity="1.000000" stroke="none" 
	d="
M33.958782,68.404793 
	C35.715015,67.972816 37.645374,67.771149 40.264793,67.271935 
	C41.750370,66.897980 42.546890,66.821571 43.660294,66.702759 
	C44.264927,65.483139 44.552673,64.305939 44.864784,62.833961 
	C44.888611,62.341988 44.888069,62.144798 44.887531,61.947609 
	C45.334534,61.986164 45.781536,62.024715 46.553932,62.152382 
	C46.948078,62.634972 47.016827,63.028450 47.116676,64.082657 
	C47.222584,65.497574 47.297390,66.251762 47.372200,67.005943 
	C47.009007,67.519989 46.645817,68.034035 45.696945,68.819534 
	C41.742016,69.190842 38.372772,69.290703 35.003525,69.390564 
	C34.713322,69.138741 34.423115,68.886917 33.958782,68.404793 
z"/>
<path fill="#D5D9E4" opacity="1.000000" stroke="none" 
	d="
M35.131111,69.736931 
	C38.372772,69.290703 41.742016,69.190842 45.572426,69.108177 
	C42.725651,72.635719 38.961819,71.018066 35.131111,69.736931 
z"/>
<path fill="#F8DB8A" opacity="1.000000" stroke="none" 
	d="
M42.532013,54.012466 
	C42.726128,55.000458 42.474014,55.969002 41.874725,56.731552 
	C39.679718,56.404438 37.831886,56.283314 35.984051,56.162189 
	C35.649540,55.702484 35.315029,55.242779 34.941456,54.485847 
	C37.296860,54.123417 39.691322,54.058216 42.532013,54.012466 
z"/>
<path fill="#FFFFD4" opacity="1.000000" stroke="none" 
	d="
M35.997353,56.280266 
	C37.831886,56.283314 39.679718,56.404438 41.502056,56.866123 
	C41.476559,57.206688 41.166286,57.425583 40.719448,57.642525 
	C39.233356,57.842751 38.194103,57.826031 36.989464,57.596012 
	C36.562675,57.133205 36.301270,56.883694 36.039864,56.634182 
	C36.039864,56.634182 36.010654,56.398338 35.997353,56.280266 
z"/>
<path fill="#FBD6A5" opacity="1.000000" stroke="none" 
	d="
M37.154850,57.809307 
	C38.194103,57.826031 39.233356,57.842751 40.638603,57.704964 
	C41.032982,58.079475 41.061359,58.608494 40.638451,59.561401 
	C39.127224,59.977848 38.067280,59.970413 37.007339,59.962975 
	C37.007339,59.962975 37.038170,60.020935 37.022675,60.050201 
	C37.007183,60.079468 36.969604,59.596203 37.004547,59.031807 
	C37.077942,58.248043 37.116394,58.028675 37.154850,57.809307 
z"/>
<path fill="#D5D9E4" opacity="1.000000" stroke="none" 
	d="
M47.660381,66.931625 
	C47.297390,66.251762 47.222584,65.497574 47.214630,64.367897 
	C47.503845,64.947372 47.726208,65.902344 47.660381,66.931625 
z"/>
<path fill="#F8DB8A" opacity="1.000000" stroke="none" 
	d="
M36.989464,57.596012 
	C37.116394,58.028675 37.077942,58.248043 36.962997,58.793030 
	C36.528282,58.527405 36.170059,57.936161 35.925850,56.989548 
	C36.301270,56.883694 36.562675,57.133205 36.989464,57.596012 
z"/>
<path fill="#D5D9E4" opacity="1.000000" stroke="none" 
	d="
M32.092957,67.198135 
	C32.337662,67.063835 32.596554,67.249512 32.832840,67.775925 
	C32.585648,67.889465 32.351280,67.689949 32.092957,67.198135 
z"/>
<path fill="#80B7DA" opacity="1.000000" stroke="none" 
	d="
M43.343414,66.745163 
	C42.546890,66.821571 41.750370,66.897980 40.557655,66.990250 
	C40.104088,66.237091 40.046715,65.468063 40.082844,64.011879 
	C40.760918,62.223934 41.345490,61.123142 41.930061,60.022354 
	C42.542515,60.490479 43.154964,60.958599 43.651772,61.801552 
	C43.360424,62.458118 43.184723,62.739853 42.968819,63.399185 
	C43.066879,64.766243 43.205147,65.755699 43.343414,66.745163 
z"/>
<path fill="#F7F9FA" opacity="1.000000" stroke="none" 
	d="
M41.692108,60.003670 
	C41.345490,61.123142 40.760918,62.223934 40.084618,63.625149 
	C39.000828,62.831135 38.008770,61.736691 37.012028,60.302612 
	C38.067280,59.970413 39.127224,59.977848 40.583763,59.955959 
	C40.980358,59.926636 41.454151,59.984989 41.692108,60.003670 
z"/>
<path fill="#A7D9F7" opacity="1.000000" stroke="none" 
	d="
M43.009022,63.021591 
	C43.184723,62.739853 43.360424,62.458118 43.770645,62.077736 
	C44.005165,61.979084 44.447315,61.969784 44.667423,61.958694 
	C44.888069,62.144798 44.888611,62.341988 44.561043,62.798996 
	C43.824959,63.046406 43.416992,63.034000 43.009022,63.021591 
z"/>
<path fill="#CFF5FD" opacity="1.000000" stroke="none" 
	d="
M42.968819,63.399185 
	C43.416992,63.034000 43.824959,63.046406 44.536674,63.093777 
	C44.552673,64.305939 44.264927,65.483139 43.660297,66.702751 
	C43.205147,65.755699 43.066879,64.766243 42.968819,63.399185 
z"/>
</svg>